<svg width="28" height="28" viewBox="0 0 28 28" fill="none" xmlns="http://www.w3.org/2000/svg">
<path d="M19.9446 0.600005L16.9967 6.76864L8.26892 3.31573C8.2338 3.30183 8.19613 3.29632 8.1589 3.29963C8.12167 3.30294 8.08591 3.31498 8.05443 3.33481C8.02296 3.35463 7.99665 3.38169 7.97759 3.41384C7.95852 3.44599 7.94723 3.48235 7.9446 3.52003L7.29231 12.8815L0.45295 12.878C0.252887 12.8782 0.143066 13.1164 0.274348 13.2746L11.6108 27.0124C11.7666 27.1984 12.0365 27.2477 12.2401 27.1195L27.7042 17.3784C27.9054 17.2517 27.9815 16.988 27.8769 16.7662L20.382 0.608603C20.2934 0.423441 20.0337 0.418045 19.9446 0.600005ZM17.6227 18.5218C16.0614 19.5053 13.9728 19.0049 12.9657 17.4061C11.9587 15.8073 12.4093 13.7074 13.9705 12.724C15.5318 11.7405 17.6204 12.2409 18.6275 13.8397C19.6345 15.4385 19.1839 17.5384 17.6227 18.5218ZM15.0133 14.3794C14.3446 14.8007 14.1518 15.6988 14.5848 16.3862C15.0162 17.0711 15.9112 17.2877 16.5799 16.8664C17.2486 16.4452 17.4414 15.547 17.0084 14.8596C16.577 14.1748 15.6821 13.9582 15.0133 14.3794Z" fill="url(#paint0_linear_304_917)"/>
<defs>
<linearGradient id="paint0_linear_304_917" x1="8.05551" y1="3.33413" x2="19.9707" y2="22.2498" gradientUnits="userSpaceOnUse">
<stop stop-color="#F0B419"/>
<stop offset="1" stop-color="#F5D37A"/>
</linearGradient>
</defs>
</svg>
