<svg width="195" height="144" viewBox="0 0 195 144" fill="none" xmlns="http://www.w3.org/2000/svg">
<path d="M27.1765 22.6402C30.6166 22.6402 33.7413 23.2422 36.5507 24.4462C39.4174 25.5929 41.8541 27.3703 43.8608 29.7783C48.2182 34.8811 50.3969 42.1912 50.3969 51.7087C50.3969 61.2262 48.2182 68.5364 43.8608 73.6391C39.8474 78.3979 34.3146 80.7773 27.2625 80.7773C20.153 80.7773 14.5629 78.3979 10.4922 73.6391C6.19212 68.651 4.04208 61.3409 4.04208 51.7087C4.04208 42.0765 6.19212 34.7664 10.4922 29.7783C14.5629 25.0195 20.1244 22.6402 27.1765 22.6402ZM39.9047 51.7087C39.9047 45.2873 38.7867 40.3852 36.5507 37.0024C34.372 33.5624 31.2473 31.8423 27.1765 31.8423C23.1631 31.8423 20.0384 33.5624 17.8023 37.0024C15.6236 40.3852 14.5343 45.2873 14.5343 51.7087C14.5343 58.1302 15.6236 63.0323 17.8023 66.415C20.0384 69.7404 23.1631 71.4031 27.1765 71.4031C31.2473 71.4031 34.372 69.7404 36.5507 66.415C38.7867 63.0323 39.9047 58.1302 39.9047 51.7087ZM99.8317 23.1562V58.5028H109.55V67.189H99.8317V79.5732H89.7696V67.189H61.475V59.5349L90.0276 23.1562H99.8317ZM73.5152 59.5349H90.2856V38.2065L73.5152 59.5349Z" fill="#6FE187"/>
<path d="M15.167 125.45C16.1808 125.281 17.1476 125.197 18.0675 125.197C19.9636 125.197 21.4749 125.657 22.6013 126.576C23.7277 127.478 24.2909 128.782 24.2909 130.491C24.2909 132.349 23.662 133.879 22.4042 135.081C21.0713 136.339 19.391 136.967 17.3635 136.967C15.3548 136.967 13.7497 136.461 12.5482 135.447C11.2903 134.396 10.6427 132.95 10.6051 131.11H14.0125C14.0125 132.068 14.3316 132.772 14.9699 133.222C15.6082 133.673 16.4249 133.898 17.4198 133.898C18.4148 133.898 19.2315 133.579 19.8698 132.941C20.5268 132.284 20.8554 131.467 20.8554 130.491C20.8554 128.632 19.5975 127.703 17.0819 127.703H11.5062L12.351 118.297H23.3053V121.339H15.5613L15.167 125.45ZM30.8249 136.348C30.149 136.348 29.5952 136.141 29.1634 135.728C28.7317 135.315 28.5158 134.79 28.5158 134.151C28.5158 133.513 28.7317 132.978 29.1634 132.546C29.5952 132.115 30.149 131.899 30.8249 131.899C31.5007 131.899 32.0639 132.115 32.5145 132.546C32.965 132.978 33.1903 133.513 33.1903 134.151C33.1903 134.79 32.965 135.315 32.5145 135.728C32.0639 136.141 31.5007 136.348 30.8249 136.348ZM30.8249 127.984C30.149 127.984 29.5952 127.778 29.1634 127.365C28.7317 126.952 28.5158 126.426 28.5158 125.788C28.5158 125.15 28.7317 124.615 29.1634 124.183C29.5952 123.751 30.149 123.535 30.8249 123.535C31.5007 123.535 32.0639 123.751 32.5145 124.183C32.965 124.615 33.1903 125.15 33.1903 125.788C33.1903 126.426 32.965 126.952 32.5145 127.365C32.0639 127.778 31.5007 127.984 30.8249 127.984ZM45.2578 117.931C46.3842 117.931 47.4073 118.128 48.3272 118.523C49.2659 118.898 50.0637 119.48 50.7208 120.269C52.1476 121.939 52.861 124.333 52.861 127.449C52.861 130.566 52.1476 132.959 50.7208 134.63C49.4067 136.188 47.595 136.967 45.2859 136.967C42.958 136.967 41.1276 136.188 39.7947 134.63C38.3867 132.997 37.6827 130.603 37.6827 127.449C37.6827 124.295 38.3867 121.902 39.7947 120.269C41.1276 118.71 42.9486 117.931 45.2578 117.931ZM49.4254 127.449C49.4254 125.347 49.0594 123.742 48.3272 122.634C47.6138 121.508 46.5907 120.944 45.2578 120.944C43.9436 120.944 42.9205 121.508 42.1883 122.634C41.4749 123.742 41.1182 125.347 41.1182 127.449C41.1182 129.552 41.4749 131.157 42.1883 132.265C42.9205 133.354 43.9436 133.898 45.2578 133.898C46.5907 133.898 47.6138 133.354 48.3272 132.265C49.0594 131.157 49.4254 129.552 49.4254 127.449ZM64.7674 117.931C65.8938 117.931 66.9169 118.128 67.8368 118.523C68.7755 118.898 69.5733 119.48 70.2304 120.269C71.6572 121.939 72.3706 124.333 72.3706 127.449C72.3706 130.566 71.6572 132.959 70.2304 134.63C68.9163 136.188 67.1046 136.967 64.7955 136.967C62.4676 136.967 60.6372 136.188 59.3043 134.63C57.8963 132.997 57.1923 130.603 57.1923 127.449C57.1923 124.295 57.8963 121.902 59.3043 120.269C60.6372 118.71 62.4582 117.931 64.7674 117.931ZM68.935 127.449C68.935 125.347 68.569 123.742 67.8368 122.634C67.1234 121.508 66.1003 120.944 64.7674 120.944C63.4532 120.944 62.4301 121.508 61.6979 122.634C60.9845 123.742 60.6278 125.347 60.6278 127.449C60.6278 129.552 60.9845 131.157 61.6979 132.265C62.4301 133.354 63.4532 133.898 64.7674 133.898C66.1003 133.898 67.1234 133.354 67.8368 132.265C68.569 131.157 68.935 129.552 68.935 127.449ZM93.1735 118.297C95.2386 118.297 96.8437 118.804 97.9889 119.818C99.1528 120.813 99.7348 122.249 99.7348 124.127C99.7348 125.985 99.1528 127.421 97.9889 128.435C96.8437 129.43 95.2386 129.927 93.1735 129.927H90.0759V136.573H86.7249V118.297H93.1735ZM93.1735 127.027C94.2061 127.027 94.9852 126.755 95.5108 126.21C96.0365 125.666 96.2993 124.971 96.2993 124.127C96.2993 123.263 96.0365 122.559 95.5108 122.015C94.9852 121.451 94.2061 121.17 93.1735 121.17H90.0759V127.027H93.1735ZM109.621 118.297L114.633 129.167L119.645 118.297H124.236V136.573H120.885V122.69L115.703 134.574H113.535L108.184 122.296V136.573H104.861V118.297H109.621ZM139.976 118.297H143.299V136.573H139.976V118.297ZM159.82 123.338C159.52 121.742 158.394 120.944 156.441 120.944C155.484 120.944 154.733 121.142 154.188 121.536C153.663 121.911 153.4 122.371 153.4 122.916C153.4 123.46 153.569 123.892 153.907 124.211C154.263 124.511 154.808 124.793 155.54 125.056L159.511 126.605C160.862 127.13 161.904 127.797 162.636 128.604C163.368 129.392 163.735 130.387 163.735 131.589C163.735 133.241 163.115 134.555 161.876 135.531C160.637 136.489 158.872 136.967 156.582 136.967C154.554 136.967 152.912 136.47 151.654 135.475C150.246 134.386 149.504 132.847 149.429 130.857H152.724C152.724 132.359 153.503 133.307 155.061 133.701C155.531 133.832 156.15 133.898 156.92 133.898C157.69 133.898 158.403 133.71 159.06 133.335C159.717 132.941 160.046 132.424 160.046 131.786C160.046 131.129 159.867 130.631 159.511 130.294C159.154 129.937 158.572 129.608 157.765 129.308L154.132 127.872C152.724 127.327 151.645 126.689 150.894 125.957C150.143 125.225 149.767 124.211 149.767 122.916C149.767 121.395 150.359 120.194 151.541 119.311C152.743 118.391 154.367 117.931 156.413 117.931C158.478 117.931 160.064 118.41 161.172 119.367C162.298 120.306 162.946 121.63 163.115 123.338H159.82ZM167.415 118.297H182.058V121.17H176.398V136.573H173.075V121.17H167.415V118.297Z" fill="#6FE187"/>
<path d="M128.61 23.6032H122.4V44.5732H128.61C135.6 44.5732 139.71 40.6432 139.71 34.1332C139.71 27.5632 135.6 23.6032 128.61 23.6032ZM124.5 42.8332V25.3432H128.61C134.55 25.3432 137.58 28.7032 137.58 34.1332C137.58 39.5332 134.55 42.8332 128.61 42.8332H124.5ZM156.332 23.5732H145.382V44.5732H156.332V42.8332H147.482V34.8832H155.432V33.1432H147.482V25.3132H156.332V23.5732ZM161.31 34.0732C161.31 40.3732 165.75 44.7532 171.57 44.7532C176.25 44.7532 179.73 42.4132 181.23 38.4532H178.77C177.6 41.1832 175.14 42.9232 171.57 42.9232C166.98 42.9232 163.47 39.5332 163.47 34.0732C163.47 28.5832 166.98 25.1932 171.57 25.1932C175.14 25.1932 177.6 26.9332 178.77 29.7232H181.23C179.73 25.7032 176.25 23.3632 171.57 23.3632C165.75 23.3632 161.31 27.7732 161.31 34.0732Z" fill="#040F0F"/>
<path d="M121.53 81.9232C125.21 79.1632 128.05 76.6932 130.05 74.5132C132.07 72.3132 133.08 70.1632 133.08 68.0632C133.08 66.6832 132.73 65.5832 132.03 64.7632C131.35 63.9232 130.23 63.5032 128.67 63.5032C127.15 63.5032 125.97 63.9832 125.13 64.9432C124.31 65.8832 123.85 67.1432 123.75 68.7232H121.71C121.83 66.5032 122.51 64.7832 123.75 63.5632C125.01 62.3232 126.65 61.7032 128.67 61.7032C130.61 61.7032 132.18 62.2532 133.38 63.3532C134.58 64.4332 135.18 65.9732 135.18 67.9732C135.18 70.3932 134.17 72.7432 132.15 75.0232C130.15 77.2832 127.68 79.4932 124.74 81.6532H135.84V83.4232H121.53V81.9232ZM140.918 72.6232C140.918 69.1832 141.448 66.5132 142.508 64.6132C143.568 62.7132 145.468 61.7632 148.208 61.7632C150.948 61.7632 152.848 62.7132 153.908 64.6132C154.968 66.5132 155.498 69.1832 155.498 72.6232C155.498 76.1232 154.968 78.8332 153.908 80.7532C152.848 82.6732 150.948 83.6332 148.208 83.6332C145.448 83.6332 143.538 82.6732 142.478 80.7532C141.438 78.8332 140.918 76.1232 140.918 72.6232ZM153.428 72.6232C153.428 70.7632 153.298 69.1932 153.038 67.9132C152.778 66.6332 152.268 65.6032 151.508 64.8232C150.748 64.0432 149.648 63.6532 148.208 63.6532C146.768 63.6532 145.668 64.0432 144.908 64.8232C144.148 65.6032 143.638 66.6332 143.378 67.9132C143.118 69.1932 142.988 70.7632 142.988 72.6232C142.988 74.5432 143.118 76.1532 143.378 77.4532C143.638 78.7332 144.148 79.7632 144.908 80.5432C145.668 81.3232 146.768 81.7132 148.208 81.7132C149.648 81.7132 150.748 81.3232 151.508 80.5432C152.268 79.7632 152.778 78.7332 153.038 77.4532C153.298 76.1532 153.428 74.5432 153.428 72.6232ZM160.784 81.9232C164.464 79.1632 167.304 76.6932 169.304 74.5132C171.324 72.3132 172.334 70.1632 172.334 68.0632C172.334 66.6832 171.984 65.5832 171.284 64.7632C170.604 63.9232 169.484 63.5032 167.924 63.5032C166.404 63.5032 165.224 63.9832 164.384 64.9432C163.564 65.8832 163.104 67.1432 163.004 68.7232H160.964C161.084 66.5032 161.764 64.7832 163.004 63.5632C164.264 62.3232 165.904 61.7032 167.924 61.7032C169.864 61.7032 171.434 62.2532 172.634 63.3532C173.834 64.4332 174.434 65.9732 174.434 67.9732C174.434 70.3932 173.424 72.7432 171.404 75.0232C169.404 77.2832 166.934 79.4932 163.994 81.6532H175.094V83.4232H160.784V81.9232ZM179.152 63.9532V62.0632H184.252V83.5732H182.122V63.9532H179.152Z" fill="#040F0F"/>
<line x1="190.5" y1="101.073" x2="10.5" y2="101.073" stroke="#2D3A3A" stroke-width="3" stroke-linecap="round"/>
</svg>

