<svg width="43" height="43" viewBox="0 0 43 43" fill="none" xmlns="http://www.w3.org/2000/svg">
<g clip-path="url(#clip0_162_373)">
<path d="M0 7.88623C1.73341 5.47352 3.8882 3.53937 5.80356 1.29615C6.59844 0.408833 7.5657 0.0200065 8.74365 0.0200065C15.8497 0.0399462 22.9461 0.0798275 30.0425 6.86009e-05C31.9388 -0.029841 33.6722 0.378922 35.3673 1.12666C36.0281 1.42576 36.1334 1.80461 35.6546 2.38286C34.7256 3.51943 33.7679 4.63605 32.8198 5.75268C31.8717 6.8693 31.4025 8.04574 29.7457 7.96599C27.9261 7.86629 23.0131 7.02882 22.4577 9.30195C22.2757 9.83035 22.5151 9.98987 23.061 9.98987H30.531C30.9332 10.0198 32.3314 9.86026 31.7568 10.598C30.0138 12.6917 28.0889 14.6259 26.298 16.6697C25.4648 17.5869 24.4975 18.1053 23.243 18.0156C22.5247 17.9558 22.3332 18.1951 22.3428 18.9428C22.3332 23.8081 22.3715 28.6734 22.429 33.5387C22.429 34.7749 22.1512 35.8716 21.2893 36.8088C19.6996 38.9523 18.3971 40.8665 16.4339 42.6611C14.3844 44.1366 14.8633 40.2883 14.7483 39.2514C14.5664 29.2018 15.2942 19.0425 14.5281 9.04273C14.2599 8.17535 13.9056 7.92611 13.0149 7.92611C8.66704 7.8962 4.35746 7.98593 0 7.88623Z" fill="#009C07"/>
<path d="M31.1056 19.0525C36.2483 19.1123 37.8381 11.1963 33.1454 9.04277C32.0632 8.38476 33.1071 7.01889 33.7584 6.37085L36.2004 3.43971C37.8955 0.917337 41.6784 7.06874 42.1189 8.66391C44.9537 16.0416 40.6633 24.9945 33.1646 26.829C30.2149 27.1979 27.1982 26.9088 24.239 26.9985C23.4824 26.9985 23.1472 26.6595 23.1376 25.8918C23.0993 24.0075 23.0706 22.1332 23.0419 20.2589C23.0323 19.5011 23.31 19.1721 24.0283 19.1622C25.2733 19.1422 26.5087 19.1522 27.7537 19.1522C28.2134 19.1323 29.9947 19.0525 31.1056 19.0525Z" fill="#0E0E0E"/>
</g>
<defs>
<clipPath id="clip0_162_373">
<rect width="43" height="43" fill="white"/>
</clipPath>
</defs>
</svg>
