<svg width="613" height="642" viewBox="0 0 613 642" fill="none" xmlns="http://www.w3.org/2000/svg">
<path d="M323.871 487.389L396.239 529.154L428.148 510.735L500.515 552.5" stroke="#009C07" stroke-width="1.6294" stroke-miterlimit="10"/>
<path d="M364.33 379.481L417.824 349.63L396.239 338.231L437.602 314.37" stroke="white" stroke-width="1.6294" stroke-miterlimit="10"/>
<path d="M314.45 349.63L355.78 325.769L335.099 313.822L385.915 283.488" stroke="white" stroke-width="1.6294" stroke-miterlimit="10"/>
<path d="M437.601 289.446L395.335 313.822L366.137 295.951" stroke="white" stroke-width="1.6294" stroke-miterlimit="10"/>
<path d="M376.461 254.185L323.871 283.488L334.195 289.446L292.865 314.37L338.164 339.455" stroke="white" stroke-width="1.6294" stroke-miterlimit="10"/>
<path d="M179.136 355.072L157.584 367.534" stroke="white" stroke-width="1.6294" stroke-miterlimit="10"/>
<path d="M211.787 241.787C208.367 243.236 202.72 243.172 199.171 241.658C195.622 240.145 195.655 237.794 199.171 236.41C202.688 235.025 208.367 235.089 211.787 236.538C215.206 237.988 215.239 240.338 211.787 241.787Z" fill="white"/>
<path d="M382.817 256.311C379.397 257.76 373.751 257.695 370.202 256.182C366.653 254.668 366.685 252.318 370.202 250.933C373.718 249.548 379.397 249.613 382.817 251.062C386.237 252.511 386.269 254.862 382.817 256.311Z" fill="white"/>
<path d="M391.335 286.644C387.915 288.093 382.269 288.061 378.72 286.515C375.171 284.97 375.203 282.651 378.72 281.299C382.237 279.946 387.915 279.978 391.335 281.427C394.755 282.876 394.787 285.227 391.335 286.644Z" fill="white"/>
<path d="M442.699 292.247C439.247 293.696 433.601 293.632 430.084 292.118C426.567 290.605 426.535 288.254 430.084 286.87C433.633 285.485 439.247 285.549 442.699 286.998C446.151 288.447 446.119 290.798 442.699 292.247Z" fill="white"/>
<path d="M443.925 315.98C440.505 317.429 434.858 317.364 431.309 315.851C427.76 314.337 427.793 311.987 431.309 310.602C434.826 309.217 440.505 309.282 443.925 310.731C447.345 312.18 447.377 314.531 443.925 315.98Z" fill="white"/>
<path d="M506.549 555.141C503.097 556.59 497.451 556.557 493.934 555.012C490.417 553.466 490.385 551.148 493.934 549.795C497.483 548.443 503.097 548.475 506.549 549.924C510.002 551.373 509.969 553.724 506.549 555.141Z" fill="#009C07"/>
<path d="M302.287 427.204L97.3469 546.542L179.136 594.78L180.039 594.265L105.897 639.057" stroke="#009C07" stroke-width="1.6294" stroke-miterlimit="10"/>
<path d="M179.136 499.335L126.546 468.969L66.3092 504.777L55.0814 498.273" stroke="#009C07" stroke-width="1.6294" stroke-miterlimit="10"/>
<path d="M303.191 474.411L210.142 529.154L251.504 551.985L221.402 570.404" stroke="#009C07" stroke-width="1.6294" stroke-miterlimit="10"/>
<path d="M301.416 511.25L396.239 564.962L355.78 588.308L385.915 605.697" stroke="#009C07" stroke-width="1.6294" stroke-miterlimit="10"/>
<path d="M417.824 433.161L509.066 486.873L531.554 474.926L588.919 509.092" stroke="#009C07" stroke-width="1.6294" stroke-miterlimit="10"/>
<path d="M560.753 552.5L468.607 499.335L498.967 480.884" stroke="#009C07" stroke-width="1.6294" stroke-miterlimit="10"/>
<path d="M18.8491 471.449L66.3092 445.108L95.5403 463.012L179.136 415.772L200.72 428.234L231.726 409.3" stroke="#009C07" stroke-width="1.6294" stroke-miterlimit="10"/>
<path d="M385.012 403.343L407.467 415.257L436.698 397.353L521.197 445.108L540.072 433.161L593.565 463.012" stroke="#009C07" stroke-width="1.6294" stroke-miterlimit="10"/>
<path d="M417.824 385.438L488.385 343.673L522.682 363.445L558.623 338.939" stroke="#009C07" stroke-width="1.6294" stroke-miterlimit="10"/>
<path d="M319.354 352.464L211.044 289.961L251.503 266.615L203.849 239.115" stroke="#009C07" stroke-width="1.6294" stroke-miterlimit="10"/>
<path d="M271.281 374.522L167.908 313.822L148.13 326.284L97.3469 296.981" stroke="#009C07" stroke-width="1.6294" stroke-miterlimit="10"/>
<path d="M240.276 415.257L127.449 350.146L86.087 372.976L18.8491 335.204" stroke="#009C07" stroke-width="1.6294" stroke-miterlimit="10"/>
<path d="M158.455 283.488L210.141 314.37L187.686 326.284" stroke="#009C07" stroke-width="1.6294" stroke-miterlimit="10"/>
<path d="M25.2053 338.424C21.7853 339.874 16.1069 339.809 12.5901 338.296C9.07335 336.782 9.04109 334.432 12.5901 333.047C16.1391 331.662 21.7853 331.727 25.2053 333.176C28.6252 334.625 28.6252 336.975 25.2053 338.424Z" fill="#009C07"/>
<path d="M108.51 299.622C105.09 301.071 99.4443 301.038 95.8953 299.493C92.3463 297.947 92.3785 295.629 95.8953 294.276C99.412 292.924 105.09 292.956 108.51 294.405C111.93 295.854 111.963 298.205 108.51 299.622Z" fill="#009C07"/>
<path d="M163.907 286.129C160.487 287.578 154.841 287.514 151.292 286C147.743 284.487 147.775 282.136 151.292 280.751C154.809 279.367 160.487 279.463 163.907 280.912C167.327 282.362 167.359 284.68 163.907 286.129Z" fill="#009C07"/>
<path d="M564.979 340.356C561.559 341.805 555.913 341.741 552.364 340.227C548.815 338.714 548.847 336.363 552.364 334.979C555.881 333.594 561.559 333.691 564.979 335.107C568.399 336.524 568.431 338.907 564.979 340.356Z" fill="#009C07"/>
<path d="M599.921 465.137C596.469 466.586 590.822 466.522 587.306 465.009C583.789 463.495 583.757 461.144 587.306 459.76C590.855 458.375 596.469 458.439 599.921 459.889C603.373 461.338 603.341 463.688 599.921 465.137Z" fill="#009C07"/>
<path d="M595.243 512.86C591.823 514.309 586.176 514.277 582.627 512.731C579.078 511.185 579.111 508.867 582.627 507.514C586.144 506.162 591.823 506.194 595.243 507.643C598.663 509.092 598.695 511.443 595.243 512.86Z" fill="#009C07"/>
<path d="M564.979 555.688C561.559 557.137 555.913 557.072 552.364 555.559C548.815 554.045 548.847 551.695 552.364 550.31C555.881 548.925 561.559 548.99 564.979 550.439C568.399 551.888 568.431 554.239 564.979 555.688Z" fill="#009C07"/>
<path d="M391.335 608.337C387.915 609.786 382.269 609.722 378.72 608.208C375.171 606.695 375.203 604.344 378.72 602.959C382.237 601.575 387.915 601.639 391.335 603.088C394.755 604.537 394.787 606.888 391.335 608.337Z" fill="#009C07"/>
<path d="M227.725 573.044C224.305 574.494 218.659 574.429 215.11 572.916C211.561 571.402 211.593 569.051 215.11 567.699C218.626 566.346 224.305 566.379 227.725 567.828C231.145 569.277 231.177 571.595 227.725 573.044Z" fill="#009C07"/>
<path d="M113.124 640.442C109.672 641.891 104.026 641.827 100.509 640.313C96.9921 638.8 96.9598 636.449 100.509 635.064C104.058 633.68 109.672 633.744 113.124 635.193C116.576 636.642 116.544 638.993 113.124 640.442Z" fill="#009C07"/>
<path d="M62.3409 501.976C58.8887 503.425 53.2425 503.36 49.7257 501.847C46.209 500.334 46.1767 497.983 49.7257 496.598C53.2748 495.214 58.8887 495.31 62.3409 496.727C65.7931 498.144 65.7609 500.527 62.3409 501.976Z" fill="#009C07"/>
<path d="M25.2053 474.121C21.7853 475.57 16.1069 475.506 12.5901 473.992C9.07335 472.479 9.04109 470.128 12.5901 468.744C16.1391 467.359 21.7853 467.423 25.2053 468.872C28.6252 470.321 28.6252 472.672 25.2053 474.121Z" fill="#009C07"/>
<path d="M186.395 357.745C182.975 359.194 177.296 359.13 173.779 357.617C170.263 356.103 170.23 353.752 173.779 352.368C177.328 350.983 182.975 351.047 186.395 352.496C189.815 353.946 189.815 356.296 186.395 357.745Z" fill="white"/>
<path d="M312.643 478.971L139.613 377.777L312.514 277.962L485.674 377.777L312.643 478.971Z" fill="white" stroke="white" stroke-width="0.745732"/>
<path d="M138.87 377.774V429.651L312.643 529.154V477.921L138.87 377.774Z" fill="#85D088"/>
<path d="M486.416 377.774V429.651L312.643 529.154V477.921L486.416 377.774Z" fill="#B2E1B1"/>
<path d="M138.87 391.299V412.005L312.643 510.091V489.643L138.87 391.299Z" fill="white"/>
<path d="M486.416 391.299V412.005L312.643 510.091V489.643L486.416 391.299Z" fill="white"/>
<g opacity="0.6">
<path opacity="0.6" d="M382.591 404.566C344.713 420.506 282.444 419.862 243.502 403.117C204.559 386.373 204.559 360.515 243.502 345.38C282.444 330.245 344.746 330.857 382.591 346.829C420.437 362.801 420.437 388.594 382.591 404.566Z" fill="#91F58F"/>
</g>
<path d="M3.49176 60.7505H0.265381V309.61H3.49176V60.7505Z" fill="white"/>
<path d="M20.3657 60.7505H1.87854V63.9642H20.3657V60.7505Z" fill="white"/>
<path d="M20.3657 306.384H1.87854V309.598H20.3657V306.384Z" fill="white"/>
<path d="M3.4917 74.2109H15.9455" stroke="#E8E8E8" stroke-width="3.21371" stroke-miterlimit="10"/>
<path d="M20.3657 84.9663H1.87854V88.18H20.3657V84.9663Z" fill="white"/>
<path d="M3.4917 98.4263H15.9455" stroke="#E8E8E8" stroke-width="3.21371" stroke-miterlimit="10"/>
<path d="M20.3657 109.182H1.87854V112.395H20.3657V109.182Z" fill="white"/>
<path d="M3.4917 122.642H15.9455" stroke="#E8E8E8" stroke-width="3.21371" stroke-miterlimit="10"/>
<path d="M20.3657 133.397H1.87854V136.611H20.3657V133.397Z" fill="white"/>
<path d="M3.4917 146.857H15.9455" stroke="#E8E8E8" stroke-width="3.21371" stroke-miterlimit="10"/>
<path d="M20.3657 157.613H1.87854V160.826H20.3657V157.613Z" fill="white"/>
<path d="M3.4917 171.073H15.9455" stroke="#E8E8E8" stroke-width="3.21371" stroke-miterlimit="10"/>
<path d="M20.3657 181.828H1.87854V185.042H20.3657V181.828Z" fill="white"/>
<path d="M3.4917 195.289H15.9455" stroke="#E8E8E8" stroke-width="3.21371" stroke-miterlimit="10"/>
<path d="M20.3657 206.043H1.87854V209.257H20.3657V206.043Z" fill="white"/>
<path d="M3.4917 219.504H15.9455" stroke="#E8E8E8" stroke-width="3.21371" stroke-miterlimit="10"/>
<path d="M20.3657 230.259H1.87854V233.473H20.3657V230.259Z" fill="white"/>
<path d="M3.4917 243.72H15.9455" stroke="#E8E8E8" stroke-width="3.21371" stroke-miterlimit="10"/>
<path d="M20.3657 254.507H1.87854V257.721H20.3657V254.507Z" fill="white"/>
<path d="M3.4917 267.935H15.9455" stroke="#E8E8E8" stroke-width="3.21371" stroke-miterlimit="10"/>
<path d="M20.3657 280.333H1.87854V283.546H20.3657V280.333Z" fill="white"/>
<path d="M3.4917 293.761H15.9455" stroke="#E8E8E8" stroke-width="3.21371" stroke-miterlimit="10"/>
<path d="M612.181 60.7505H608.955V309.61H612.181V60.7505Z" fill="white"/>
<path d="M610.536 60.7505H592.049V63.9642H610.536V60.7505Z" fill="white"/>
<path d="M610.535 306.384H592.048V309.598H610.535V306.384Z" fill="white"/>
<path d="M608.955 74.2109H596.469" stroke="#E8E8E8" stroke-width="3.21371" stroke-miterlimit="10"/>
<path d="M610.535 84.9663H592.048V88.18H610.535V84.9663Z" fill="white"/>
<path d="M608.955 98.4263H596.469" stroke="#E8E8E8" stroke-width="3.21371" stroke-miterlimit="10"/>
<path d="M610.535 109.182H592.048V112.395H610.535V109.182Z" fill="white"/>
<path d="M608.955 122.642H596.469" stroke="#E8E8E8" stroke-width="3.21371" stroke-miterlimit="10"/>
<path d="M610.535 133.397H592.048V136.611H610.535V133.397Z" fill="white"/>
<path d="M608.955 146.857H596.469" stroke="#E8E8E8" stroke-width="3.21371" stroke-miterlimit="10"/>
<path d="M610.535 157.613H592.048V160.826H610.535V157.613Z" fill="white"/>
<path d="M608.955 171.073H596.469" stroke="#E8E8E8" stroke-width="3.21371" stroke-miterlimit="10"/>
<path d="M610.535 181.828H592.048V185.042H610.535V181.828Z" fill="white"/>
<path d="M608.955 195.289H596.469" stroke="#E8E8E8" stroke-width="3.21371" stroke-miterlimit="10"/>
<path d="M610.535 206.043H592.048V209.257H610.535V206.043Z" fill="white"/>
<path d="M608.955 219.504H596.469" stroke="#E8E8E8" stroke-width="3.21371" stroke-miterlimit="10"/>
<path d="M610.535 230.259H592.048V233.473H610.535V230.259Z" fill="white"/>
<path d="M608.955 243.719H596.469" stroke="#E8E8E8" stroke-width="3.21371" stroke-miterlimit="10"/>
<path d="M610.535 254.507H592.048V257.721H610.535V254.507Z" fill="white"/>
<path d="M608.955 267.935H596.469" stroke="#E8E8E8" stroke-width="3.21371" stroke-miterlimit="10"/>
<path d="M610.535 280.333H592.048V283.546H610.535V280.333Z" fill="white"/>
<path d="M608.955 293.761H596.469" stroke="#E8E8E8" stroke-width="3.21371" stroke-miterlimit="10"/>
<path d="M10.9123 45.1006C13.692 45.1006 15.9455 42.8515 15.9455 40.0771C15.9455 37.3028 13.692 35.0537 10.9123 35.0537C8.13257 35.0537 5.87915 37.3028 5.87915 40.0771C5.87915 42.8515 8.13257 45.1006 10.9123 45.1006Z" fill="white"/>
<path d="M10.9124 40.0771H74.3108L88.3778 21.7866H191.009" stroke="#E8E8E8" stroke-width="3.21371" stroke-miterlimit="10"/>
<path d="M602.695 40.0772C602.695 41.0722 602.991 42.0447 603.546 42.8714C604.1 43.6982 604.888 44.342 605.81 44.7213C606.731 45.1005 607.745 45.1981 608.722 45.0017C609.699 44.8052 610.596 44.3236 611.299 43.6178C612.001 42.912 612.478 42.0139 612.669 41.0374C612.859 40.0608 612.755 39.0498 612.369 38.1324C611.983 37.2151 611.333 36.4328 610.501 35.8847C609.669 35.3366 608.693 35.0474 607.696 35.0538C607.037 35.0538 606.384 35.184 605.775 35.4368C605.166 35.6897 604.613 36.0602 604.149 36.5271C603.684 36.994 603.316 37.548 603.067 38.1573C602.817 38.7666 602.691 39.4191 602.695 40.0772Z" fill="white"/>
<path d="M607.696 40.0771H544.33L530.231 21.7866H427.632" stroke="#E8E8E8" stroke-width="3.21371" stroke-miterlimit="10"/>
<g opacity="0.5">
<path d="M124.32 107.153C124.32 108.86 123.813 110.528 122.862 111.948C121.912 113.367 120.562 114.473 118.982 115.126C117.402 115.779 115.663 115.95 113.986 115.617C112.309 115.284 110.768 114.462 109.559 113.255C108.35 112.048 107.526 110.511 107.192 108.837C106.859 107.163 107.03 105.427 107.684 103.85C108.339 102.273 109.447 100.926 110.869 99.9774C112.291 99.0291 113.963 98.5229 115.673 98.5229C117.966 98.5229 120.166 99.4322 121.787 101.051C123.409 102.669 124.32 104.864 124.32 107.153Z" fill="white"/>
<path d="M151.679 153.556C139.514 162.834 124.203 167.012 109 165.202C93.7966 163.392 79.8999 155.736 70.2627 143.862C60.6255 131.988 56.0075 116.831 57.3899 101.612C58.7724 86.3928 66.0463 72.3118 77.666 62.3608" stroke="#E8E8E8" stroke-width="1.55533" stroke-miterlimit="10"/>
<path opacity="0.5" d="M115.673 157.613C87.7971 157.613 65.1156 134.975 65.1156 107.153C65.1156 79.331 87.7971 56.6611 115.673 56.6611C143.549 56.6611 166.263 79.2988 166.263 107.153C166.263 135.007 143.581 157.613 115.673 157.613ZM115.673 69.5095C94.8951 69.5095 77.9889 86.3831 77.9889 107.153C77.9974 117.126 81.9704 126.687 89.0357 133.739C96.101 140.791 105.681 144.756 115.673 144.764C136.483 144.764 153.389 127.891 153.389 107.153C153.381 97.172 149.404 87.6022 142.333 80.5445C135.262 73.4868 125.673 69.5181 115.673 69.5095Z" fill="white"/>
<path opacity="0.5" d="M115.673 133.623C110.428 133.623 105.3 132.07 100.939 129.162C96.5773 126.253 93.1781 122.119 91.1708 117.283C89.1635 112.446 88.6383 107.124 89.6616 101.989C90.6849 96.8547 93.2108 92.1382 96.9198 88.4364C100.629 84.7345 105.354 82.2136 110.499 81.1922C115.643 80.1709 120.976 80.6951 125.822 82.6985C130.668 84.7019 134.81 88.0946 137.724 92.4475C140.638 96.8004 142.194 101.918 142.194 107.153C142.185 114.171 139.388 120.899 134.417 125.861C129.445 130.823 122.704 133.614 115.673 133.623ZM115.673 87.4137C111.761 87.4137 107.937 88.5714 104.685 90.7404C101.433 92.9094 98.8975 95.9923 97.4006 99.5993C95.9037 103.206 95.512 107.175 96.2752 111.004C97.0383 114.833 98.9219 118.351 101.688 121.111C104.454 123.872 107.978 125.752 111.814 126.513C115.651 127.275 119.628 126.884 123.241 125.39C126.855 123.896 129.944 121.366 132.117 118.12C134.291 114.874 135.451 111.057 135.451 107.153C135.451 101.918 133.367 96.8972 129.658 93.1953C125.949 89.4934 120.918 87.4137 115.673 87.4137Z" fill="white"/>
</g>
<path d="M70.2773 184.694H69.019V276.211H70.2773V184.694Z" fill="white"/>
<path d="M79.0207 184.694H77.7625V276.211H79.0207V184.694Z" fill="white"/>
<path d="M87.7645 184.694H86.5062V276.211H87.7645V184.694Z" fill="white"/>
<path d="M96.5079 184.694H95.2496V276.211H96.5079V184.694Z" fill="white"/>
<path d="M105.251 184.694H103.993V276.211H105.251V184.694Z" fill="white"/>
<path d="M113.995 184.694H112.769V276.211H113.995V184.694Z" fill="white"/>
<path d="M122.739 184.694H121.481V276.211H122.739V184.694Z" fill="white"/>
<path d="M131.514 184.694H130.256V276.211H131.514V184.694Z" fill="white"/>
<path d="M142.258 199.282H58.2754V200.47H142.258V199.282Z" fill="white"/>
<path d="M142.258 208.041H58.2754V209.232H142.258V208.041Z" fill="white"/>
<path d="M142.258 216.767H58.2754V217.955H142.258V216.767Z" fill="white"/>
<path d="M142.258 225.494H58.2754V226.682H142.258V225.494Z" fill="white"/>
<path d="M142.258 234.22H58.2754V235.405H142.258V234.22Z" fill="white"/>
<path d="M142.258 242.947H58.2754V244.132H142.258V242.947Z" fill="white"/>
<path d="M142.258 251.673H58.2754V252.865H142.258V251.673Z" fill="white"/>
<path d="M142.258 260.4H58.2754V261.585H142.258V260.4Z" fill="white"/>
<path d="M70.1157 261.978L69.1801 261.109L86.5703 242.689L96.1204 215.93L104.799 232.256L121.609 217.089L130.707 198.573L131.836 199.121L122.544 217.959L104.444 234.285L96.3785 219.053L87.6995 243.333L70.1157 261.978Z" fill="white"/>
<path d="M90.6682 243.527C90.6682 244.221 90.4619 244.899 90.0755 245.477C89.6891 246.054 89.1398 246.504 88.4972 246.769C87.8546 247.035 87.1475 247.105 86.4653 246.969C85.7831 246.834 85.1565 246.499 84.6647 246.009C84.1729 245.518 83.8379 244.892 83.7022 244.211C83.5665 243.53 83.6362 242.825 83.9023 242.183C84.1685 241.542 84.6193 240.994 85.1976 240.608C85.7759 240.222 86.4559 240.017 87.1514 240.017C88.0841 240.017 88.9786 240.386 89.6381 241.045C90.2977 241.703 90.6682 242.596 90.6682 243.527Z" fill="white"/>
<path d="M99.4112 217.347C99.4112 218.041 99.205 218.72 98.8185 219.297C98.4321 219.874 97.8829 220.324 97.2403 220.59C96.5977 220.855 95.8906 220.925 95.2084 220.789C94.5262 220.654 93.8996 220.32 93.4077 219.829C92.9159 219.338 92.581 218.712 92.4453 218.032C92.3096 217.351 92.3792 216.645 92.6454 216.004C92.9116 215.362 93.3623 214.814 93.9406 214.428C94.519 214.043 95.1989 213.837 95.8945 213.837C96.8272 213.837 97.7217 214.207 98.3812 214.865C99.0407 215.523 99.4112 216.416 99.4112 217.347Z" fill="white"/>
<path d="M108.155 234.703C108.155 235.398 107.949 236.076 107.562 236.653C107.176 237.231 106.627 237.68 105.984 237.946C105.341 238.212 104.634 238.281 103.952 238.146C103.27 238.01 102.643 237.676 102.151 237.185C101.66 236.694 101.325 236.069 101.189 235.388C101.053 234.707 101.123 234.001 101.389 233.36C101.655 232.719 102.106 232.171 102.684 231.785C103.263 231.399 103.943 231.193 104.638 231.193C105.571 231.193 106.465 231.563 107.125 232.221C107.784 232.88 108.155 233.772 108.155 234.703Z" fill="white"/>
<path d="M125.643 217.347C125.643 218.041 125.437 218.72 125.05 219.297C124.664 219.874 124.115 220.324 123.472 220.59C122.829 220.855 122.122 220.925 121.44 220.789C120.758 220.654 120.131 220.32 119.639 219.829C119.148 219.338 118.813 218.712 118.677 218.032C118.541 217.351 118.611 216.645 118.877 216.004C119.143 215.362 119.594 214.814 120.172 214.428C120.751 214.043 121.431 213.837 122.126 213.837C123.059 213.837 123.953 214.207 124.613 214.865C125.272 215.523 125.643 216.416 125.643 217.347Z" fill="white"/>
<path d="M134.805 199.893C134.812 200.597 134.608 201.286 134.22 201.873C133.833 202.461 133.279 202.92 132.629 203.192C131.979 203.464 131.263 203.537 130.572 203.401C129.88 203.265 129.245 202.927 128.747 202.43C128.248 201.933 127.91 201.299 127.774 200.609C127.638 199.919 127.711 199.204 127.984 198.555C128.256 197.907 128.716 197.354 129.305 196.967C129.893 196.58 130.584 196.377 131.288 196.383C132.221 196.383 133.116 196.753 133.775 197.412C134.435 198.07 134.805 198.963 134.805 199.893Z" fill="white"/>
<path d="M516.616 159.384C490.579 159.384 469.446 138.26 469.446 112.305C469.446 86.3508 490.579 65.2266 516.616 65.2266C542.653 65.2266 563.753 86.3508 563.753 112.305C563.753 138.26 542.62 159.384 516.616 159.384ZM516.616 67.5129C491.837 67.5129 471.705 87.6066 471.705 112.305C471.705 137.004 491.837 157.097 516.616 157.097C541.394 157.097 561.495 137.004 561.495 112.305C561.495 87.6066 541.362 67.5129 516.616 67.5129Z" fill="white"/>
<path d="M516.616 137.068C511.709 137.068 506.912 135.616 502.831 132.895C498.751 130.174 495.571 126.307 493.693 121.782C491.815 117.257 491.324 112.278 492.281 107.474C493.239 102.671 495.602 98.2586 499.072 94.7954C502.542 91.3322 506.962 88.9738 511.775 88.0183C516.588 87.0628 521.577 87.5532 526.11 89.4275C530.644 91.3017 534.519 94.4756 537.245 98.5479C539.971 102.62 541.427 107.408 541.427 112.305C541.418 118.87 538.801 125.164 534.15 129.806C529.499 134.448 523.193 137.06 516.616 137.068ZM516.616 88.7339C511.945 88.7339 507.378 90.1164 503.495 92.7065C499.611 95.2965 496.584 98.9779 494.796 103.285C493.009 107.592 492.541 112.332 493.452 116.904C494.364 121.476 496.613 125.676 499.916 128.973C503.219 132.27 507.427 134.515 512.008 135.424C516.589 136.334 521.338 135.867 525.653 134.083C529.969 132.299 533.657 129.277 536.253 125.401C538.848 121.525 540.233 116.967 540.233 112.305C540.224 106.057 537.733 100.066 533.306 95.6473C528.879 91.2286 522.877 88.7425 516.616 88.7339Z" fill="white"/>
<path d="M520.293 112.305C520.293 113.039 520.075 113.756 519.666 114.366C519.257 114.976 518.675 115.45 517.995 115.73C517.316 116.009 516.568 116.08 515.847 115.935C515.127 115.789 514.466 115.433 513.948 114.912C513.431 114.391 513.08 113.728 512.94 113.008C512.801 112.287 512.879 111.542 513.165 110.866C513.45 110.19 513.931 109.614 514.545 109.211C515.16 108.808 515.88 108.596 516.615 108.602C517.101 108.602 517.582 108.698 518.03 108.885C518.479 109.071 518.886 109.344 519.228 109.689C519.57 110.033 519.84 110.442 520.023 110.891C520.206 111.34 520.298 111.821 520.293 112.305Z" fill="white"/>
<path d="M506.323 68.9297C506.329 69.5821 506.141 70.2215 505.782 70.7666C505.423 71.3116 504.909 71.7376 504.306 71.9902C503.704 72.2427 503.04 72.3105 502.398 72.1848C501.757 72.0591 501.167 71.7456 500.705 71.2843C500.243 70.823 499.929 70.2348 499.803 69.5947C499.677 68.9546 499.745 68.2915 499.998 67.6901C500.251 67.0886 500.678 66.576 501.224 66.2175C501.77 65.8591 502.411 65.671 503.064 65.6774C503.926 65.6858 504.75 66.0311 505.359 66.6393C505.969 67.2474 506.315 68.0698 506.323 68.9297Z" fill="white"/>
<path d="M490.385 77.0443C490.385 77.694 490.192 78.329 489.83 78.8691C489.469 79.4093 488.955 79.8303 488.353 80.0789C487.752 80.3275 487.09 80.3925 486.452 80.2658C485.814 80.139 485.227 79.8262 484.767 79.3669C484.307 78.9075 483.993 78.3223 483.866 77.6851C483.739 77.048 483.805 76.3876 484.054 75.7874C484.303 75.1872 484.725 74.6742 485.266 74.3133C485.807 73.9524 486.443 73.7598 487.094 73.7598C487.967 73.7598 488.804 74.1058 489.421 74.7218C490.038 75.3378 490.385 76.1732 490.385 77.0443Z" fill="white"/>
<path d="M527.004 66.3858C527.004 67.0354 526.811 67.6704 526.45 68.2106C526.088 68.7507 525.574 69.1717 524.973 69.4203C524.372 69.6689 523.71 69.734 523.071 69.6072C522.433 69.4805 521.847 69.1677 521.386 68.7083C520.926 68.249 520.613 67.6637 520.486 67.0266C520.359 66.3894 520.424 65.729 520.673 65.1288C520.922 64.5287 521.344 64.0157 521.885 63.6548C522.426 63.2939 523.063 63.1012 523.714 63.1012C524.147 63.0969 524.577 63.1789 524.978 63.3425C525.379 63.506 525.744 63.7478 526.05 64.0537C526.357 64.3595 526.599 64.7233 526.763 65.1238C526.927 65.5242 527.009 65.9533 527.004 66.3858Z" fill="white"/>
<path d="M562.527 120.162L516.293 113.432L515.519 112.498L515.293 112.692L486.643 77.431L487.578 76.6582L516.906 112.305L562.721 118.971L562.527 120.162Z" fill="white"/>
<path d="M492.482 261.173L469.64 217.024L493.128 180.604L515.971 224.753L492.482 261.173Z" stroke="#E8E8E8" stroke-width="2.98508" stroke-linejoin="round"/>
<path d="M492.482 261.173L542.2 263.685L565.721 227.265L515.97 224.753L492.482 261.173Z" stroke="#E8E8E8" stroke-width="2.98508" stroke-linejoin="round"/>
<path d="M493.127 180.604L542.975 182.923L565.721 227.264L515.97 224.753L493.127 180.604Z" stroke="#E8E8E8" stroke-width="2.98508" stroke-linejoin="round"/>
<path d="M246.986 84.7085L233.597 71.6347V11.0636L246.986 1.20996" stroke="#E8E8E8" stroke-width="2.75001" stroke-linejoin="round"/>
<path d="M367.041 84.7085L380.43 71.6347V11.0636L367.041 1.20996" stroke="#E8E8E8" stroke-width="2.75001" stroke-linejoin="round"/>
<path d="M282.025 28.3561L281.928 14.5738L269.926 7.7793L258.021 14.7348L258.117 28.5171L270.119 35.3438L282.025 28.3561ZM258.601 15.089L269.926 8.45553L281.347 14.928L281.444 28.034L270.119 34.6676L258.698 28.1951L258.601 15.089Z" fill="white"/>
<path d="M307.288 28.1627L307.191 14.4127L295.189 7.58594L283.283 14.5737L283.38 28.3559L295.382 35.1504L307.288 28.1627ZM283.864 14.8957L295.189 8.26217L306.61 14.7347L306.707 27.8407L295.382 34.4742L283.961 28.0017L283.864 14.8957Z" fill="white"/>
<path d="M332.744 28.0016L332.647 14.2193L320.645 7.4248L308.74 14.3803L308.837 28.1626L320.839 34.9571L332.744 28.0016ZM309.321 14.7345L320.645 8.06884L332.067 14.5735L332.163 27.6474L320.839 34.2809L309.417 27.8084L309.321 14.7345Z" fill="white"/>
<path d="M358.006 27.6475L357.909 14.2194L346.198 7.55371L334.583 14.3804L334.679 27.8085L346.391 34.442L358.006 27.6475Z" fill="white"/>
<path d="M258.602 58.7862L258.699 72.2143L270.41 78.8478L282.025 72.0532L281.929 58.6252L270.217 51.9917L258.602 58.7862Z" fill="white"/>
<path d="M283.573 58.4321L283.67 72.2143L295.705 79.0089L307.61 72.0533L307.481 58.2711L295.479 51.4766L283.573 58.4321ZM306.997 71.6991L295.672 78.3648L284.251 71.8601L284.187 58.7863L295.511 52.1528L306.932 58.6253L306.997 71.6991Z" fill="white"/>
<path d="M309.352 58.4322L309.449 71.8602L321.161 78.4938L332.776 71.6992L332.679 58.2712L320.967 51.6377L309.352 58.4322Z" fill="white"/>
<path d="M334.906 58.2389L335.003 71.6991L346.715 78.3326L358.329 71.5059L358.233 58.0779L346.521 51.4443L334.906 58.2389Z" fill="white"/>
<path d="M269.152 36.7605L257.441 30.127L245.826 36.9537L245.922 50.3817L257.634 57.0152L269.249 50.2207L269.152 36.7605Z" fill="white"/>
<path d="M294.641 36.4385L282.606 29.6118L270.701 36.5995L270.798 50.3818L282.8 57.1763L294.705 50.1886L294.641 36.4385ZM294.124 49.8666L282.8 56.5001L271.378 50.0276L271.314 36.9216L282.606 30.2881L294.028 36.7606L294.124 49.8666Z" fill="white"/>
<path d="M320.258 36.406L308.546 29.7725L296.931 36.567L297.028 50.0272L308.74 56.6607L320.355 49.8662L320.258 36.406Z" fill="white"/>
<path d="M345.456 36.0518L333.454 29.2573L321.516 36.2451L321.645 49.9951L333.647 56.8218L345.553 49.8341L345.456 36.0518ZM344.94 49.5121L333.647 56.1456L322.226 49.6731L322.129 36.5671L333.454 29.9336L344.843 36.4061L344.94 49.5121Z" fill="white"/>
<path d="M359.007 29.0645L347.102 36.0522L347.198 49.8344L359.201 56.629L371.106 49.6734L371.009 35.8912L359.007 29.0645ZM370.525 49.3192L359.201 55.9527L347.779 49.4802L347.682 36.3742L359.007 29.7407L370.428 36.2132L370.525 49.3192Z" fill="white"/>
<path d="M153.357 108.441C153.102 115.77 150.706 122.864 146.464 128.851C142.222 134.838 136.319 139.457 129.481 142.139C122.643 144.822 115.169 145.45 107.977 143.949C100.786 142.447 94.1916 138.879 89.005 133.686C83.8185 128.492 80.2662 121.898 78.7853 114.716C77.3043 107.534 77.9592 100.076 80.6695 93.2602C83.3797 86.4445 88.0271 80.5681 94.0398 76.3541C100.052 72.1401 107.168 69.7722 114.512 69.5418V56.6934C87.1519 57.3052 65.1157 79.6852 65.1157 107.153C65.1157 134.621 87.7972 157.613 115.673 157.613C143.549 157.613 165.553 135.684 166.231 108.441H153.357Z" fill="white"/>
<path d="M116.125 80.6836V87.4137C121.228 87.6196 126.053 89.7876 129.591 93.4639C133.128 97.1403 135.104 102.04 135.104 107.137C135.104 112.234 133.128 117.134 129.591 120.81C126.053 124.487 121.228 126.655 116.125 126.861V133.591C122.994 133.351 129.502 130.46 134.277 125.525C139.052 120.59 141.721 113.997 141.721 107.137C141.721 100.277 139.052 93.6844 134.277 88.7495C129.502 83.8147 122.994 80.9228 116.125 80.6836Z" fill="white"/>
<path d="M565.916 119.551C565.922 120.202 565.734 120.84 565.377 121.384C565.019 121.929 564.507 122.355 563.907 122.608C563.306 122.862 562.643 122.931 562.003 122.808C561.362 122.685 560.773 122.375 560.309 121.917C559.846 121.459 559.529 120.874 559.399 120.236C559.27 119.598 559.333 118.936 559.581 118.334C559.829 117.731 560.251 117.217 560.793 116.854C561.335 116.492 561.972 116.298 562.625 116.298C563.492 116.298 564.324 116.64 564.94 117.249C565.557 117.858 565.907 118.685 565.916 119.551Z" fill="white"/>
<g opacity="0.8">
<path opacity="0.2" d="M457.766 349.631L278.605 246.618V84.9663L457.766 187.979V349.631Z" fill="#2BA84A"/>
<g style="mix-blend-mode:multiply" opacity="0.5">
<path d="M328.453 201.214L288.317 177.707V99.3281L328.453 122.835V201.214Z" fill="#2BA84A"/>
</g>
<g style="mix-blend-mode:multiply" opacity="0.5">
<path d="M437.924 267.227L397.755 243.72V165.309L437.924 188.816V267.227Z" fill="#2BA84A"/>
</g>
<g style="mix-blend-mode:multiply" opacity="0.5">
<path d="M343.166 156.808V235.219L383.302 258.694V180.315L343.166 156.808ZM378.527 246.618L347.908 228.682V168.916L378.527 186.82V246.618Z" fill="#2BA84A"/>
</g>
<g style="mix-blend-mode:multiply" opacity="0.8">
<path d="M399.013 253.155V296.176L439.15 318.781V275.792L399.013 253.155ZM434.375 312.148L403.788 292.602V259.788L434.375 279.367V312.148Z" fill="#2BA84A"/>
</g>
<g style="mix-blend-mode:multiply" opacity="0.5">
<path d="M328.453 263.395L288.317 239.888V183.052L328.453 206.559V263.395Z" fill="#2BA84A"/>
</g>
</g>
<path d="M221.369 214.159V220.567L226.08 223.336V214.159H221.369Z" fill="#161642"/>
<path d="M226.079 214.159V223.336L228.338 222.048V214.159H226.079Z" fill="#3A4481"/>
<path d="M223.144 229.197C224.692 222.499 225.789 217.089 225.789 217.089H221.853L216.465 229.197H223.144Z" fill="#F9AC85"/>
<path d="M225.596 218.731C225.596 218.731 228.725 217.347 229.209 214.996C229.693 212.645 229.435 211.003 229.209 209.393C228.983 207.783 225.144 208.717 224.595 208.717C224.047 208.717 221.53 207.203 220.272 209.393C219.014 211.583 218.691 216.896 221.111 218.731H225.596Z" fill="#F9AC85"/>
<path d="M226.08 210.166V204.852L221.369 202.083V210.166H226.08Z" fill="#161642"/>
<path d="M226.08 204.853L221.369 202.083L228.274 198.123L232.952 200.763L226.08 204.853Z" fill="#293060"/>
<path d="M226.079 206.817V204.852L232.952 200.763V202.824L226.079 206.817Z" fill="#3A4481"/>
<path d="M228.338 210.166V204.144L226.079 205.432V210.166H228.338Z" fill="#3A4481"/>
<path d="M257.762 218.281V224.689L262.473 227.458V218.281H257.762Z" fill="#161642"/>
<path d="M262.473 218.281V227.458L264.732 226.17V218.281H262.473Z" fill="#3A4481"/>
<path d="M262.182 221.211C262.182 221.211 255.6 254.217 251.696 257.824L246.599 247.391L258.214 221.211H262.182Z" fill="#F9AC85"/>
<path d="M251.826 251.094C249.148 248.904 229.661 232.417 229.661 232.417L220.046 239.083C220.046 239.083 241.953 256.246 245.405 258.114C245.405 258.114 249.696 260.078 251.729 257.888C253.762 255.699 253.729 252.672 251.826 251.094Z" fill="#F9AC85"/>
<path d="M192.106 360.128C192.106 360.128 187.847 367.438 188.395 375.681C188.395 375.681 196.429 380.318 200.494 376.422C200.494 376.422 214.529 375.359 215.594 373.266C215.594 373.266 215.303 370.175 213.206 368.726C211.109 367.277 200.333 366.761 199.042 365.602L192.106 360.128Z" fill="#010026"/>
<path d="M212.109 373.942C212.109 373.942 207.754 382.637 209.496 388.723C209.496 388.723 212.432 393.489 219.24 390.108C221.199 389.347 223.324 389.114 225.402 389.431C229.887 390.14 234.404 388.304 235.049 386.887C235.049 386.887 236.63 383.635 234.081 382.83C227.919 380.898 220.498 380.35 219.175 379.256L212.109 373.942Z" fill="#010026"/>
<path d="M183.104 285.71C183.104 285.71 183.233 288.061 200.268 315.883C200.268 315.883 197.106 323.225 195.88 329.987C194.912 335.429 189.782 363.155 189.782 363.155C189.782 363.155 192.202 369.273 201.268 366.343C201.268 366.343 210.173 336.621 212.045 330.953C213.916 325.286 215.561 322.001 213.496 306.963C211.819 294.598 205.237 274.858 205.237 274.858L183.104 285.71Z" fill="#0F8CAD"/>
<path d="M192.816 282.297C192.816 282.297 184.717 286.58 215.594 322.549C215.594 322.549 219.82 329.021 218.756 331.34C217.3 334.583 216.238 337.988 215.594 341.483C215.142 343.834 210.238 369.273 210.206 375.874C210.206 375.874 212.142 384.408 221.692 380.028C221.692 380.028 231.532 344.156 233.984 331.791C235.662 323.45 219.756 289.51 218.627 283.553L192.816 282.297Z" fill="#009FD1"/>
<path d="M209.334 217.025C209.334 217.025 215.141 218.442 217.787 218.86C217.787 218.86 225.466 239.92 220.465 257.309C219.787 259.595 220.659 275.728 222.175 291.185C222.175 291.185 210.979 294.598 194.202 291.668C188.685 290.734 182.749 287.256 182.103 286.097C182.103 286.097 181.361 276.469 184.62 261.076C184.62 261.076 186.652 252.253 184.394 243.752C179.748 226.299 182.62 217.347 185.426 213.547C185.426 213.547 187.201 211.003 192.944 212.613L209.334 217.025Z" fill="#EF4443"/>
<path d="M212.819 185.049C212.819 185.049 214.335 187.464 214.529 192.648C214.529 192.648 214.787 199.926 214.722 201.439C214.658 202.953 213.561 209.296 213.142 209.908C212.722 210.52 211.496 210.842 211.496 210.842C210.266 211.009 209.021 211.03 207.786 210.907C207.749 213.166 207.868 215.425 208.141 217.669C208.592 221.34 195.945 219.665 193.945 216.188C193.945 216.188 195.074 207.944 194.203 206.849C194.203 206.849 190.331 199.121 189.75 194.967C189.331 192.197 189.686 183.342 197.881 180.701C202.333 179.252 206.205 180.637 212.819 185.049Z" fill="#F9AC85"/>
<path d="M194.202 206.849C194.202 206.84 194.199 206.832 194.193 206.826C194.187 206.82 194.179 206.817 194.17 206.817C194.17 206.785 194.17 206.785 194.138 206.752C194.106 206.72 194.138 206.72 194.106 206.688C194.097 206.64 194.074 206.595 194.041 206.559C194.041 206.527 194.009 206.495 194.009 206.463C194.009 206.43 193.976 206.366 193.944 206.302L193.88 206.205L193.783 206.012C193.783 205.98 193.751 205.947 193.751 205.915C193.751 205.883 193.654 205.69 193.589 205.593C193.525 205.497 193.557 205.561 193.557 205.529C193.557 205.497 193.46 205.303 193.396 205.207C193.331 205.11 193.363 205.11 193.363 205.078L193.17 204.724C193.17 204.692 193.17 204.659 193.138 204.659L192.912 204.144L192.686 203.629C192.667 203.612 192.656 203.589 192.654 203.564C192.396 203.017 192.137 202.405 191.879 201.793L191.105 199.829C193.976 196.963 197.913 193.968 199.429 193.84C202.042 193.614 201.978 201.665 202.688 203.468C204.333 207.718 209.947 208.846 211.399 209.522C212.076 209.844 212.851 209.49 213.464 209.071C213.396 209.384 213.287 209.687 213.141 209.973C212.657 210.745 211.496 210.906 211.496 210.906C210.266 211.073 209.02 211.094 207.785 210.971C207.749 213.23 207.868 215.49 208.14 217.733C208.592 221.404 195.945 219.73 193.944 216.252C193.944 216.187 195.073 207.944 194.202 206.849Z" fill="#E39068"/>
<path d="M189.815 186.498C190.477 185.12 191.418 183.893 192.579 182.896C193.739 181.898 195.094 181.151 196.558 180.701C201.01 179.252 204.882 180.637 211.496 185.049C211.496 185.049 213.787 186.111 214.239 189.686C210.922 190.381 207.484 190.237 204.237 189.267C197.816 187.335 192.815 186.594 189.815 186.498Z" fill="#E39068"/>
<path d="M204.689 200.119L203.011 197.704C202.462 196.931 200.978 194.838 200.526 195.546C200.075 196.255 200.333 198.831 201.43 200.924C202.527 203.017 201.333 207.268 200.752 208.073C200.172 208.878 195.784 208.524 194.493 208.105C194.493 208.105 191.912 202.212 190.428 199.958C187.46 195.321 187.847 187.11 190.008 184.533C190.008 184.533 191.654 180.218 196.364 179.22C199.204 178.608 203.785 179.51 208.947 181.313C211.625 182.215 214.432 184.63 214.723 186.466C214.723 186.466 215.271 188.752 213.722 189.203C212.174 189.653 208.044 188.365 206.947 188.72C206.947 188.72 207.463 191.811 206.399 193.163C206.399 193.163 205.14 194.194 205.14 197.8C205.14 197.8 205.85 199.475 204.689 200.119Z" fill="#140A0C"/>
<path d="M231.177 249.742C227.66 247.391 216.659 239.34 212.658 237.119C205.495 233.158 202.656 215.833 216.433 218.667C216.433 218.667 219.853 218.184 228.144 227.233C231.952 231.387 234.016 231.902 240.889 239.695C239.856 242.561 237.791 248.518 231.177 249.742Z" fill="#EF4443"/>
<path d="M214.819 192.648C214.819 192.648 209.076 193.034 208.237 193.807C207.398 194.58 208.044 200.634 208.754 201.085C209.463 201.536 214.464 201.439 215.303 201.085C215.949 198.284 215.782 195.357 214.819 192.648Z" fill="#A1A4C5"/>
<path d="M215.303 201.085C215.857 198.697 215.824 196.211 215.206 193.839C213.56 193.968 210.108 194.355 209.495 194.934C208.882 195.514 209.076 199.442 209.56 201.278C211.205 201.471 214.625 201.374 215.303 201.085Z" fill="#7C80B2"/>
<path d="M208.464 195.772V198.766C208.464 198.766 192.654 200.409 188.621 196.383C188.621 196.383 188.138 195.578 187.879 192.648L188.299 192.036C188.299 192.036 186.847 197.027 208.464 195.772Z" fill="#0F0E33"/>
<path d="M203.979 199.088C203.979 199.088 202.237 195.836 201.204 195.578C200.172 195.321 199.301 198.67 202.333 201.793L203.979 199.088Z" fill="#F9AC85"/>
<path d="M261.989 222.853C261.989 222.853 265.119 221.468 265.603 219.085C266.087 216.702 265.829 215.124 265.603 213.514C265.377 211.904 261.538 212.838 260.989 212.838C260.441 212.838 257.924 211.325 256.666 213.514C255.408 215.704 255.085 221.017 257.505 222.853H261.989Z" fill="#F9AC85"/>
<path d="M262.473 214.288V208.974L257.762 206.205V214.288H262.473Z" fill="#161642"/>
<path d="M262.473 208.974L257.762 206.205L264.667 202.244L269.345 204.885L262.473 208.974Z" fill="#293060"/>
<path d="M262.473 210.939V208.974L269.345 204.885V206.946L262.473 210.939Z" fill="#3A4481"/>
<path d="M264.732 214.287V208.266L262.473 209.554V214.287H264.732Z" fill="#3A4481"/>
<path d="M244.664 397.9C244.664 397.9 241.824 401.088 244.631 406.788C244.631 406.788 246.245 408.559 249.374 406.659C249.374 406.659 251.504 405.468 254.472 406.659C258.698 408.366 263.99 405.178 264.345 403.664C264.345 403.664 265.409 401.636 262.764 401.314C258.535 400.829 254.468 399.41 250.858 397.16L244.664 397.9Z" fill="#010026"/>
<path d="M244.341 358.969H257.279C254.052 372.848 250.374 398.416 250.374 398.416C247.213 400.863 244.631 398.416 244.631 398.416C245.019 392.233 244.47 364.958 244.341 358.969Z" fill="#F9AC85"/>
<path d="M244.341 406.209L245.728 408.881C245.728 408.881 247.148 409.654 249.181 408.881L250.891 404.566L244.341 406.209Z" fill="#010026"/>
<path d="M262.796 404.116C262.796 404.116 259.924 407.336 262.764 413.035C262.764 413.035 264.377 414.807 267.506 412.907C267.506 412.907 269.604 411.683 272.604 412.907C276.798 414.613 282.09 411.425 282.477 409.912C282.477 409.912 283.509 407.883 280.864 407.561C274.411 406.788 270.475 404.244 268.958 403.407L262.796 404.116Z" fill="#010026"/>
<path d="M276.056 362.543L275.96 362.865C272.604 375.971 268.829 404.373 268.829 404.373C264.796 407.754 262.764 404.663 262.764 404.663C263.151 397.965 262.506 366.633 262.441 364.218C262.441 363.735 262.473 363.155 262.506 362.543H276.056Z" fill="#F9AC85"/>
<path d="M279.185 291.925C279.185 291.925 284.348 348.407 282.057 366.729C282.057 366.729 260.505 381.639 240.437 366.729C240.437 366.729 241.469 301.715 244.631 293.407L279.185 291.925Z" fill="#BA519A"/>
<path d="M262.441 412.456L263.861 415.128C263.861 415.128 265.248 415.901 267.313 415.128L269.023 410.813L262.441 412.456Z" fill="#010026"/>
<path d="M281.896 226.75V233.19L286.607 235.959V226.75H281.896Z" fill="#161642"/>
<path d="M286.606 226.75V235.959L288.897 234.671V226.75H286.606Z" fill="#3A4481"/>
<path d="M283.703 241.852C285.252 235.122 286.316 229.68 286.316 229.68H282.38L276.992 241.852H283.703Z" fill="#F9AC85"/>
<path d="M286.154 231.354C286.154 231.354 289.284 229.97 289.768 227.587C290.252 225.204 289.993 223.594 289.768 221.984C289.542 220.374 285.702 221.275 285.154 221.275C284.605 221.275 282.057 219.794 280.798 221.984C279.54 224.174 279.217 229.487 281.637 231.354H286.154Z" fill="#F9AC85"/>
<path d="M286.607 222.756V217.411L281.896 214.642V222.756H286.607Z" fill="#161642"/>
<path d="M286.607 217.411L281.896 214.642L288.833 210.649L293.543 213.322L286.607 217.411Z" fill="#293060"/>
<path d="M286.606 219.375V217.411L293.543 213.321V215.382L286.606 219.375Z" fill="#3A4481"/>
<path d="M288.897 222.757V216.703L286.606 217.991V222.757H288.897Z" fill="#3A4481"/>
<path d="M318.709 230.743V237.183L323.419 239.952V230.743H318.709Z" fill="#161642"/>
<path d="M323.42 230.743V239.952L325.71 238.664V230.743H323.42Z" fill="#3A4481"/>
<path d="M323.129 233.673C323.129 233.673 316.548 266.808 312.611 270.447L307.514 259.981L319.193 233.673H323.129Z" fill="#F9AC85"/>
<path d="M312.449 263.846C309.772 261.624 290.252 245.104 290.252 245.104L280.605 251.77C280.605 251.77 302.544 268.998 306.029 270.866C306.029 270.866 310.32 272.83 312.353 270.64C314.385 268.451 314.385 265.424 312.449 263.846Z" fill="#F9AC85"/>
<path d="M269.829 229.616C269.829 229.616 275.636 231.032 278.314 231.483C278.314 231.483 285.283 245.104 285.283 250.547C285.283 252.189 283.476 259.016 279.056 262.461C277.152 263.942 280.056 275.76 280.605 299.042C280.605 299.042 271.635 305.289 254.761 302.359C249.244 301.393 243.275 297.915 242.63 296.756C242.63 296.756 243.017 290.026 246.276 274.601C246.276 274.601 247.76 268.483 244.792 256.472C240.436 238.857 243.017 229.97 245.856 226.138C245.856 226.138 247.631 223.594 253.374 225.204L269.829 229.616Z" fill="#7D3B8A"/>
<path d="M273.346 197.543C273.346 197.543 274.83 199.958 275.056 205.174C275.056 205.174 275.282 212.484 275.217 213.998C275.153 215.511 274.056 221.887 273.669 222.499C273.282 223.111 271.991 223.433 271.991 223.433C270.761 223.599 269.516 223.621 268.281 223.497C268.244 225.767 268.363 228.037 268.636 230.292C269.087 233.963 256.375 232.288 254.375 228.81C254.375 228.81 255.536 220.534 254.633 219.407C254.633 219.407 250.761 211.647 250.148 207.525C249.761 204.724 250.116 195.836 258.343 193.195C262.796 191.746 266.7 193.099 273.346 197.543Z" fill="#F9AC85"/>
<path d="M254.633 219.408C254.601 219.408 254.601 219.375 254.601 219.343C254.592 219.343 254.584 219.34 254.578 219.334C254.572 219.328 254.569 219.32 254.569 219.311L254.472 219.15C254.472 219.118 254.472 219.118 254.44 219.086C254.407 219.053 254.407 218.957 254.375 218.925L254.31 218.828L254.214 218.603C254.214 218.57 254.181 218.538 254.181 218.506L254.02 218.184C254.02 218.152 253.988 218.152 253.988 218.12C253.941 218.009 253.887 217.902 253.826 217.798C253.826 217.765 253.794 217.733 253.794 217.701C253.727 217.578 253.673 217.449 253.633 217.315C253.601 217.315 253.601 217.282 253.568 217.25L253.375 216.767H253.343C253.281 216.6 253.205 216.439 253.117 216.284C253.118 216.267 253.116 216.249 253.111 216.232C253.105 216.216 253.096 216.201 253.084 216.187C252.826 215.64 252.6 215.028 252.342 214.416H252.31L251.536 212.452C254.44 209.554 258.376 206.559 259.892 206.43C262.505 206.205 262.441 214.288 263.151 216.123C264.828 220.341 270.442 221.501 271.894 222.145C272.604 222.467 273.346 222.145 273.959 221.726C273.881 222.032 273.785 222.334 273.669 222.628C273.153 223.401 271.991 223.562 271.991 223.562C270.761 223.728 269.516 223.75 268.281 223.626C268.245 225.896 268.363 228.166 268.636 230.421C269.087 234.092 256.375 232.417 254.375 228.939C254.375 228.81 255.536 220.535 254.633 219.408Z" fill="#E39068"/>
<path d="M250.245 198.992C250.909 197.609 251.855 196.38 253.021 195.382C254.188 194.384 255.55 193.639 257.021 193.195C261.473 191.746 265.345 193.099 271.991 197.543C271.991 197.543 274.282 198.605 274.766 202.18C271.432 202.907 267.967 202.774 264.699 201.793C258.279 199.861 253.246 199.088 250.245 198.992Z" fill="#E39068"/>
<path d="M265.183 212.645C265.183 212.645 264.054 211.035 263.473 210.262C262.892 209.489 261.924 208.491 261.44 209.232C260.956 209.972 260.763 211.357 261.892 213.482C263.021 215.608 261.795 219.858 261.214 220.663C260.634 221.468 256.246 221.114 254.955 220.663C254.955 220.663 252.342 214.77 250.858 212.484C247.857 207.847 248.244 199.603 250.438 197.027C250.438 197.027 252.084 192.712 256.827 191.682C259.666 191.07 264.247 192.004 269.442 193.807C272.12 194.709 274.927 197.124 275.249 198.959C275.249 198.959 276.217 201.053 274.636 201.503C273.055 201.954 270.055 200.924 268.958 201.246C268.958 201.246 267.958 204.305 266.893 205.69C266.893 205.69 265.602 206.72 265.602 210.327C265.602 210.327 266.344 212.001 265.183 212.645Z" fill="#140A0C"/>
<path d="M287.026 258.371C283.477 256.053 277.347 251.834 273.959 248.743C267.571 242.915 263.118 228.456 276.96 231.29C276.96 231.29 280.412 230.775 288.736 239.888C292.511 244.042 292.995 245.748 295.253 248.292C295.253 250.289 293.672 257.148 287.026 258.371Z" fill="#7D3B8A"/>
<path d="M275.346 205.174C275.346 205.174 269.57 205.561 268.732 206.334C267.893 207.106 268.538 213.192 269.248 213.643C269.958 214.094 274.959 213.998 275.797 213.643C276.444 210.834 276.288 207.899 275.346 205.174Z" fill="#A1A4C5"/>
<path d="M275.798 213.643C276.353 211.245 276.319 208.748 275.701 206.366C274.055 206.527 270.603 206.881 269.958 207.461C269.313 208.04 269.571 212.001 270.055 213.836C271.732 214.03 275.12 213.933 275.798 213.643Z" fill="#7C80B2"/>
<path d="M268.926 208.298C268.926 208.298 268.958 209.522 268.926 211.293C268.926 211.293 253.117 212.967 249.019 208.91C249.019 208.91 248.535 208.137 248.309 205.174L248.697 204.562C248.697 204.562 247.277 209.554 268.926 208.298Z" fill="#0F0E33"/>
<path d="M264.474 211.647C264.474 211.647 262.699 208.362 261.667 208.105C260.634 207.847 259.763 211.228 262.828 214.352L264.474 211.647Z" fill="#F9AC85"/>
<path d="M322.967 235.347C322.967 235.347 326.097 233.962 326.581 231.58C327.065 229.197 326.807 227.587 326.581 225.976C326.355 224.366 322.516 225.268 321.967 225.268C321.419 225.268 318.87 223.787 317.612 225.976C316.353 228.166 316.031 233.479 318.45 235.347H322.967Z" fill="#F9AC85"/>
<path d="M323.419 226.717V221.404L318.709 218.635V226.717H323.419Z" fill="#161642"/>
<path d="M323.419 221.404L318.709 218.635L325.645 214.642L330.356 217.314L323.419 221.404Z" fill="#293060"/>
<path d="M323.42 223.368V221.404L330.356 217.314V219.375L323.42 223.368Z" fill="#3A4481"/>
<path d="M325.71 226.717V220.696L323.42 221.984V226.717H325.71Z" fill="#3A4481"/>
<path d="M255.827 193.807C255.827 193.807 251.826 189.041 244.921 193.807C238.017 198.573 240.469 210.23 241.211 214.931C241.953 219.633 243.599 240.596 239.566 242.399C239.566 242.399 252.02 244.525 252.149 232.835C252.31 214.287 249.084 195.9 255.181 196.737C255.181 196.737 256.343 194.902 255.827 193.807Z" fill="#140A0C"/>
<path d="M255.343 193.357C255.343 193.357 255.278 194.709 254.343 196.802C254.343 196.802 254.246 197.704 255.343 197.382C256.44 197.06 257.504 192.616 255.343 193.357Z" fill="white"/>
<path d="M336.454 248.55C336.454 248.55 361.781 235.766 365.169 233.898C365.169 233.898 373.203 222.724 378.3 212.967C378.3 212.967 382.108 210.069 382.527 214.481C382.946 218.892 373.009 240.725 369.621 243.462C366.234 246.199 339.164 261.237 339.164 261.237L336.454 248.55Z" fill="#F9AC85"/>
<path d="M295.092 413.873C295.092 413.873 291.898 422.696 294.092 431.616C294.092 431.616 303.803 435.126 307.513 430.07C307.513 430.07 322.613 426.141 323.387 423.63C323.387 423.63 322.452 420.345 319.871 419.154C317.289 417.962 305.384 419.508 303.771 418.542L295.092 413.873Z" fill="#010026"/>
<path d="M317.095 429.04C317.095 429.04 314.095 439.376 317.224 445.688C317.224 445.688 321.354 450.293 328.129 445.237C330.13 444.029 332.407 443.353 334.743 443.273C339.777 443.144 344.358 440.213 344.778 438.539C344.778 438.539 345.842 434.675 342.906 434.321C335.744 433.451 327.549 434.353 325.871 433.419L317.095 429.04Z" fill="#010026"/>
<path d="M297.479 312.792C297.479 312.792 298.737 348.503 297.189 359.194C297.189 359.194 293.317 372.526 293.317 380.157C293.317 386.34 293.156 417.672 293.156 417.672C293.156 417.672 296.931 425.787 306.223 420.796C306.223 420.796 308.255 384.601 309.159 378.064C310.062 371.527 317.547 354.042 317.644 340.195C317.741 326.349 314.514 303.872 314.514 303.872L297.479 312.792Z" fill="#0F8CAD"/>
<path d="M310.578 308.542C310.578 308.542 307.642 336.235 315.999 362.64C315.999 362.64 318.515 369.37 317.192 374.587C315.869 379.803 313.643 386.823 313.321 389.496C312.998 392.169 314.095 424.274 315.386 431.519C315.386 431.519 319.225 440.439 328.775 433.709C328.775 433.709 327.775 399.511 332.937 386.469C337.648 374.619 338.551 322.742 337.325 316.109L310.578 308.542Z" fill="#009FD1"/>
<path d="M325.162 243.398C325.162 243.398 334.841 243.881 337.81 244.364C337.81 244.364 343.101 268.869 337.551 288.19C336.809 290.734 337.777 308.638 339.455 325.833C339.455 325.833 327.033 329.633 308.353 326.413C302.223 325.318 295.608 321.486 294.931 320.198C294.931 320.198 294.092 309.475 297.706 292.376C297.706 292.376 299.964 282.555 297.447 273.12C292.317 253.702 295.512 243.784 298.609 239.533C298.609 239.533 300.577 236.732 306.933 238.503L325.162 243.398Z" fill="#EF4443"/>
<path d="M329.065 207.879C329.065 207.879 330.743 210.552 330.969 216.316C330.969 216.316 331.227 224.399 331.163 226.073C331.098 227.748 329.872 234.832 329.42 235.508C328.969 236.184 327.581 236.539 327.581 236.539C326.212 236.726 324.826 236.747 323.451 236.603C323.419 239.121 323.559 241.639 323.871 244.138C324.387 248.195 310.288 246.36 308.062 242.496C308.062 242.496 309.352 233.318 308.384 232.095C308.384 232.095 304.061 223.497 303.383 218.892C302.964 215.833 303.351 205.979 312.482 203.017C317.418 201.439 321.709 202.952 329.065 207.879Z" fill="#F9AC85"/>
<path d="M308.385 232.095H308.352C308.32 232.063 308.32 232.03 308.288 232.03V231.966L308.191 231.805C308.191 231.773 308.159 231.741 308.159 231.708L308.062 231.515L307.997 231.419L307.901 231.193C307.901 231.161 307.868 231.129 307.868 231.097L307.675 230.71H307.643L307.481 230.324C307.448 230.288 307.426 230.243 307.417 230.195L307.223 229.809C307.223 229.776 307.191 229.744 307.191 229.712C307.191 229.68 307.03 229.358 306.933 229.165C306.836 229.004 306.771 228.81 306.675 228.617C306.578 228.424 306.642 228.553 306.642 228.52L305.804 226.556H305.771C305.481 225.848 305.19 225.107 304.932 224.399C308.126 221.211 312.482 217.894 314.192 217.733C317.064 217.475 316.999 226.427 317.806 228.456C319.645 233.125 325.872 234.413 327.485 235.154C328.259 235.508 329.098 235.122 329.743 234.639C329.68 234.994 329.571 235.341 329.421 235.669C328.872 236.506 327.582 236.7 327.582 236.7C326.213 236.887 324.826 236.908 323.452 236.764C323.419 239.282 323.559 241.8 323.871 244.299C324.388 248.357 310.288 246.521 308.062 242.657C308.062 242.496 309.353 233.319 308.385 232.095Z" fill="#E39068"/>
<path d="M303.48 209.457C304.227 207.928 305.279 206.569 306.572 205.461C307.865 204.353 309.371 203.522 310.998 203.017C315.934 201.439 320.225 202.952 327.582 207.879C327.582 207.879 330.13 209.038 330.647 212.999C326.949 213.796 323.11 213.652 319.483 212.581C312.385 210.423 306.836 209.586 303.48 209.457Z" fill="#E39068"/>
<path d="M320.032 224.592L318.16 221.919C317.547 221.05 315.902 218.731 315.386 219.536C314.87 220.341 315.16 223.175 316.386 225.526C317.612 227.876 316.289 232.545 315.644 233.447C314.999 234.349 310.127 233.962 308.707 233.479C308.707 233.479 305.803 226.975 304.19 224.431C300.867 219.278 301.286 210.165 303.706 207.267C303.706 207.267 305.513 202.501 310.772 201.374C313.934 200.698 318.999 201.729 324.775 203.693C327.743 204.723 330.84 207.396 331.163 209.425C331.163 209.425 331.808 211.969 330.066 212.484C328.324 212.999 323.742 211.55 322.516 211.937C322.516 211.937 323.129 215.382 321.935 216.863C321.935 216.863 320.516 218.023 320.516 222.016C320.516 222.016 321.322 223.883 320.032 224.592Z" fill="#140A0C"/>
<path d="M360.297 251.513C356.522 254.314 343.939 262.751 340.099 266.1C333.227 272.089 314.03 268.515 322.193 255.216C322.193 255.216 323.935 249.484 334.937 245.459C340.809 243.333 344.294 241.208 355.038 236.958C359.006 237.924 362.2 242.818 360.297 251.513Z" fill="#EF4443"/>
<path d="M377.751 213.998C377.751 213.998 379.913 205.851 380.784 204.691C381.655 203.532 383.849 202.147 383.849 202.147C383.849 202.147 388.915 195.45 390.173 194.58C390.173 194.58 391.141 194.709 390.818 196.061C390.496 197.414 386.979 203.468 386.979 203.468C386.979 203.468 388.592 204.434 388.915 205.078L389.011 205.69C389.011 205.69 390.786 206.173 390.625 206.913V207.976C390.625 207.976 391.399 208.588 391.302 209.328C391.205 210.069 390.27 212.581 390.27 212.581C390.27 212.581 389.431 213.547 389.011 213.74L386.495 215.189L385.914 214.416C385.914 214.416 383.107 218.152 381.913 218.119L377.751 213.998Z" fill="#F9AC85"/>
<path d="M331.292 216.316C331.292 216.316 324.871 216.735 323.968 217.572C323.064 218.409 323.742 225.204 324.549 225.687C325.355 226.17 330.872 226.073 331.808 225.687C332.529 222.577 332.35 219.328 331.292 216.316Z" fill="#A1A4C5"/>
<path d="M331.808 225.687C332.421 223.034 332.387 220.273 331.711 217.636C329.872 217.797 326.033 218.184 325.355 218.828C324.678 219.472 324.904 223.851 325.452 225.912C327.291 226.137 331.066 226.009 331.808 225.687Z" fill="#7C80B2"/>
<path d="M324.193 219.761V223.11C324.193 223.11 306.642 224.946 302.157 220.47C302.157 220.47 301.609 219.568 301.35 216.316L301.802 215.64C301.802 215.64 300.189 221.178 324.193 219.761Z" fill="#0F0E33"/>
<path d="M319.258 223.465C319.258 223.465 317.289 219.858 316.16 219.569C315.031 219.279 314.031 223.014 317.418 226.46L319.258 223.465Z" fill="#F9AC85"/>
</svg>
