<svg width="104" height="104" viewBox="0 0 104 104" fill="none" xmlns="http://www.w3.org/2000/svg">
<path d="M42.1781 77.3222C43.0039 76.1548 44.1618 75.2627 45.5013 74.7619C46.8407 74.2612 48.2998 74.1748 49.689 74.5142C51.3833 74.9138 52.8708 75.9243 53.8665 77.3523C54.8622 78.7802 55.2963 80.5252 55.0856 82.2533C54.8749 83.9813 54.0343 85.5709 52.7246 86.7178C51.4149 87.8646 49.7283 88.4881 47.9876 88.4689C46.8491 88.4695 45.7272 88.1966 44.7162 87.6732C43.7052 87.1498 42.8348 86.3912 42.1781 85.4612V101.375H77.8917C79.0243 101.374 80.1099 100.923 80.9102 100.121C81.7104 99.3197 82.1599 98.2335 82.1599 97.1009V61.4081H66.1647C67.4125 60.5559 68.3546 59.3264 68.8528 57.8999C69.351 56.4733 69.3792 54.9247 68.9333 53.4809C68.4873 52.0372 67.5906 50.7742 66.3747 49.8772C65.1587 48.9801 63.6873 48.4961 62.1763 48.4961C60.6652 48.4961 59.1939 48.9801 57.9779 49.8772C56.7619 50.7742 55.8653 52.0372 55.4193 53.4809C54.9733 54.9247 55.0015 56.4733 55.4998 57.8999C55.998 59.3264 56.9401 60.5559 58.1879 61.4081H42.1719L42.1781 77.3222Z" fill="#62B5E5"/>
<path d="M75.427 61.4082V97.101C75.427 98.2346 74.9767 99.3218 74.1751 100.123C73.3734 100.925 72.2862 101.375 71.1526 101.375H77.8918C79.0244 101.374 80.11 100.923 80.9102 100.121C81.7105 99.3198 82.16 98.2335 82.16 97.101V61.4082H75.427Z" fill="#529FC0"/>
<path d="M26.2433 61.4082C27.4722 62.2729 28.3938 63.5065 28.8743 64.9302C29.3549 66.3539 29.3695 67.8937 28.916 69.3263C28.4626 70.7588 27.5646 72.0097 26.3523 72.8975C25.14 73.7854 23.6764 74.264 22.1738 74.264C20.6712 74.264 19.2076 73.7854 17.9953 72.8975C16.783 72.0097 15.885 70.7588 15.4315 69.3263C14.978 67.8937 14.9926 66.3539 15.4732 64.9302C15.9538 63.5065 16.8754 62.2729 18.1043 61.4082H2.19019V97.101C2.19019 98.2346 2.64052 99.3218 3.44213 100.123C4.24373 100.925 5.33094 101.375 6.46458 101.375H42.1782V85.3781C42.9018 86.447 43.9055 87.2963 45.0794 87.833C46.2534 88.3698 47.5523 88.5732 48.8342 88.4212C50.648 88.2361 52.3204 87.3577 53.5021 85.9692C54.6838 84.5807 55.2835 82.7894 55.1762 80.9693C55.0688 79.1492 54.2626 77.4408 52.9259 76.2009C51.5892 74.9609 49.8252 74.2851 48.0022 74.3146C46.853 74.3146 45.7212 74.5961 44.706 75.1345C43.6907 75.673 42.8228 76.452 42.1782 77.4034V61.4082H26.2433Z" fill="#00DFC0"/>
<path d="M77.8876 42.3741C76.6638 41.5139 75.7459 40.2863 75.267 38.8691C74.7881 37.452 74.7731 35.9192 75.2242 34.493C75.6753 33.0668 76.569 31.8214 77.7757 30.9375C78.9825 30.0535 80.4394 29.577 81.9352 29.577C83.4311 29.577 84.888 30.0535 86.0947 30.9375C87.3014 31.8214 88.1952 33.0668 88.6463 34.493C89.0974 35.9192 89.0824 37.452 88.6035 38.8691C88.1246 40.2863 87.2067 41.5139 85.9829 42.3741H101.81V7.07238C101.81 5.89571 101.342 4.76724 100.51 3.9352C99.6781 3.10317 98.5497 2.63574 97.373 2.63574H62.04V18.5332C61.32 17.4699 60.3212 16.6253 59.153 16.0918C57.9849 15.5584 56.6925 15.3567 55.4173 15.5089C53.6327 15.718 51.9956 16.6017 50.8415 17.979C49.6874 19.3562 49.1037 21.1227 49.2101 22.9164C49.3165 24.7102 50.1048 26.3953 51.4136 27.6265C52.7224 28.8577 54.4525 29.5417 56.2493 29.5385C57.3924 29.5387 58.5181 29.2587 59.528 28.7232C60.5378 28.1876 61.4011 27.4127 62.0421 26.4663V42.3741H77.8876Z" fill="#00DFC0"/>
<path d="M97.3732 2.625H90.634C91.2175 2.625 91.7953 2.7401 92.3343 2.96371C92.8732 3.18732 93.3628 3.51505 93.7749 3.92814C94.187 4.34122 94.5136 4.83154 94.736 5.37102C94.9583 5.9105 95.0721 6.48854 95.0707 7.07204V42.3738H101.81V7.07204C101.811 6.48854 101.698 5.9105 101.475 5.37102C101.253 4.83154 100.926 4.34122 100.514 3.92814C100.102 3.51505 99.6124 3.18732 99.0735 2.96371C98.5345 2.7401 97.9568 2.625 97.3732 2.625Z" fill="black" fill-opacity="0.2"/>
<path d="M42.1782 45.4936C41.3524 46.661 40.1945 47.553 38.855 48.0538C37.5156 48.5546 36.0565 48.6409 34.6673 48.3016C32.973 47.9019 31.4855 46.8914 30.4898 45.4635C29.4941 44.0356 29.06 42.2905 29.2707 40.5625C29.4814 38.8344 30.322 37.2448 31.6317 36.098C32.9414 34.9511 34.628 34.3276 36.3687 34.3468C37.5072 34.3462 38.6291 34.6191 39.6401 35.1426C40.6511 35.666 41.5215 36.4246 42.1782 37.3545V21.4404H6.46459C5.3313 21.4404 4.24441 21.8905 3.44286 22.6916C2.64132 23.4928 2.19074 24.5795 2.19019 25.7128V61.4076H18.1875C16.9394 62.2597 15.9971 63.4891 15.4986 64.9157C15.0002 66.3423 14.9718 67.891 15.4177 69.3349C15.8635 70.7788 16.7602 72.0419 17.9762 72.9391C19.1922 73.8363 20.6637 74.3204 22.1748 74.3204C23.686 74.3204 25.1574 73.8363 26.3735 72.9391C27.5895 72.0419 28.4861 70.7788 28.932 69.3349C29.3779 67.891 29.3495 66.3423 28.851 64.9157C28.3526 63.4891 27.4103 62.2597 26.1622 61.4076H42.1782V45.4936Z" fill="#62B5E5"/>
<path fill-rule="evenodd" clip-rule="evenodd" d="M1.97261 21.2204C3.1642 20.0294 4.78 19.3604 6.46475 19.3604H42.1784C43.3271 19.3604 44.2584 20.2916 44.2584 21.4404V37.3544C44.2584 38.2607 43.6716 39.0627 42.8078 39.3369C41.944 39.6112 41.002 39.2945 40.4793 38.5542C40.0148 37.8964 39.3991 37.3598 38.6839 36.9896C37.9688 36.6194 37.1753 36.4263 36.37 36.4268C36.362 36.4268 36.354 36.4267 36.346 36.4266C35.1172 36.4131 33.9266 36.8532 33.0022 37.6627C32.0777 38.4723 31.4843 39.5944 31.3356 40.8141C31.1868 42.0339 31.4933 43.2657 32.1961 44.2737C32.899 45.2816 33.9489 45.9949 35.1449 46.277L35.1611 46.2809C36.1449 46.5212 37.1782 46.4601 38.1268 46.1054C39.0754 45.7508 39.8954 45.119 40.4803 44.2923C41.0035 43.5526 41.9452 43.2367 42.8086 43.5112C43.672 43.7858 44.2584 44.5875 44.2584 45.4935V61.4076C44.2584 62.5563 43.3271 63.4876 42.1784 63.4876H30.5186C30.6278 63.7297 30.7266 63.9772 30.8148 64.2295C31.4599 66.0757 31.4966 68.08 30.9196 69.9486C30.3426 71.8171 29.1822 73.4517 27.6085 74.6128C26.0348 75.7738 24.1306 76.4003 22.175 76.4003C20.2194 76.4003 18.3151 75.7738 16.7415 74.6128C15.1678 73.4517 14.0074 71.8171 13.4304 69.9486C12.8534 68.08 12.8901 66.0757 13.5352 64.2295C13.6233 63.9772 13.7222 63.7297 13.8314 63.4876H2.19035C1.0416 63.4876 0.110352 62.5563 0.110352 61.4076L0.110352 25.7117C0.111172 24.0269 0.781013 22.4114 1.97261 21.2204ZM6.46475 23.5204C5.88295 23.5204 5.32495 23.7514 4.91345 24.1627C4.50203 24.5739 4.27072 25.1317 4.27035 25.7134C4.27035 25.7135 4.27035 25.7132 4.27035 25.7134V59.3276H18.1876C19.1 59.3276 19.9058 59.9221 20.175 60.7939C20.4442 61.6656 20.1139 62.611 19.3604 63.1254C18.4794 63.7269 17.8142 64.5947 17.4624 65.6017C17.1105 66.6087 17.0905 67.7019 17.4052 68.7212C17.72 69.7404 18.3529 70.632 19.2113 71.2653C20.0696 71.8986 21.1083 72.2403 22.175 72.2403C23.2417 72.2403 24.2804 71.8986 25.1387 71.2653C25.9971 70.632 26.63 69.7404 26.9448 68.7212C27.2595 67.7019 27.2395 66.6087 26.8876 65.6017C26.5358 64.5947 25.8706 63.7269 24.9896 63.1254C24.2361 62.611 23.9058 61.6656 24.1749 60.7939C24.4441 59.9221 25.25 59.3276 26.1624 59.3276H40.0984V49.7917C39.9293 49.8668 39.7576 49.937 39.5836 50.002C37.8559 50.6479 35.9741 50.7601 34.1821 50.3241C31.9927 49.8056 30.0709 48.4988 28.7838 46.6531C27.4952 44.8052 26.9335 42.5469 27.2061 40.3107C27.4788 38.0744 28.5667 36.0172 30.2616 34.5331C31.9534 33.0515 34.1314 32.2449 36.3798 32.2668C37.6628 32.2678 38.9293 32.5375 40.0984 33.0561V23.5204H6.46475Z" fill="black"/>
<path fill-rule="evenodd" clip-rule="evenodd" d="M62.0402 0.555664C60.8915 0.555664 59.9602 1.48691 59.9602 2.63566V14.1739C58.4605 13.5015 56.8059 13.2487 55.1731 13.4432L55.1754 13.4429L55.4175 15.5086L55.171 13.4434L55.1731 13.4432C52.862 13.7146 50.742 14.8593 49.2474 16.643C47.7523 18.4272 46.9961 20.7157 47.1339 23.0395C47.2717 25.3633 48.293 27.5464 49.9886 29.1414C51.6837 30.736 53.9243 31.6222 56.2515 31.6184H56.2491L56.2495 29.5386L56.2533 31.6184L56.2515 31.6184C57.5328 31.6183 58.7972 31.3469 59.9623 30.8247V42.3741C59.9623 43.5228 60.8936 44.4541 62.0423 44.4541H77.8878C78.7949 44.4541 79.5974 43.8662 79.8709 43.0013C80.1445 42.1365 79.826 41.194 79.0839 40.6724C78.2218 40.0664 77.5751 39.2015 77.2377 38.2032C76.9003 37.2048 76.8898 36.125 77.2076 35.1202C77.5254 34.1155 78.155 33.2381 79.0051 32.6153C79.8552 31.9926 80.8816 31.6569 81.9354 31.6569C82.9893 31.6569 84.0157 31.9926 84.8658 32.6153C85.7159 33.2381 86.3455 34.1155 86.6633 35.1202C86.9811 36.125 86.9705 37.2048 86.6332 38.2032C86.2958 39.2015 85.6491 40.0664 84.787 40.6724C84.0449 41.194 83.7264 42.1365 84 43.0013C84.2735 43.8662 85.076 44.4541 85.9831 44.4541H101.81C102.959 44.4541 103.89 43.5228 103.89 42.3741V7.0723C103.89 5.34399 103.203 3.68645 101.981 2.46434C100.759 1.24224 99.1015 0.555664 97.3732 0.555664H62.0402ZM64.1202 4.71566V18.5331C64.1202 19.4469 63.5238 20.2537 62.6502 20.5217C61.7766 20.7896 60.8304 20.456 60.318 19.6994C59.812 18.9522 59.1101 18.3587 58.2892 17.9838C57.4683 17.6089 56.5601 17.4672 55.664 17.5741L55.6596 17.5746C54.4023 17.722 53.249 18.3446 52.4359 19.3148C51.6229 20.2851 51.2117 21.5296 51.2866 22.7932C51.3616 24.0569 51.917 25.244 52.839 26.1114C53.761 26.9788 54.9798 27.4607 56.2457 27.4584L56.2499 27.4584C57.0531 27.4585 57.8441 27.2618 58.5536 26.8855C59.2632 26.5092 59.8697 25.9647 60.3202 25.2997C60.8326 24.5432 61.7788 24.2097 62.6524 24.4777C63.526 24.7457 64.1223 25.5525 64.1223 26.4662V40.2941H73.5916C73.4823 40.0463 73.3839 39.7931 73.2967 39.535C72.6763 37.6991 72.6568 35.7133 73.2412 33.8657C73.8256 32.018 74.9835 30.4046 76.5468 29.2594C78.1101 28.1142 79.9976 27.4969 81.9354 27.4969C83.8733 27.4969 85.7608 28.1142 87.3241 29.2594C88.8874 30.4046 90.0452 32.018 90.6296 33.8657C91.214 35.7133 91.1946 37.6991 90.5742 39.535C90.487 39.7931 90.3885 40.0463 90.2793 40.2941H99.7298V7.0723C99.7298 6.44728 99.4816 5.84786 99.0396 5.40591C98.5976 4.96395 97.9982 4.71566 97.3732 4.71566H64.1202Z" fill="black"/>
<path fill-rule="evenodd" clip-rule="evenodd" d="M56.7432 48.2033C58.3169 47.0424 60.2209 46.416 62.1764 46.416C64.1319 46.416 66.036 47.0424 67.6096 48.2033C69.1832 49.3642 70.3437 50.9986 70.9208 52.867C71.4979 54.7354 71.4614 56.7395 70.8166 58.5856C70.7285 58.8381 70.6296 59.0857 70.5204 59.328H82.16C83.3088 59.328 84.24 60.2593 84.24 61.408V97.1008C84.24 98.7845 83.5718 100.399 82.3822 101.591C81.1925 102.782 79.5786 103.453 77.8949 103.455L77.8919 103.455H42.1783C41.0295 103.455 40.0983 102.524 40.0983 101.375V85.4612C40.0983 84.5549 40.6851 83.7529 41.5489 83.4787C42.4127 83.2044 43.3546 83.521 43.8774 84.2614C44.3419 84.9192 44.9576 85.4558 45.6727 85.826C46.3878 86.1962 47.1814 86.3892 47.9867 86.3888C47.9917 86.3888 47.9967 86.3888 48.0017 86.3889C48.0047 86.3889 48.0077 86.3889 48.0107 86.389C49.2394 86.4025 50.43 85.9624 51.3545 85.1529C52.2789 84.3433 52.8723 83.2212 53.0211 82.0014C53.1698 80.7817 52.8634 79.5499 52.1605 78.5419C51.4576 77.534 50.4077 76.8207 49.2117 76.5386L49.1956 76.5347C48.2118 76.2944 47.1784 76.3555 46.2298 76.7102C45.2812 77.0648 44.4612 77.6965 43.8764 78.5233C43.3533 79.2628 42.4117 79.5787 41.5484 79.3045C40.6852 79.0302 40.0986 78.2287 40.0983 77.3229L40.092 61.4089C40.0918 60.8571 40.3109 60.3278 40.701 59.9375C41.0911 59.5473 41.6202 59.328 42.172 59.328H53.8325C53.7233 59.0857 53.6244 58.8381 53.5362 58.5856C52.8915 56.7395 52.855 54.7354 53.4321 52.867C54.0092 50.9986 55.1696 49.3642 56.7432 48.2033ZM62.1764 50.576C61.1098 50.576 60.0712 50.9177 59.2129 51.5509C58.3545 52.1841 57.7216 53.0756 57.4068 54.0947C57.092 55.1138 57.1119 56.207 57.4636 57.214C57.8153 58.221 58.4803 59.0888 59.3611 59.6904C60.1145 60.2049 60.4446 61.1503 60.1754 62.0219C59.9061 62.8936 59.1003 63.488 58.188 63.488H44.2529L44.2566 73.0247C44.4262 72.9493 44.5984 72.8788 44.7731 72.8136C46.5007 72.1677 48.3825 72.0555 50.1746 72.4915C52.3639 73.01 54.2858 74.3167 55.5728 76.1624C56.8614 78.0104 57.4231 80.2687 57.1505 82.5049C56.8778 84.7412 55.7899 86.7984 54.0951 88.2825C52.4033 89.764 50.2254 90.5706 47.977 90.5488C46.694 90.5479 45.4274 90.2782 44.2583 89.7595V99.2952H77.8888C78.4703 99.2944 79.0276 99.0628 79.4385 98.6514C79.8493 98.2399 80.08 97.6823 80.08 97.1008V63.488H66.1648C65.2526 63.488 64.4467 62.8936 64.1775 62.0219C63.9082 61.1503 64.2384 60.2049 64.9918 59.6904C65.8726 59.0888 66.5376 58.221 66.8893 57.214C67.241 56.207 67.2609 55.1138 66.9461 54.0947C66.6313 53.0756 65.9983 52.1841 65.14 51.5509C64.2817 50.9177 63.2431 50.576 62.1764 50.576Z" fill="black"/>
<path fill-rule="evenodd" clip-rule="evenodd" d="M0.110352 61.4081C0.110352 60.2594 1.0416 59.3281 2.19035 59.3281H18.1044C19.0114 59.3281 19.8137 59.9158 20.0874 60.7804C20.3612 61.645 20.0431 62.5874 19.3013 63.1092C18.4339 63.7196 17.7834 64.5904 17.4441 65.5954C17.1049 66.6003 17.0946 67.6872 17.4147 68.6985C17.7348 69.7097 18.3687 70.5927 19.2244 71.2194C20.0802 71.8461 21.1133 72.1839 22.174 72.1839C23.2346 72.1839 24.2677 71.8461 25.1235 71.2194C25.9792 70.5927 26.6131 69.7097 26.9332 68.6985C27.2533 67.6872 27.243 66.6003 26.9038 65.5954C26.5645 64.5904 25.914 63.7196 25.0466 63.1092C24.3048 62.5874 23.9867 61.645 24.2605 60.7804C24.5342 59.9158 25.3365 59.3281 26.2435 59.3281H42.1783C43.3271 59.3281 44.2584 60.2594 44.2584 61.4081V73.0389C45.4282 72.5118 46.6982 72.2369 47.9856 72.2345C50.3388 72.2008 52.6149 73.075 54.3406 74.6759C56.0705 76.2805 57.1138 78.4913 57.2527 80.8467C57.3916 83.2022 56.6155 85.5203 55.0862 87.3172C53.5606 89.1097 51.4031 90.2454 49.0623 90.4886C47.4229 90.6799 45.7626 90.4226 44.2584 89.7444V101.375C44.2584 102.524 43.3271 103.455 42.1783 103.455H6.46475C4.77946 103.455 3.16319 102.786 1.97151 101.594C0.77983 100.402 0.110352 98.7862 0.110352 97.1009V61.4081ZM4.27035 63.4881V97.1009C4.27035 97.6829 4.50155 98.2411 4.91308 98.6526C5.32461 99.0641 5.88276 99.2953 6.46475 99.2953H40.0983V85.378C40.0983 84.4642 40.6948 83.6573 41.5686 83.3894C42.4423 83.1215 43.3885 83.4553 43.9008 84.212C44.4105 84.965 45.1175 85.5632 45.9445 85.9413C46.7714 86.3194 47.6864 86.4627 48.5893 86.3556C48.5958 86.3548 48.6022 86.3541 48.6087 86.3534C48.6135 86.3528 48.6184 86.3523 48.6232 86.3518C49.9036 86.2212 51.0841 85.6011 51.9182 84.621C52.7523 83.6409 53.1757 82.3765 53.0999 81.0917C53.0242 79.8069 52.4551 78.601 51.5115 77.7257C50.568 76.8505 49.3228 76.3735 48.0359 76.3942C48.0247 76.3944 48.0135 76.3945 48.0023 76.3945C47.1929 76.3945 46.3958 76.5928 45.6807 76.972C44.9656 77.3513 44.3543 77.8999 43.9003 78.57C43.3878 79.3264 42.4417 79.6598 41.5682 79.3918C40.6946 79.1237 40.0983 78.317 40.0983 77.4033V63.4881H30.543C30.6552 63.7415 30.7561 64.0007 30.8453 64.2649C31.4672 66.1073 31.4861 68.1 30.8992 69.9539C30.3124 71.8078 29.1503 73.4266 27.5814 74.5756C26.0126 75.7245 24.1185 76.3439 22.174 76.3439C20.2294 76.3439 18.3353 75.7245 16.7665 74.5756C15.1976 73.4266 14.0355 71.8078 13.4487 69.9539C12.8618 68.1 12.8807 66.1074 13.5026 64.2649C13.5918 64.0007 13.6927 63.7415 13.8049 63.4881H4.27035Z" fill="black"/>
</svg>
