<svg width="104" height="104" viewBox="0 0 104 104" fill="none" xmlns="http://www.w3.org/2000/svg">
<path d="M90.5238 81.8137V24.0937C90.4688 23.4233 90.1603 22.7991 89.6611 22.3482C89.1619 21.8973 88.5096 21.6537 87.8371 21.667L17.3338 22.317C16.6327 22.317 15.9604 22.5955 15.4646 23.0912C14.9689 23.587 14.6904 24.2593 14.6904 24.9604V81.8137H90.5238Z" fill="#EAE2F9"/>
<path fill-rule="evenodd" clip-rule="evenodd" d="M42.728 59.194H61.4047C61.9793 59.194 62.5304 59.4223 62.9368 59.8286C63.3431 60.235 63.5714 60.786 63.5714 61.3607C63.5714 61.9353 63.3431 62.4864 62.9368 62.8928C62.5304 63.2991 61.9793 63.5274 61.4047 63.5274H41.4714C41.0933 63.5251 40.7223 63.4239 40.3954 63.2338C40.0686 63.0438 39.7971 62.7715 39.608 62.444L31.2447 47.9273C31.0664 47.6822 30.9415 47.4023 30.8782 47.1058C30.8148 46.8093 30.8144 46.5029 30.8769 46.2062C30.9394 45.9096 31.0635 45.6293 31.2411 45.3836C31.4187 45.138 31.6459 44.9323 31.908 44.7799C32.1701 44.6275 32.4612 44.5318 32.7626 44.499C33.064 44.4662 33.3689 44.4971 33.6576 44.5895C33.9464 44.6819 34.2125 44.8339 34.4388 45.0357C34.6651 45.2374 34.8465 45.4844 34.9714 45.7607L42.728 59.194Z" fill="#9293A5"/>
<path fill-rule="evenodd" clip-rule="evenodd" d="M59.8012 49.0101H75.9212C76.4958 49.0101 77.0469 48.7818 77.4533 48.3755C77.8596 47.9692 78.0879 47.4181 78.0879 46.8434C78.0768 46.2723 77.8449 45.7276 77.441 45.3236C77.037 44.9197 76.4924 44.6879 75.9212 44.6768H59.8012C59.2266 44.6768 58.6755 44.905 58.2691 45.3114C57.8628 45.7177 57.6345 46.2688 57.6345 46.8434C57.6345 47.4181 57.8628 47.9692 58.2691 48.3755C58.6755 48.7818 59.2266 49.0101 59.8012 49.0101Z" fill="#9293A5"/>
<path fill-rule="evenodd" clip-rule="evenodd" d="M59.8012 42.2923H69.8112C70.3858 42.2923 70.9369 42.0641 71.3433 41.6577C71.7496 41.2514 71.9779 40.7003 71.9779 40.1257C71.9668 39.5545 71.7349 39.0098 71.331 38.6059C70.927 38.2019 70.3824 37.9701 69.8112 37.959H59.8012C59.2266 37.959 58.6755 38.1873 58.2691 38.5936C57.8628 38.9999 57.6345 39.551 57.6345 40.1257C57.6345 40.7003 57.8628 41.2514 58.2691 41.6577C58.6755 42.0641 59.2266 42.2923 59.8012 42.2923Z" fill="#9293A5"/>
<path fill-rule="evenodd" clip-rule="evenodd" d="M59.8012 35.5765H75.9212C76.4958 35.5765 77.0469 35.3482 77.4533 34.9419C77.8596 34.5356 78.0879 33.9845 78.0879 33.4098C78.0879 32.8352 77.8596 32.2841 77.4533 31.8778C77.0469 31.4714 76.4958 31.2432 75.9212 31.2432H59.8012C59.2266 31.2432 58.6755 31.4714 58.2691 31.8778C57.8628 32.2841 57.6345 32.8352 57.6345 33.4098C57.6345 33.9845 57.8628 34.5356 58.2691 34.9419C58.6755 35.3482 59.2266 35.5765 59.8012 35.5765Z" fill="#9293A5"/>
<path d="M27.777 14.9932C24.1021 15.0103 20.5148 16.1162 17.4682 18.1712C14.4216 20.2262 12.0524 23.1381 10.6599 26.539C9.26743 29.9399 8.91417 33.6771 9.64475 37.2787C10.3753 40.8802 12.157 44.1844 14.7646 46.7739C17.3722 49.3634 20.6887 51.1219 24.2953 51.8273C27.9019 52.5327 31.6366 52.1533 35.0277 50.7371C38.4187 49.3209 41.314 46.9315 43.3476 43.8706C45.3813 40.8097 46.4622 37.2147 46.4536 33.5398C46.4536 32.9765 43.117 33.5398 43.0303 32.7165C42.2503 24.0498 38.697 19.7165 30.0303 18.3732C29.207 18.3732 28.7303 14.9932 27.8636 14.9932H27.777ZM27.8636 26.3898C29.274 26.4069 30.6477 26.8408 31.8121 27.6367C32.9764 28.4327 33.8794 29.5553 34.4073 30.8632C34.9352 32.1711 35.0645 33.6059 34.7789 34.9871C34.4933 36.3683 33.8055 37.6342 32.8022 38.6255C31.7989 39.6168 30.5248 40.2892 29.1403 40.5581C27.7558 40.8271 26.3226 40.6805 25.0211 40.1369C23.7197 39.5933 22.6081 38.6769 21.8262 37.503C21.0443 36.3291 20.6271 34.9503 20.627 33.5398C20.627 31.6435 21.3803 29.8249 22.7212 28.484C24.062 27.1431 25.8807 26.3898 27.777 26.3898" fill="#00DFC0"/>
<path d="M82.3333 21.4066H87.8366C88.191 21.4008 88.543 21.4662 88.8716 21.5992C89.2002 21.7321 89.4987 21.9298 89.7494 22.1805C90.0001 22.4311 90.1977 22.7296 90.3307 23.0582C90.4636 23.3869 90.5291 23.7388 90.5233 24.0933V81.8133H82.3333V21.4066Z" fill="#C0C3EE"/>
<path d="M62.9647 56.3337H75.9647C76.6494 56.2693 77.3399 56.3487 77.9922 56.5666C78.6444 56.7845 79.244 57.1362 79.7525 57.5992C80.2611 58.0621 80.6673 58.6262 80.9453 59.2552C81.2233 59.8842 81.3668 60.5643 81.3668 61.252C81.3668 61.9397 81.2233 62.6198 80.9453 63.2488C80.6673 63.8778 80.2611 64.4419 79.7525 64.9049C79.244 65.3678 78.6444 65.7195 77.9922 65.9374C77.3399 66.1553 76.6494 66.2347 75.9647 66.1703H62.9647C62.28 66.2347 61.5894 66.1553 60.9372 65.9374C60.2849 65.7195 59.6853 65.3678 59.1768 64.9049C58.6683 64.4419 58.262 63.8778 57.9841 63.2488C57.7061 62.6198 57.5625 61.9397 57.5625 61.252C57.5625 60.5643 57.7061 59.8842 57.9841 59.2552C58.262 58.6262 58.6683 58.0621 59.1768 57.5992C59.6853 57.1362 60.2849 56.7845 60.9372 56.5666C61.5894 56.3487 62.28 56.2693 62.9647 56.3337Z" fill="#62B5E5"/>
<path d="M12.0907 74.1009C11.7095 74.0952 11.3313 74.1693 10.9805 74.3186C10.6298 74.4679 10.3141 74.6889 10.054 74.9676C9.77534 75.2277 9.55426 75.5434 9.40499 75.8942C9.25572 76.2449 9.18157 76.6231 9.18732 77.0043V83.1576C9.1873 83.9295 9.34004 84.6938 9.63674 85.4063C9.93343 86.1189 10.3682 86.7658 10.916 87.3096C11.4639 87.8534 12.1139 88.2834 12.8286 88.5748C13.5434 88.8662 14.3088 89.0133 15.0807 89.0076H90.004C90.7738 89.0134 91.5371 88.866 92.2495 88.574C92.9619 88.2821 93.6091 87.8514 94.1534 87.307C94.6978 86.7626 95.1285 86.1155 95.4204 85.4031C95.7124 84.6907 95.8598 83.9274 95.854 83.1576V77.0043C95.8569 76.2437 95.5613 75.5124 95.0307 74.9676C94.7673 74.6931 94.4511 74.4748 94.101 74.3258C93.751 74.1769 93.3744 74.1004 92.994 74.1009H70.374C69.9927 74.1009 69.6152 74.176 69.2629 74.3219C68.9107 74.4678 68.5906 74.6817 68.321 74.9513C68.0514 75.2209 67.8376 75.5409 67.6917 75.8932C67.5458 76.2454 67.4707 76.623 67.4707 77.0043V79.7776H37.5707V77.0043C37.5765 76.6214 37.5054 76.2412 37.3616 75.8863C37.2177 75.5314 37.0041 75.209 36.7333 74.9383C36.4625 74.6675 36.1402 74.4538 35.7853 74.31C35.4304 74.1662 35.0502 74.0951 34.6673 74.1009H12.0907Z" fill="#9293A5"/>
<path d="M86.6681 74.1006V83.1573C86.6739 83.9271 86.5265 84.6904 86.2346 85.4028C85.9426 86.1151 85.5119 86.7623 84.9675 87.3067C84.4232 87.8511 83.776 88.2818 83.0636 88.5737C82.3513 88.8656 81.588 89.013 80.8181 89.0073H90.0048C90.7746 89.013 91.5379 88.8656 92.2503 88.5737C92.9626 88.2818 93.6098 87.8511 94.1542 87.3067C94.6986 86.7623 95.1293 86.1151 95.4212 85.4028C95.7132 84.6904 95.8605 83.9271 95.8548 83.1573V77.0039C95.8605 76.6247 95.7908 76.2481 95.6496 75.8961C95.5085 75.5441 95.2987 75.2237 95.0326 74.9535C94.7664 74.6833 94.4492 74.4688 94.0994 74.3224C93.7495 74.1759 93.374 74.1005 92.9948 74.1006H86.6681Z" fill="#6F7188"/>
<path d="M27.7771 14.9932C32.6659 15.0389 37.3389 17.013 40.7797 20.4863C44.2204 23.9595 46.1506 28.6508 46.1504 33.5398H34.9271C34.9271 32.6009 34.7422 31.6711 34.3828 30.8036C34.0235 29.9362 33.4968 29.148 32.8329 28.484C32.169 27.8201 31.3808 27.2934 30.5133 26.9341C29.6458 26.5748 28.7161 26.3898 27.7771 26.3898V14.9932Z" fill="#FACE53"/>
</svg>
