<svg width="104" height="104" viewBox="0 0 104 104" fill="none" xmlns="http://www.w3.org/2000/svg">
<path d="M76.9768 57.7553L75.3897 65.1039H65.568L63.9809 57.7636C61.9061 57.2044 59.9127 56.378 58.0509 55.3051L56 56.6259C57.5217 60.199 57.7457 64.1919 56.6331 67.9129C55.5206 71.6338 53.1415 74.8484 49.9081 76.9997C46.6747 79.1511 42.7906 80.1036 38.9287 79.6924C35.0668 79.2812 31.4704 77.5321 28.7625 74.7481C26.0546 71.9642 24.4058 68.3207 24.1017 64.4489C23.7976 60.5771 24.8573 56.7209 27.0974 53.5483C29.3374 50.3757 32.6167 48.0866 36.367 47.0775C40.1173 46.0684 44.1025 46.4028 47.6321 48.023L48.8656 46.1073C47.7933 44.2454 46.9676 42.252 46.4091 40.1772L39.0688 38.5902V28.7684L46.4091 27.1814C46.5651 26.599 46.744 26.0291 46.9416 25.4654L46.7336 24.5439H34.6696L32.7206 33.5628C30.1731 34.2482 27.7258 35.2628 25.4406 36.5809L17.6801 31.5827L13.6137 35.6449L13.1977 36.0505L9.15214 40.1148L14.1441 47.8711C12.8274 50.157 11.8129 52.6041 11.1261 55.1511L2.10718 57.1001V69.1641L11.1261 71.1131C11.8114 73.6679 12.8259 76.1227 14.1441 78.4159L9.15214 86.166L13.2144 90.2283L13.6304 90.6443L17.6801 94.6982L25.4365 89.7062C27.7221 91.0234 30.1692 92.038 32.7165 92.7243L34.6654 101.743H46.7294L48.6805 92.7243C51.2277 92.0381 53.6749 91.0236 55.9605 89.7062L63.7168 94.6982L67.7811 90.6359L68.1867 90.2199L72.251 86.1577L67.259 78.4014C68.5769 76.1158 69.5922 73.6687 70.2792 71.1214L79.296 69.1724V57.1084L79.1213 57.071C78.4161 57.3268 77.7068 57.5577 76.9768 57.7553Z" fill="#2D3A3A"/>
<path d="M94.5546 27.1813C93.9961 25.1066 93.1703 23.1132 92.0981 21.2512L96.1666 14.9364L92.8594 11.6292L92.5287 11.2984L89.2194 7.99125L82.9066 12.0639C81.0446 10.9917 79.0512 10.1659 76.9765 9.60741L75.3895 2.26709H65.5677L63.9807 9.60325C61.9057 10.1631 59.9123 10.9902 58.0506 12.0639L51.7357 7.99125L48.4285 11.2984L48.0978 11.6292L44.7906 14.9364L48.8591 21.2512C47.7868 23.1132 46.9611 25.1066 46.4026 27.1813L39.0623 28.7684V38.5901L46.4026 40.1772C46.9611 42.2519 47.7868 44.2453 48.8591 46.1073L44.7906 52.4159L48.0978 55.7231L48.4285 56.0538L51.7357 59.3631L58.0506 55.2925C59.9124 56.3654 61.9058 57.1919 63.9807 57.7511L65.5677 65.1039H75.3895L76.9765 57.7636C79.0513 57.2044 81.0447 56.3779 82.9066 55.305L89.2194 59.3756L92.5287 56.0663L92.8594 55.7356L96.1666 52.4284L92.0981 46.1156C93.1703 44.2536 93.9961 42.2602 94.5546 40.1855L101.895 38.5985V28.7684L94.5546 27.1813Z" fill="#00DFC0"/>
<path fill-rule="evenodd" clip-rule="evenodd" d="M63.5349 1.8277C63.7419 0.870571 64.5886 0.1875 65.5679 0.1875H75.3896C76.369 0.1875 77.2157 0.870696 77.4226 1.82794L78.749 7.96264C80.1485 8.41208 81.5089 8.97555 82.8162 9.64739L88.0919 6.24383C88.915 5.71283 89.997 5.82802 90.6899 6.52042L93.9991 9.82761L94.3303 10.1588L97.6375 13.466C98.33 14.1584 98.4456 15.2401 97.9153 16.0633L94.5148 21.3414C95.1868 22.649 95.7504 24.0096 96.1999 25.4094L102.335 26.7358C103.292 26.9427 103.975 27.7894 103.975 28.7688V38.5989C103.975 39.5782 103.292 40.4249 102.335 40.6319L96.1999 41.9583C95.7504 43.358 95.1868 44.7185 94.5149 46.0261L97.9151 51.302C98.4456 52.1252 98.33 53.207 97.6375 53.8996L94.3303 57.2068L90.6903 60.8468C89.9977 61.5394 88.9156 61.6549 88.0924 61.1241L82.8169 57.7224C81.5094 58.3948 80.1489 58.9588 78.7491 59.4087L77.4226 65.5439C77.2157 66.5011 76.369 67.1843 75.3896 67.1843H65.5679C64.5882 67.1843 63.7414 66.5007 63.5347 65.5431L62.2079 59.3961C60.8082 58.9462 59.4478 58.3822 58.1404 57.7098L52.8628 61.1118C52.0393 61.6426 50.9571 61.5268 50.2646 60.8338L43.32 53.8871C42.6273 53.1944 42.5118 52.1123 43.0427 51.289L46.4424 46.0174C45.7705 44.7099 45.207 43.3495 44.7576 41.9499L38.6229 40.6236C37.6656 40.4166 36.9824 39.5699 36.9824 38.5905V28.7688C36.9824 27.7894 37.6656 26.9427 38.6229 26.7358L44.7576 25.4094C45.2071 24.0096 45.7707 22.649 46.4427 21.3414L43.0422 16.0633C42.5118 15.2401 42.6275 14.1584 43.32 13.466L46.9579 9.82808L50.2651 6.52088C50.9578 5.82818 52.0399 5.71271 52.8632 6.24366L58.1403 9.64702C59.4479 8.97408 60.8085 8.40957 62.2085 7.95919L63.5349 1.8277ZM67.246 4.3475L66.0138 10.0435C65.8493 10.804 65.2739 11.4092 64.5226 11.6119C62.6217 12.1247 60.7955 12.8825 59.0899 13.8661C58.4147 14.2555 57.5784 14.2347 56.9234 13.8123L52.0195 10.6496L49.5687 13.1004L47.4481 15.221L50.6077 20.1251C51.0294 20.7797 51.0503 21.6149 50.6617 22.2897C49.6794 23.9954 48.9229 25.8217 48.4112 27.7224C48.2088 28.4743 47.6034 29.0502 46.8423 29.2148L41.1424 30.4471V36.9122L46.8423 38.1446C47.6034 38.3091 48.2088 38.885 48.4112 39.6369C48.9229 41.5377 49.6794 43.3639 50.6617 45.0697C51.0504 45.7447 51.0294 46.5803 50.6072 47.235L47.4487 52.1327L52.0202 56.7055L56.9238 53.5447C57.5786 53.1226 58.4143 53.1018 59.0893 53.4907C60.795 54.4737 62.6212 55.2308 64.5221 55.7432C65.274 55.9458 65.8497 56.5515 66.014 57.3127L67.2468 63.0243H73.7113L74.9436 57.3244C75.1081 56.5635 75.6837 55.9582 76.4354 55.7556C78.3362 55.2433 80.1625 54.4862 81.8682 53.5032C82.5433 53.1142 83.3791 53.1351 84.0339 53.5573L88.9358 56.7181L91.058 54.5959L91.3888 54.2652L93.5092 52.1448L90.3499 47.2428C89.928 46.5882 89.9072 45.7528 90.2958 45.078C91.2781 43.3722 92.0346 41.546 92.5462 39.6452C92.7486 38.8933 93.3541 38.3174 94.1152 38.1529L99.8151 36.9205V30.4471L94.1152 29.2148C93.3541 29.0502 92.7486 28.4743 92.5462 27.7224C92.0346 25.8217 91.2781 23.9954 90.2958 22.2897C89.9072 21.6149 89.928 20.7797 90.3497 20.1251L93.5093 15.221L91.058 12.7697L88.9366 10.6495L84.0343 13.8121C83.3797 14.2345 82.5439 14.2556 81.8687 13.8668C80.163 12.8845 78.3367 12.128 76.436 11.6163C75.6841 11.4139 75.1082 10.8085 74.9436 10.0474L73.7113 4.3475H67.246Z" fill="black"/>
<path fill-rule="evenodd" clip-rule="evenodd" d="M32.6364 24.1045C32.8433 23.1472 33.6901 22.4639 34.6695 22.4639H46.7335C47.7058 22.4639 48.5484 23.1374 48.7624 24.0859L48.9704 25.0073C49.0564 25.388 49.0335 25.7851 48.9044 26.1534C48.722 26.6738 48.5591 27.1935 48.4182 27.7195C48.2165 28.4725 47.6106 29.0496 46.8486 29.2143L41.1487 30.4467V36.9118L46.8486 38.1441C47.6097 38.3087 48.2151 38.8846 48.4175 39.6365C48.9292 41.5372 49.6857 43.3634 50.668 45.0692C51.0564 45.7438 51.0357 46.5788 50.6143 47.2333L49.3809 49.1489C48.8205 50.0194 47.7052 50.3451 46.7644 49.9133C43.6759 48.4957 40.1889 48.203 36.9074 49.086C33.6258 49.9689 30.7565 51.9719 28.7965 54.7479C26.8364 57.524 25.9091 60.8981 26.1752 64.286C26.4413 67.6738 27.884 70.8618 30.2534 73.2978C32.6228 75.7338 35.7697 77.2642 39.1489 77.624C42.528 77.9838 45.9266 77.1503 48.7558 75.2679C51.5851 73.3855 53.6667 70.5728 54.6403 67.3169C55.6138 64.0611 55.4178 60.5673 54.0862 57.4408C53.6892 56.5085 54.0217 55.4257 54.8737 54.8771L56.9246 53.5563C57.5793 53.1346 58.4146 53.114 59.0893 53.5028C60.795 54.4858 62.6213 55.2429 64.5221 55.7552C65.2738 55.9578 65.8494 56.5631 66.0139 57.324L67.2463 63.0239H73.7109L74.9436 57.3162C75.1078 56.5558 75.6825 55.9507 76.4333 55.7475C77.0968 55.5679 77.7499 55.3558 78.4118 55.1156C78.7786 54.9825 79.1754 54.9553 79.557 55.0371L79.7317 55.0745C80.6907 55.28 81.3759 56.1275 81.3759 57.1083V69.1724C81.3759 70.1518 80.6926 70.9985 79.7353 71.2054L71.9296 72.8926C71.3445 74.7652 70.5912 76.5811 69.6789 78.318L74 85.0319C74.5299 85.8553 74.4138 86.9366 73.7213 87.6288L69.6663 91.6818L69.2703 92.0879C69.267 92.0913 69.2637 92.0946 69.2605 92.098C69.2575 92.101 69.2544 92.104 69.2514 92.107L65.1871 96.1693C64.4949 96.8611 63.414 96.9768 62.591 96.4472L55.8769 92.1259C54.1399 93.0379 52.324 93.7907 50.4513 94.3752L48.7623 102.183C48.5553 103.14 47.7086 103.823 46.7293 103.823H34.6653C33.6859 103.823 32.8391 103.14 32.6323 102.182L30.9451 94.375C29.0726 93.7905 27.2568 93.0377 25.52 92.1259L18.8058 96.4472C17.9823 96.9772 16.9006 96.861 16.2085 96.1681L7.68128 87.6367C6.98889 86.9444 6.87318 85.8628 7.40342 85.0396L11.7248 78.3306C10.8115 76.5867 10.0581 74.7637 9.47363 72.8839L1.66776 71.1971C0.710407 70.9902 0.0270996 70.1435 0.0270996 69.164V57.1C0.0270996 56.1206 0.710408 55.2738 1.66776 55.067L9.47542 53.3797C10.0602 51.5074 10.8129 49.6917 11.7244 47.9549L7.403 41.2404C6.8742 40.4188 6.98857 39.3399 7.67789 38.6474L11.7235 34.583C11.7308 34.5757 11.7382 34.5684 11.7456 34.5612L12.1525 34.1644L16.21 30.1111C16.9025 29.4193 17.9835 29.3039 18.8063 29.8339L25.5242 34.1606C27.2608 33.2484 29.0767 32.4956 30.9494 31.9115L32.6364 24.1045ZM36.348 26.6239L34.7536 34.0021C34.5891 34.7634 34.013 35.369 33.2609 35.5713C30.888 36.2097 28.6084 37.1548 26.4798 38.3826C25.805 38.7718 24.9692 38.7514 24.3143 38.3295L17.9637 34.2393L15.0837 37.1164C15.0777 37.1223 15.0717 37.1282 15.0657 37.1341L14.6609 37.5288L11.8067 40.3962L15.8931 46.7454C16.3144 47.3999 16.3349 48.2348 15.9464 48.9093C14.7195 51.0392 13.7742 53.3194 13.1342 55.6926C12.9316 56.4442 12.3262 57.0197 11.5653 57.1841L4.1871 58.7786V67.4855L11.5653 69.0799C12.3272 69.2446 12.933 69.8213 13.135 70.5741C13.7736 72.9548 14.719 75.2423 15.9474 77.3793C16.3351 78.0537 16.314 78.8882 15.8927 79.5422L11.8093 85.8817L17.9655 92.0408L24.3107 87.9571C24.9653 87.5357 25.8005 87.5152 26.475 87.904C28.6044 89.1312 30.8844 90.0764 33.2575 90.7158C34.0093 90.9184 34.585 91.5238 34.7495 92.2849L36.3439 99.6631H45.0512L46.6474 92.2844C46.812 91.5235 47.3877 90.9183 48.1394 90.7158C50.5125 90.0766 52.7924 89.1314 54.9216 87.904C55.5962 87.5152 56.4314 87.5357 57.0861 87.9571L63.4323 92.0415L66.3011 89.1742L66.6973 88.7678C66.7014 88.7636 66.7055 88.7595 66.7096 88.7554L66.7162 88.7487L69.5939 85.8725L65.5099 79.527C65.0884 78.8722 65.0681 78.0369 65.457 77.3623C66.6849 75.2329 67.6308 72.9529 68.2709 70.5797C68.4735 69.8282 69.0789 69.2527 69.8397 69.0883L77.2159 67.4939V66.1C76.8588 66.7547 76.1659 67.1839 75.3897 67.1839H65.5679C64.5885 67.1839 63.7418 66.5007 63.5349 65.5434L62.2084 59.4083C61.003 59.0208 59.8266 58.5487 58.6881 57.9957C59.6676 61.4185 59.655 65.067 58.6259 68.5087C57.3742 72.6947 54.6978 76.3111 51.0602 78.7314C47.4226 81.1516 43.053 82.2233 38.7084 81.7607C34.3638 81.298 30.3178 79.3303 27.2714 76.1983C24.225 73.0664 22.3701 68.9675 22.028 64.6117C21.6858 60.2559 22.8781 55.9177 25.3982 52.3485C27.9182 48.7794 31.6073 46.2041 35.8265 45.0688C39.198 44.1617 42.7382 44.2197 46.0508 45.2097C45.5515 44.1524 45.1215 43.0634 44.7638 41.9495L38.6291 40.6231C37.6719 40.4162 36.9887 39.5695 36.9887 38.5901V28.7683C36.9887 27.789 37.6719 26.9423 38.6291 26.7353L39.1446 26.6239H36.348Z" fill="black"/>
<path d="M70.4787 50.8602C80.1248 50.8602 87.9445 43.0405 87.9445 33.3945C87.9445 23.7484 80.1248 15.9287 70.4787 15.9287C60.8326 15.9287 53.0129 23.7484 53.0129 33.3945C53.0129 43.0405 60.8326 50.8602 70.4787 50.8602Z" fill="black" fill-opacity="0.1"/>
<path fill-rule="evenodd" clip-rule="evenodd" d="M81.3658 26.62C82.1781 27.4322 82.1781 28.7492 81.3658 29.5615L69.3122 41.6151C68.5128 42.4145 67.2213 42.429 66.4042 41.6479L60.4137 35.9217C59.5833 35.1279 59.5537 33.8112 60.3474 32.9808C61.1412 32.1504 62.4579 32.1208 63.2883 32.9145L67.8086 37.2356L78.4242 26.62C79.2365 25.8077 80.5535 25.8077 81.3658 26.62Z" fill="black"/>
</svg>
