<svg width="30" height="30" viewBox="0 0 30 30" fill="none" xmlns="http://www.w3.org/2000/svg">
<path d="M16.6666 8.33332C20.1716 8.33332 21.6666 9.82832 21.6666 13.3333H25C25 7.95832 22.0416 4.99999 16.6666 4.99999V8.33332ZM22.37 17.405C22.0497 17.1139 21.6289 16.9587 21.1963 16.972C20.7638 16.9854 20.3533 17.1664 20.0516 17.4767L16.0633 21.5783C15.1033 21.395 13.1733 20.7933 11.1866 18.8117C9.19998 16.8233 8.59832 14.8883 8.41998 13.935L12.5183 9.94499C12.829 9.64354 13.0102 9.23303 13.0236 8.80034C13.037 8.36764 12.8815 7.94673 12.59 7.62666L6.43165 0.854991C6.14005 0.533919 5.73478 0.339165 5.3019 0.312091C4.86903 0.285017 4.44265 0.427755 4.11332 0.709992L0.496649 3.81166C0.2085 4.10085 0.0365142 4.48574 0.013315 4.89332C-0.011685 5.30999 -0.488351 15.18 7.16498 22.8367C13.8416 29.5117 22.205 30 24.5083 30C24.845 30 25.0516 29.99 25.1066 29.9867C25.5142 29.9638 25.8989 29.7911 26.1866 29.5017L29.2866 25.8833C29.5691 25.5542 29.7121 25.1279 29.6854 24.6951C29.6586 24.2622 29.4641 23.8568 29.1433 23.565L22.37 17.405Z" fill="white"/>
</svg>
