<svg width="577" height="1080" viewBox="0 0 577 1080" fill="none" xmlns="http://www.w3.org/2000/svg">
<g filter="url(#filter0_f_69_991)">
<path d="M564.777 517.373C487.954 427.558 355.929 414.406 269.891 487.999C183.853 561.591 176.382 694.059 253.206 783.875C330.029 873.69 462.054 886.841 548.092 813.249C634.131 739.657 641.601 607.188 564.777 517.373Z" fill="#E69951" fill-opacity="0.33"/>
</g>
<g filter="url(#filter1_f_69_991)">
<path d="M834.964 517.87C758.141 428.055 626.116 414.903 540.077 488.496C454.039 562.088 446.569 694.556 523.393 784.372C600.216 874.187 732.241 887.338 818.279 813.746C904.317 740.154 911.787 607.685 834.964 517.87Z" fill="#7353E5" fill-opacity="0.7"/>
</g>
<g filter="url(#filter2_f_69_991)">
<path d="M581.462 221.497C504.639 131.682 372.614 118.53 286.576 192.123C200.538 265.715 193.068 398.183 269.891 487.999C346.714 577.814 478.739 590.965 564.777 517.373C650.816 443.781 658.286 311.312 581.462 221.497Z" fill="#BF3EC3" fill-opacity="0.43"/>
</g>
<defs>
<filter id="filter0_f_69_991" x="0.139648" y="240.373" width="817.704" height="820.501" filterUnits="userSpaceOnUse" color-interpolation-filters="sRGB">
<feFlood flood-opacity="0" result="BackgroundImageFix"/>
<feBlend mode="normal" in="SourceGraphic" in2="BackgroundImageFix" result="shape"/>
<feGaussianBlur stdDeviation="100" result="effect1_foregroundBlur_69_991"/>
</filter>
<filter id="filter1_f_69_991" x="270.326" y="240.87" width="817.704" height="820.501" filterUnits="userSpaceOnUse" color-interpolation-filters="sRGB">
<feFlood flood-opacity="0" result="BackgroundImageFix"/>
<feBlend mode="normal" in="SourceGraphic" in2="BackgroundImageFix" result="shape"/>
<feGaussianBlur stdDeviation="100" result="effect1_foregroundBlur_69_991"/>
</filter>
<filter id="filter2_f_69_991" x="16.8247" y="-55.5029" width="817.704" height="820.501" filterUnits="userSpaceOnUse" color-interpolation-filters="sRGB">
<feFlood flood-opacity="0" result="BackgroundImageFix"/>
<feBlend mode="normal" in="SourceGraphic" in2="BackgroundImageFix" result="shape"/>
<feGaussianBlur stdDeviation="100" result="effect1_foregroundBlur_69_991"/>
</filter>
</defs>
</svg>
