<svg width="61" height="61" viewBox="0 0 61 61" fill="none" xmlns="http://www.w3.org/2000/svg">
<path d="M11.1382 0C4.96814 0 0 4.96813 0 11.1382V49.8617C0 56.0318 4.96814 60.9999 11.1382 60.9999H32.1261V37.1528H25.8202V28.567H32.1261V21.2318C32.1261 15.4688 35.8519 10.1775 44.4347 10.1775C47.9098 10.1775 50.4795 10.5111 50.4795 10.5111L50.2774 18.5288C50.2774 18.5288 47.6566 18.504 44.7969 18.504C41.7018 18.504 41.2055 19.9301 41.2055 22.2975V28.5671H50.5233L50.1172 37.1528H41.2055V61H49.8618C56.0319 61 61 56.0319 61 49.8618V11.1383C61 4.9682 56.0319 6.09999e-05 49.8618 6.09999e-05H11.1382L11.1382 0Z" fill="white"/>
</svg>
