<svg width="1565" height="947" viewBox="0 0 1565 947" fill="none" xmlns="http://www.w3.org/2000/svg">
<path opacity="0.5" d="M74.84 119L65.8 119V95.72H51.48V113.56H42.6V95.72H19V84.52H74.84V119ZM63.32 170.382H19V159.102H24.6C22.68 157.662 21.16 155.769 20.04 153.422C18.9733 151.129 18.44 148.622 18.44 145.902C18.44 142.435 19.16 139.369 20.6 136.702C22.0933 134.035 24.2533 131.929 27.08 130.382C29.96 128.889 33.3733 128.142 37.32 128.142H63.32L63.32 139.342H38.92C35.4 139.342 32.68 140.222 30.76 141.982C28.8933 143.742 27.96 146.142 27.96 149.182C27.96 152.275 28.8933 154.702 30.76 156.462C32.68 158.222 35.4 159.102 38.92 159.102H63.32V170.382ZM54.12 196.072H32.68C31.1867 196.072 30.0933 196.419 29.4 197.112C28.76 197.859 28.44 199.086 28.44 200.792V205.992H19V198.952C19 189.512 23.5867 184.792 32.76 184.792H54.12V179.512H63.32V184.792H74.28V196.072H63.32V205.992H54.12V196.072ZM63.32 257.488H19V246.208H24.6C22.68 244.768 21.16 242.875 20.04 240.528C18.9733 238.235 18.44 235.728 18.44 233.008C18.44 229.541 19.16 226.475 20.6 223.808C22.0933 221.141 24.2533 219.035 27.08 217.488C29.96 215.995 33.3733 215.248 37.32 215.248L63.32 215.248V226.448L38.92 226.448C35.4 226.448 32.68 227.328 30.76 229.088C28.8933 230.848 27.96 233.248 27.96 236.288C27.96 239.381 28.8933 241.808 30.76 243.568C32.68 245.328 35.4 246.208 38.92 246.208L63.32 246.208L63.32 257.488ZM54.12 283.179H32.68C31.1867 283.179 30.0933 283.525 29.4 284.219C28.76 284.965 28.44 286.192 28.44 287.899V293.099H19V286.059C19 276.619 23.5867 271.899 32.76 271.899H54.12V266.619H63.32V271.899H74.28V283.179H63.32L63.32 293.099H54.12V283.179ZM42.12 343.954C40.52 343.954 39.08 343.848 37.8 343.634V311.234C34.6 311.501 32.0933 312.621 30.28 314.594C28.4667 316.568 27.56 318.994 27.56 321.874C27.56 326.034 29.3467 328.994 32.92 330.754V342.834C28.6533 341.554 25.1333 339.101 22.36 335.474C19.64 331.848 18.28 327.394 18.28 322.114C18.28 317.848 19.2133 314.008 21.08 310.594C23 307.234 25.6933 304.594 29.16 302.674C32.6267 300.808 36.6267 299.874 41.16 299.874C45.7467 299.874 49.7733 300.808 53.24 302.674C56.7067 304.541 59.3733 307.154 61.24 310.514C63.1067 313.874 64.04 317.741 64.04 322.114C64.04 326.328 63.1333 330.088 61.32 333.394C59.5067 336.754 56.92 339.341 53.56 341.154C50.2533 343.021 46.44 343.954 42.12 343.954ZM45.32 332.354C48.2 332.301 50.4933 331.261 52.2 329.234C53.96 327.208 54.84 324.728 54.84 321.794C54.84 319.021 53.9867 316.674 52.28 314.754C50.6267 312.888 48.3067 311.741 45.32 311.314V332.354ZM57.56 394.449C54.5733 394.449 51.7733 393.729 49.16 392.289C46.5467 390.903 44.44 388.689 42.84 385.649C41.24 382.663 40.44 378.876 40.44 374.289V364.929H19V353.729H74.84V374.289C74.84 378.609 74.0933 382.289 72.6 385.329C71.1067 388.369 69.0533 390.636 66.44 392.129C63.8267 393.676 60.8667 394.449 57.56 394.449ZM49.48 373.809C49.48 376.903 50.1733 379.196 51.56 380.689C53 382.183 55 382.929 57.56 382.929C63 382.929 65.72 379.889 65.72 373.809V364.929H49.48V373.809ZM56.44 415.201C58.7867 416.641 60.6267 418.508 61.96 420.801C63.2933 423.148 63.96 425.815 63.96 428.801H52.2L52.2 425.841C52.2 422.321 51.3733 419.655 49.72 417.841C48.0667 416.081 45.1867 415.201 41.08 415.201H19V404.001H63.32L63.32 415.201H56.44ZM42.12 479.145C40.52 479.145 39.08 479.038 37.8 478.825V446.425C34.6 446.692 32.0933 447.812 30.28 449.785C28.4667 451.758 27.56 454.185 27.56 457.065C27.56 461.225 29.3467 464.185 32.92 465.945V478.025C28.6533 476.745 25.1333 474.292 22.36 470.665C19.64 467.038 18.28 462.585 18.28 457.305C18.28 453.038 19.2133 449.198 21.08 445.785C23 442.425 25.6933 439.785 29.16 437.865C32.6267 435.998 36.6267 435.065 41.16 435.065C45.7467 435.065 49.7733 435.998 53.24 437.865C56.7067 439.732 59.3733 442.345 61.24 445.705C63.1067 449.065 64.04 452.932 64.04 457.305C64.04 461.518 63.1333 465.278 61.32 468.585C59.5067 471.945 56.92 474.532 53.56 476.345C50.2533 478.212 46.44 479.145 42.12 479.145ZM45.32 467.545C48.2 467.492 50.4933 466.452 52.2 464.425C53.96 462.398 54.84 459.918 54.84 456.985C54.84 454.212 53.9867 451.865 52.28 449.945C50.6267 448.078 48.3067 446.932 45.32 446.505V467.545ZM63.96 513.48C63.96 518.76 62.28 523.027 58.92 526.28C55.6133 529.533 50.9733 531.16 45 531.16H19V519.96H43.48C47 519.96 49.6933 519.08 51.56 517.32C53.48 515.56 54.44 513.16 54.44 510.12C54.44 507.027 53.48 504.573 51.56 502.76C49.6933 501 47 500.12 43.48 500.12H19V488.92H63.32V500.12H57.8C59.72 501.613 61.2133 503.507 62.28 505.8C63.4 508.147 63.96 510.707 63.96 513.48ZM42.12 584.611C40.52 584.611 39.08 584.504 37.8 584.291L37.8 551.891C34.6 552.157 32.0933 553.277 30.28 555.251C28.4667 557.224 27.56 559.651 27.56 562.531C27.56 566.691 29.3467 569.651 32.92 571.411L32.92 583.491C28.6533 582.211 25.1333 579.757 22.36 576.131C19.64 572.504 18.28 568.051 18.28 562.771C18.28 558.504 19.2133 554.664 21.08 551.251C23 547.891 25.6933 545.251 29.16 543.331C32.6267 541.464 36.6267 540.531 41.16 540.531C45.7467 540.531 49.7733 541.464 53.24 543.331C56.7067 545.197 59.3733 547.811 61.24 551.171C63.1067 554.531 64.04 558.397 64.04 562.771C64.04 566.984 63.1333 570.744 61.32 574.051C59.5067 577.411 56.92 579.997 53.56 581.811C50.2533 583.677 46.44 584.611 42.12 584.611ZM45.32 573.011C48.2 572.957 50.4933 571.917 52.2 569.891C53.96 567.864 54.84 565.384 54.84 562.451C54.84 559.677 53.9867 557.331 52.28 555.411C50.6267 553.544 48.3067 552.397 45.32 551.971V573.011ZM63.32 636.226H19V624.946H24.6C22.68 623.506 21.16 621.612 20.04 619.266C18.9733 616.972 18.44 614.466 18.44 611.746C18.44 608.279 19.16 605.212 20.6 602.546C22.0933 599.879 24.2533 597.772 27.08 596.226C29.96 594.732 33.3733 593.986 37.32 593.986H63.32L63.32 605.186H38.92C35.4 605.186 32.68 606.066 30.76 607.826C28.8933 609.586 27.96 611.986 27.96 615.026C27.96 618.119 28.8933 620.546 30.76 622.306C32.68 624.066 35.4 624.946 38.92 624.946H63.32V636.226ZM56.44 660.076C58.7867 661.516 60.6267 663.383 61.96 665.676C63.2933 668.023 63.96 670.69 63.96 673.676H52.2V670.716C52.2 667.196 51.3733 664.53 49.72 662.716C48.0667 660.956 45.1867 660.076 41.08 660.076H19L19 648.876H63.32V660.076H56.44ZM18.28 699.78C18.28 696.153 18.92 692.9 20.2 690.02C21.5333 687.14 23.32 684.847 25.56 683.14C27.8 681.487 30.28 680.58 33 680.42V691.7C31.2933 691.913 29.88 692.74 28.76 694.18C27.64 695.673 27.08 697.513 27.08 699.7C27.08 701.833 27.5067 703.487 28.36 704.66C29.2133 705.887 30.3067 706.5 31.64 706.5C33.08 706.5 34.1467 705.753 34.84 704.26C35.5867 702.82 36.3867 700.5 37.24 697.3C38.04 693.993 38.8667 691.273 39.72 689.14C40.5733 687.06 41.88 685.247 43.64 683.7C45.4 682.207 47.7733 681.46 50.76 681.46C53.2133 681.46 55.4533 682.153 57.48 683.54C59.5067 684.98 61.1067 687.007 62.28 689.62C63.4533 692.287 64.04 695.407 64.04 698.98C64.04 704.26 62.7067 708.473 60.04 711.62C57.4267 714.767 53.88 716.5 49.4 716.82V706.1C51.16 705.94 52.5467 705.193 53.56 703.86C54.6267 702.58 55.16 700.847 55.16 698.66C55.16 696.633 54.7867 695.06 54.04 693.94C53.2933 692.873 52.2533 692.34 50.92 692.34C49.4267 692.34 48.28 693.087 47.48 694.58C46.7333 696.073 45.96 698.393 45.16 701.54C44.36 704.74 43.5333 707.38 42.68 709.46C41.8267 711.54 40.4933 713.327 38.68 714.82C36.92 716.367 34.5733 717.167 31.64 717.22C29.08 717.22 26.7867 716.5 24.76 715.06C22.7333 713.673 21.1333 711.647 19.96 708.98C18.84 706.367 18.28 703.3 18.28 699.78ZM49.88 757.156C52.6533 751.823 56.9467 749.156 62.76 749.156C65.64 749.156 68.2533 749.876 70.6 751.316C73 752.81 74.8933 755.023 76.28 757.956C77.72 760.943 78.44 764.57 78.44 768.836C78.44 773.103 77.72 776.703 76.28 779.636C74.8933 782.623 73 784.836 70.6 786.276C68.2533 787.77 65.64 788.516 62.76 788.516C59.8267 788.516 57.24 787.796 55 786.356C52.8133 784.916 51.1067 782.996 49.88 780.596C48.6 783.53 46.7333 785.823 44.28 787.476C41.8267 789.13 38.92 789.956 35.56 789.956C31.9333 789.956 28.76 789.023 26.04 787.156C23.3733 785.343 21.32 782.836 19.88 779.636C18.44 776.436 17.72 772.836 17.72 768.836C17.72 764.836 18.44 761.236 19.88 758.036C21.32 754.89 23.3733 752.383 26.04 750.516C28.76 748.703 31.9333 747.796 35.56 747.796C38.92 747.796 41.8267 748.623 44.28 750.276C46.7867 751.93 48.6533 754.223 49.88 757.156ZM61.16 777.636C63.7733 777.636 65.8 776.836 67.24 775.236C68.68 773.69 69.4 771.556 69.4 768.836C69.4 766.17 68.68 764.036 67.24 762.436C65.8 760.89 63.7467 760.116 61.08 760.116C58.68 760.116 56.76 760.916 55.32 762.516C53.88 764.17 53.16 766.276 53.16 768.836C53.16 771.396 53.88 773.503 55.32 775.156C56.8133 776.81 58.76 777.636 61.16 777.636ZM45 768.836C45 765.796 44.2267 763.316 42.68 761.396C41.1333 759.53 38.92 758.596 36.04 758.596C33.3733 758.596 31.1867 759.503 29.48 761.316C27.8267 763.183 27 765.69 27 768.836C27 771.983 27.8533 774.463 29.56 776.276C31.2667 778.09 33.4267 778.996 36.04 778.996C38.8667 778.996 41.0533 778.063 42.6 776.196C44.2 774.33 45 771.876 45 768.836ZM18.44 806.642C18.44 804.616 19.0533 802.936 20.28 801.602C21.56 800.322 23.1333 799.682 25 799.682C26.8667 799.682 28.4133 800.322 29.64 801.602C30.92 802.936 31.56 804.616 31.56 806.642C31.56 808.616 30.92 810.242 29.64 811.522C28.4133 812.802 26.8667 813.442 25 813.442C23.1333 813.442 21.56 812.802 20.28 811.522C19.0533 810.242 18.44 808.616 18.44 806.642ZM48.92 822.784C58.1467 822.784 65.3733 824.437 70.6 827.744C75.8267 831.104 78.44 836.65 78.44 844.384C78.44 852.117 75.8267 857.637 70.6 860.944C65.3733 864.304 58.1467 865.984 48.92 865.984C39.64 865.984 32.36 864.304 27.08 860.944C21.8 857.637 19.16 852.117 19.16 844.384C19.16 836.65 21.8 831.104 27.08 827.744C32.36 824.437 39.64 822.784 48.92 822.784ZM48.92 854.944C52.8667 854.944 56.1733 854.677 58.84 854.144C61.56 853.664 63.7733 852.65 65.48 851.104C67.1867 849.61 68.04 847.37 68.04 844.384C68.04 841.397 67.1867 839.13 65.48 837.584C63.7733 836.09 61.56 835.077 58.84 834.544C56.1733 834.064 52.8667 833.824 48.92 833.824C44.8667 833.824 41.4533 834.064 38.68 834.544C35.96 835.024 33.7467 836.037 32.04 837.584C30.3867 839.13 29.56 841.397 29.56 844.384C29.56 847.37 30.3867 849.637 32.04 851.184C33.7467 852.73 35.96 853.744 38.68 854.224C41.4533 854.704 44.8667 854.944 48.92 854.944Z" fill="white" fill-opacity="0.2"/>
<g filter="url(#filter0_f_564_2725)">
<path d="M579 460C697.189 460 793 551.782 793 665C793 778.218 697.189 870 579 870C460.811 870 365 778.218 365 665C365 551.782 460.811 460 579 460Z" fill="#E69951" fill-opacity="0.33"/>
</g>
<g filter="url(#filter1_f_564_2725)">
<path d="M403 255C521.189 255 617 346.782 617 460C617 573.218 521.189 665 403 665C284.811 665 189 573.218 189 460C189 346.782 284.811 255 403 255Z" fill="#7353E5" fill-opacity="0.7"/>
</g>
<g filter="url(#filter2_f_564_2725)">
<path d="M793 255C911.189 255 1007 346.782 1007 460C1007 573.218 911.189 665 793 665C674.811 665 579 573.218 579 460C579 346.782 674.811 255 793 255Z" fill="#BF3EC3" fill-opacity="0.43"/>
</g>
<defs>
<filter id="filter0_f_564_2725" x="165" y="260" width="828" height="810" filterUnits="userSpaceOnUse" color-interpolation-filters="sRGB">
<feFlood flood-opacity="0" result="BackgroundImageFix"/>
<feBlend mode="normal" in="SourceGraphic" in2="BackgroundImageFix" result="shape"/>
<feGaussianBlur stdDeviation="100" result="effect1_foregroundBlur_564_2725"/>
</filter>
<filter id="filter1_f_564_2725" x="-11" y="55" width="828" height="810" filterUnits="userSpaceOnUse" color-interpolation-filters="sRGB">
<feFlood flood-opacity="0" result="BackgroundImageFix"/>
<feBlend mode="normal" in="SourceGraphic" in2="BackgroundImageFix" result="shape"/>
<feGaussianBlur stdDeviation="100" result="effect1_foregroundBlur_564_2725"/>
</filter>
<filter id="filter2_f_564_2725" x="379" y="55" width="828" height="810" filterUnits="userSpaceOnUse" color-interpolation-filters="sRGB">
<feFlood flood-opacity="0" result="BackgroundImageFix"/>
<feBlend mode="normal" in="SourceGraphic" in2="BackgroundImageFix" result="shape"/>
<feGaussianBlur stdDeviation="100" result="effect1_foregroundBlur_564_2725"/>
</filter>
</defs>
</svg>
