<svg width="1007" height="1217" viewBox="0 0 1007 1217" fill="none" xmlns="http://www.w3.org/2000/svg">
<path opacity="0.5" d="M74.84 250H65.8V226.72H51.48V244.56H42.6V226.72L19 226.72V215.52L74.84 215.52V250ZM63.32 301.382H19V290.102H24.6C22.68 288.662 21.16 286.769 20.04 284.422C18.9733 282.129 18.44 279.622 18.44 276.902C18.44 273.435 19.16 270.369 20.6 267.702C22.0933 265.035 24.2533 262.929 27.08 261.382C29.96 259.889 33.3733 259.142 37.32 259.142H63.32L63.32 270.342H38.92C35.4 270.342 32.68 271.222 30.76 272.982C28.8933 274.742 27.96 277.142 27.96 280.182C27.96 283.275 28.8933 285.702 30.76 287.462C32.68 289.222 35.4 290.102 38.92 290.102H63.32V301.382ZM54.12 327.072H32.68C31.1867 327.072 30.0933 327.419 29.4 328.112C28.76 328.859 28.44 330.086 28.44 331.792V336.992H19V329.952C19 320.512 23.5867 315.792 32.76 315.792H54.12V310.512H63.32V315.792H74.28V327.072H63.32V336.992H54.12V327.072ZM63.32 388.488H19V377.208H24.6C22.68 375.768 21.16 373.875 20.04 371.528C18.9733 369.235 18.44 366.728 18.44 364.008C18.44 360.541 19.16 357.475 20.6 354.808C22.0933 352.141 24.2533 350.035 27.08 348.488C29.96 346.995 33.3733 346.248 37.32 346.248H63.32V357.448H38.92C35.4 357.448 32.68 358.328 30.76 360.088C28.8933 361.848 27.96 364.248 27.96 367.288C27.96 370.381 28.8933 372.808 30.76 374.568C32.68 376.328 35.4 377.208 38.92 377.208H63.32L63.32 388.488ZM54.12 414.179H32.68C31.1867 414.179 30.0933 414.525 29.4 415.219C28.76 415.965 28.44 417.192 28.44 418.899V424.099H19V417.059C19 407.619 23.5867 402.899 32.76 402.899H54.12V397.619H63.32V402.899H74.28V414.179H63.32L63.32 424.099H54.12V414.179ZM42.12 474.954C40.52 474.954 39.08 474.848 37.8 474.634V442.234C34.6 442.501 32.0933 443.621 30.28 445.594C28.4667 447.568 27.56 449.994 27.56 452.874C27.56 457.034 29.3467 459.994 32.92 461.754V473.834C28.6533 472.554 25.1333 470.101 22.36 466.474C19.64 462.848 18.28 458.394 18.28 453.114C18.28 448.848 19.2133 445.008 21.08 441.594C23 438.234 25.6933 435.594 29.16 433.674C32.6267 431.808 36.6267 430.874 41.16 430.874C45.7467 430.874 49.7733 431.808 53.24 433.674C56.7067 435.541 59.3733 438.154 61.24 441.514C63.1067 444.874 64.04 448.741 64.04 453.114C64.04 457.328 63.1333 461.088 61.32 464.394C59.5067 467.754 56.92 470.341 53.56 472.154C50.2533 474.021 46.44 474.954 42.12 474.954ZM45.32 463.354C48.2 463.301 50.4933 462.261 52.2 460.234C53.96 458.208 54.84 455.728 54.84 452.794C54.84 450.021 53.9867 447.674 52.28 445.754C50.6267 443.888 48.3067 442.741 45.32 442.314V463.354ZM57.56 525.449C54.5733 525.449 51.7733 524.729 49.16 523.289C46.5467 521.903 44.44 519.689 42.84 516.649C41.24 513.663 40.44 509.876 40.44 505.289V495.929H19V484.729H74.84V505.289C74.84 509.609 74.0933 513.289 72.6 516.329C71.1067 519.369 69.0533 521.636 66.44 523.129C63.8267 524.676 60.8667 525.449 57.56 525.449ZM49.48 504.809C49.48 507.903 50.1733 510.196 51.56 511.689C53 513.183 55 513.929 57.56 513.929C63 513.929 65.72 510.889 65.72 504.809V495.929H49.48V504.809ZM56.44 546.201C58.7867 547.641 60.6267 549.508 61.96 551.801C63.2933 554.148 63.96 556.815 63.96 559.801H52.2L52.2 556.841C52.2 553.321 51.3733 550.655 49.72 548.841C48.0667 547.081 45.1867 546.201 41.08 546.201H19V535.001H63.32L63.32 546.201H56.44ZM42.12 610.145C40.52 610.145 39.08 610.038 37.8 609.825V577.425C34.6 577.692 32.0933 578.812 30.28 580.785C28.4667 582.758 27.56 585.185 27.56 588.065C27.56 592.225 29.3467 595.185 32.92 596.945V609.025C28.6533 607.745 25.1333 605.292 22.36 601.665C19.64 598.038 18.28 593.585 18.28 588.305C18.28 584.038 19.2133 580.198 21.08 576.785C23 573.425 25.6933 570.785 29.16 568.865C32.6267 566.998 36.6267 566.065 41.16 566.065C45.7467 566.065 49.7733 566.998 53.24 568.865C56.7067 570.732 59.3733 573.345 61.24 576.705C63.1067 580.065 64.04 583.932 64.04 588.305C64.04 592.518 63.1333 596.278 61.32 599.585C59.5067 602.945 56.92 605.532 53.56 607.345C50.2533 609.212 46.44 610.145 42.12 610.145ZM45.32 598.545C48.2 598.492 50.4933 597.452 52.2 595.425C53.96 593.398 54.84 590.918 54.84 587.985C54.84 585.212 53.9867 582.865 52.28 580.945C50.6267 579.078 48.3067 577.932 45.32 577.505V598.545ZM63.96 644.48C63.96 649.76 62.28 654.027 58.92 657.28C55.6133 660.533 50.9733 662.16 45 662.16H19V650.96H43.48C47 650.96 49.6933 650.08 51.56 648.32C53.48 646.56 54.44 644.16 54.44 641.12C54.44 638.027 53.48 635.573 51.56 633.76C49.6933 632 47 631.12 43.48 631.12H19V619.92H63.32V631.12H57.8C59.72 632.613 61.2133 634.507 62.28 636.8C63.4 639.147 63.96 641.707 63.96 644.48ZM42.12 715.611C40.52 715.611 39.08 715.504 37.8 715.291L37.8 682.891C34.6 683.157 32.0933 684.277 30.28 686.251C28.4667 688.224 27.56 690.651 27.56 693.531C27.56 697.691 29.3467 700.651 32.92 702.411L32.92 714.491C28.6533 713.211 25.1333 710.757 22.36 707.131C19.64 703.504 18.28 699.051 18.28 693.771C18.28 689.504 19.2133 685.664 21.08 682.251C23 678.891 25.6933 676.251 29.16 674.331C32.6267 672.464 36.6267 671.531 41.16 671.531C45.7467 671.531 49.7733 672.464 53.24 674.331C56.7067 676.197 59.3733 678.811 61.24 682.171C63.1067 685.531 64.04 689.397 64.04 693.771C64.04 697.984 63.1333 701.744 61.32 705.051C59.5067 708.411 56.92 710.997 53.56 712.811C50.2533 714.677 46.44 715.611 42.12 715.611ZM45.32 704.011C48.2 703.957 50.4933 702.917 52.2 700.891C53.96 698.864 54.84 696.384 54.84 693.451C54.84 690.677 53.9867 688.331 52.28 686.411C50.6267 684.544 48.3067 683.397 45.32 682.971V704.011ZM63.32 767.226H19V755.946H24.6C22.68 754.506 21.16 752.612 20.04 750.266C18.9733 747.972 18.44 745.466 18.44 742.746C18.44 739.279 19.16 736.212 20.6 733.546C22.0933 730.879 24.2533 728.772 27.08 727.226C29.96 725.732 33.3733 724.986 37.32 724.986H63.32L63.32 736.186H38.92C35.4 736.186 32.68 737.066 30.76 738.826C28.8933 740.586 27.96 742.986 27.96 746.026C27.96 749.119 28.8933 751.546 30.76 753.306C32.68 755.066 35.4 755.946 38.92 755.946H63.32V767.226ZM56.44 791.076C58.7867 792.516 60.6267 794.383 61.96 796.676C63.2933 799.023 63.96 801.69 63.96 804.676H52.2V801.716C52.2 798.196 51.3733 795.53 49.72 793.716C48.0667 791.956 45.1867 791.076 41.08 791.076H19L19 779.876H63.32V791.076H56.44ZM18.28 830.78C18.28 827.153 18.92 823.9 20.2 821.02C21.5333 818.14 23.32 815.847 25.56 814.14C27.8 812.487 30.28 811.58 33 811.42V822.7C31.2933 822.913 29.88 823.74 28.76 825.18C27.64 826.673 27.08 828.513 27.08 830.7C27.08 832.833 27.5067 834.487 28.36 835.66C29.2133 836.887 30.3067 837.5 31.64 837.5C33.08 837.5 34.1467 836.753 34.84 835.26C35.5867 833.82 36.3867 831.5 37.24 828.3C38.04 824.993 38.8667 822.273 39.72 820.14C40.5733 818.06 41.88 816.247 43.64 814.7C45.4 813.207 47.7733 812.46 50.76 812.46C53.2133 812.46 55.4533 813.153 57.48 814.54C59.5067 815.98 61.1067 818.007 62.28 820.62C63.4533 823.287 64.04 826.407 64.04 829.98C64.04 835.26 62.7067 839.473 60.04 842.62C57.4267 845.767 53.88 847.5 49.4 847.82V837.1C51.16 836.94 52.5467 836.193 53.56 834.86C54.6267 833.58 55.16 831.847 55.16 829.66C55.16 827.633 54.7867 826.06 54.04 824.94C53.2933 823.873 52.2533 823.34 50.92 823.34C49.4267 823.34 48.28 824.087 47.48 825.58C46.7333 827.073 45.96 829.393 45.16 832.54C44.36 835.74 43.5333 838.38 42.68 840.46C41.8267 842.54 40.4933 844.327 38.68 845.82C36.92 847.367 34.5733 848.167 31.64 848.22C29.08 848.22 26.7867 847.5 24.76 846.06C22.7333 844.673 21.1333 842.647 19.96 839.98C18.84 837.367 18.28 834.3 18.28 830.78ZM49.88 888.156C52.6533 882.823 56.9467 880.156 62.76 880.156C65.64 880.156 68.2533 880.876 70.6 882.316C73 883.81 74.8933 886.023 76.28 888.956C77.72 891.943 78.44 895.57 78.44 899.836C78.44 904.103 77.72 907.703 76.28 910.636C74.8933 913.623 73 915.836 70.6 917.276C68.2533 918.77 65.64 919.516 62.76 919.516C59.8267 919.516 57.24 918.796 55 917.356C52.8133 915.916 51.1067 913.996 49.88 911.596C48.6 914.53 46.7333 916.823 44.28 918.476C41.8267 920.13 38.92 920.956 35.56 920.956C31.9333 920.956 28.76 920.023 26.04 918.156C23.3733 916.343 21.32 913.836 19.88 910.636C18.44 907.436 17.72 903.836 17.72 899.836C17.72 895.836 18.44 892.236 19.88 889.036C21.32 885.89 23.3733 883.383 26.04 881.516C28.76 879.703 31.9333 878.796 35.56 878.796C38.92 878.796 41.8267 879.623 44.28 881.276C46.7867 882.93 48.6533 885.223 49.88 888.156ZM61.16 908.636C63.7733 908.636 65.8 907.836 67.24 906.236C68.68 904.69 69.4 902.556 69.4 899.836C69.4 897.17 68.68 895.036 67.24 893.436C65.8 891.89 63.7467 891.116 61.08 891.116C58.68 891.116 56.76 891.916 55.32 893.516C53.88 895.17 53.16 897.276 53.16 899.836C53.16 902.396 53.88 904.503 55.32 906.156C56.8133 907.81 58.76 908.636 61.16 908.636ZM45 899.836C45 896.796 44.2267 894.316 42.68 892.396C41.1333 890.53 38.92 889.596 36.04 889.596C33.3733 889.596 31.1867 890.503 29.48 892.316C27.8267 894.183 27 896.69 27 899.836C27 902.983 27.8533 905.463 29.56 907.276C31.2667 909.09 33.4267 909.996 36.04 909.996C38.8667 909.996 41.0533 909.063 42.6 907.196C44.2 905.33 45 902.876 45 899.836ZM18.44 937.642C18.44 935.616 19.0533 933.936 20.28 932.602C21.56 931.322 23.1333 930.682 25 930.682C26.8667 930.682 28.4133 931.322 29.64 932.602C30.92 933.936 31.56 935.616 31.56 937.642C31.56 939.616 30.92 941.242 29.64 942.522C28.4133 943.802 26.8667 944.442 25 944.442C23.1333 944.442 21.56 943.802 20.28 942.522C19.0533 941.242 18.44 939.616 18.44 937.642ZM48.92 953.784C58.1467 953.784 65.3733 955.437 70.6 958.744C75.8267 962.104 78.44 967.65 78.44 975.384C78.44 983.117 75.8267 988.637 70.6 991.944C65.3733 995.304 58.1467 996.984 48.92 996.984C39.64 996.984 32.36 995.304 27.08 991.944C21.8 988.637 19.16 983.117 19.16 975.384C19.16 967.65 21.8 962.104 27.08 958.744C32.36 955.437 39.64 953.784 48.92 953.784ZM48.92 985.944C52.8667 985.944 56.1733 985.677 58.84 985.144C61.56 984.664 63.7733 983.65 65.48 982.104C67.1867 980.61 68.04 978.37 68.04 975.384C68.04 972.397 67.1867 970.13 65.48 968.584C63.7733 967.09 61.56 966.077 58.84 965.544C56.1733 965.064 52.8667 964.824 48.92 964.824C44.8667 964.824 41.4533 965.064 38.68 965.544C35.96 966.024 33.7467 967.037 32.04 968.584C30.3867 970.13 29.56 972.397 29.56 975.384C29.56 978.37 30.3867 980.637 32.04 982.184C33.7467 983.73 35.96 984.744 38.68 985.224C41.4533 985.704 44.8667 985.944 48.92 985.944Z" fill="white" fill-opacity="0.1"/>
<path opacity="0.5" d="M137.84 250H128.8V226.72H114.48V244.56H105.6V226.72L82 226.72V215.52L137.84 215.52V250ZM126.32 301.382H82V290.102H87.6C85.68 288.662 84.16 286.769 83.04 284.422C81.9733 282.129 81.44 279.622 81.44 276.902C81.44 273.435 82.16 270.369 83.6 267.702C85.0933 265.035 87.2533 262.929 90.08 261.382C92.96 259.889 96.3733 259.142 100.32 259.142H126.32L126.32 270.342H101.92C98.4 270.342 95.68 271.222 93.76 272.982C91.8933 274.742 90.96 277.142 90.96 280.182C90.96 283.275 91.8933 285.702 93.76 287.462C95.68 289.222 98.4 290.102 101.92 290.102H126.32V301.382ZM117.12 327.072H95.68C94.1867 327.072 93.0933 327.419 92.4 328.112C91.76 328.859 91.44 330.086 91.44 331.792V336.992H82V329.952C82 320.512 86.5867 315.792 95.76 315.792H117.12V310.512H126.32V315.792H137.28V327.072H126.32V336.992H117.12V327.072ZM126.32 388.488H82V377.208H87.6C85.68 375.768 84.16 373.875 83.04 371.528C81.9733 369.235 81.44 366.728 81.44 364.008C81.44 360.541 82.16 357.475 83.6 354.808C85.0933 352.141 87.2533 350.035 90.08 348.488C92.96 346.995 96.3733 346.248 100.32 346.248H126.32V357.448H101.92C98.4 357.448 95.68 358.328 93.76 360.088C91.8933 361.848 90.96 364.248 90.96 367.288C90.96 370.381 91.8933 372.808 93.76 374.568C95.68 376.328 98.4 377.208 101.92 377.208H126.32V388.488ZM117.12 414.179H95.68C94.1867 414.179 93.0933 414.525 92.4 415.219C91.76 415.965 91.44 417.192 91.44 418.899V424.099H82V417.059C82 407.619 86.5867 402.899 95.76 402.899H117.12V397.619H126.32V402.899H137.28V414.179H126.32L126.32 424.099H117.12V414.179ZM105.12 474.954C103.52 474.954 102.08 474.848 100.8 474.634V442.234C97.6 442.501 95.0933 443.621 93.28 445.594C91.4667 447.568 90.56 449.994 90.56 452.874C90.56 457.034 92.3467 459.994 95.92 461.754V473.834C91.6533 472.554 88.1333 470.101 85.36 466.474C82.64 462.848 81.28 458.394 81.28 453.114C81.28 448.848 82.2133 445.008 84.08 441.594C86 438.234 88.6933 435.594 92.16 433.674C95.6267 431.808 99.6267 430.874 104.16 430.874C108.747 430.874 112.773 431.808 116.24 433.674C119.707 435.541 122.373 438.154 124.24 441.514C126.107 444.874 127.04 448.741 127.04 453.114C127.04 457.328 126.133 461.088 124.32 464.394C122.507 467.754 119.92 470.341 116.56 472.154C113.253 474.021 109.44 474.954 105.12 474.954ZM108.32 463.354C111.2 463.301 113.493 462.261 115.2 460.234C116.96 458.208 117.84 455.728 117.84 452.794C117.84 450.021 116.987 447.674 115.28 445.754C113.627 443.888 111.307 442.741 108.32 442.314V463.354ZM120.56 525.449C117.573 525.449 114.773 524.729 112.16 523.289C109.547 521.903 107.44 519.689 105.84 516.649C104.24 513.663 103.44 509.876 103.44 505.289V495.929H82V484.729H137.84V505.289C137.84 509.609 137.093 513.289 135.6 516.329C134.107 519.369 132.053 521.636 129.44 523.129C126.827 524.676 123.867 525.449 120.56 525.449ZM112.48 504.809C112.48 507.903 113.173 510.196 114.56 511.689C116 513.183 118 513.929 120.56 513.929C126 513.929 128.72 510.889 128.72 504.809V495.929H112.48V504.809ZM119.44 546.201C121.787 547.641 123.627 549.508 124.96 551.801C126.293 554.148 126.96 556.815 126.96 559.801H115.2L115.2 556.841C115.2 553.321 114.373 550.655 112.72 548.841C111.067 547.081 108.187 546.201 104.08 546.201H82V535.001H126.32V546.201H119.44ZM105.12 610.145C103.52 610.145 102.08 610.038 100.8 609.825V577.425C97.6 577.692 95.0933 578.812 93.28 580.785C91.4667 582.758 90.56 585.185 90.56 588.065C90.56 592.225 92.3467 595.185 95.92 596.945V609.025C91.6533 607.745 88.1333 605.292 85.36 601.665C82.64 598.038 81.28 593.585 81.28 588.305C81.28 584.038 82.2133 580.198 84.08 576.785C86 573.425 88.6933 570.785 92.16 568.865C95.6267 566.998 99.6267 566.065 104.16 566.065C108.747 566.065 112.773 566.998 116.24 568.865C119.707 570.732 122.373 573.345 124.24 576.705C126.107 580.065 127.04 583.932 127.04 588.305C127.04 592.518 126.133 596.278 124.32 599.585C122.507 602.945 119.92 605.532 116.56 607.345C113.253 609.212 109.44 610.145 105.12 610.145ZM108.32 598.545C111.2 598.492 113.493 597.452 115.2 595.425C116.96 593.398 117.84 590.918 117.84 587.985C117.84 585.212 116.987 582.865 115.28 580.945C113.627 579.078 111.307 577.932 108.32 577.505V598.545ZM126.96 644.48C126.96 649.76 125.28 654.027 121.92 657.28C118.613 660.533 113.973 662.16 108 662.16H82V650.96H106.48C110 650.96 112.693 650.08 114.56 648.32C116.48 646.56 117.44 644.16 117.44 641.12C117.44 638.027 116.48 635.573 114.56 633.76C112.693 632 110 631.12 106.48 631.12H82V619.92H126.32V631.12H120.8C122.72 632.613 124.213 634.507 125.28 636.8C126.4 639.147 126.96 641.707 126.96 644.48ZM105.12 715.611C103.52 715.611 102.08 715.504 100.8 715.291L100.8 682.891C97.6 683.157 95.0933 684.277 93.28 686.251C91.4667 688.224 90.56 690.651 90.56 693.531C90.56 697.691 92.3467 700.651 95.92 702.411L95.92 714.491C91.6533 713.211 88.1333 710.757 85.36 707.131C82.64 703.504 81.28 699.051 81.28 693.771C81.28 689.504 82.2133 685.664 84.08 682.251C86 678.891 88.6933 676.251 92.16 674.331C95.6267 672.464 99.6267 671.531 104.16 671.531C108.747 671.531 112.773 672.464 116.24 674.331C119.707 676.197 122.373 678.811 124.24 682.171C126.107 685.531 127.04 689.397 127.04 693.771C127.04 697.984 126.133 701.744 124.32 705.051C122.507 708.411 119.92 710.997 116.56 712.811C113.253 714.677 109.44 715.611 105.12 715.611ZM108.32 704.011C111.2 703.957 113.493 702.917 115.2 700.891C116.96 698.864 117.84 696.384 117.84 693.451C117.84 690.677 116.987 688.331 115.28 686.411C113.627 684.544 111.307 683.397 108.32 682.971V704.011ZM126.32 767.226H82V755.946H87.6C85.68 754.506 84.16 752.612 83.04 750.266C81.9733 747.972 81.44 745.466 81.44 742.746C81.44 739.279 82.16 736.212 83.6 733.546C85.0933 730.879 87.2533 728.772 90.08 727.226C92.96 725.732 96.3733 724.986 100.32 724.986H126.32L126.32 736.186H101.92C98.4 736.186 95.68 737.066 93.76 738.826C91.8933 740.586 90.96 742.986 90.96 746.026C90.96 749.119 91.8933 751.546 93.76 753.306C95.68 755.066 98.4 755.946 101.92 755.946H126.32V767.226ZM119.44 791.076C121.787 792.516 123.627 794.383 124.96 796.676C126.293 799.023 126.96 801.69 126.96 804.676H115.2V801.716C115.2 798.196 114.373 795.53 112.72 793.716C111.067 791.956 108.187 791.076 104.08 791.076H82L82 779.876H126.32V791.076H119.44ZM81.28 830.78C81.28 827.153 81.92 823.9 83.2 821.02C84.5333 818.14 86.32 815.847 88.56 814.14C90.8 812.487 93.28 811.58 96 811.42V822.7C94.2933 822.913 92.88 823.74 91.76 825.18C90.64 826.673 90.08 828.513 90.08 830.7C90.08 832.833 90.5067 834.487 91.36 835.66C92.2133 836.887 93.3067 837.5 94.64 837.5C96.08 837.5 97.1467 836.753 97.84 835.26C98.5867 833.82 99.3867 831.5 100.24 828.3C101.04 824.993 101.867 822.273 102.72 820.14C103.573 818.06 104.88 816.247 106.64 814.7C108.4 813.207 110.773 812.46 113.76 812.46C116.213 812.46 118.453 813.153 120.48 814.54C122.507 815.98 124.107 818.007 125.28 820.62C126.453 823.287 127.04 826.407 127.04 829.98C127.04 835.26 125.707 839.473 123.04 842.62C120.427 845.767 116.88 847.5 112.4 847.82V837.1C114.16 836.94 115.547 836.193 116.56 834.86C117.627 833.58 118.16 831.847 118.16 829.66C118.16 827.633 117.787 826.06 117.04 824.94C116.293 823.873 115.253 823.34 113.92 823.34C112.427 823.34 111.28 824.087 110.48 825.58C109.733 827.073 108.96 829.393 108.16 832.54C107.36 835.74 106.533 838.38 105.68 840.46C104.827 842.54 103.493 844.327 101.68 845.82C99.92 847.367 97.5733 848.167 94.64 848.22C92.08 848.22 89.7867 847.5 87.76 846.06C85.7333 844.673 84.1333 842.647 82.96 839.98C81.84 837.367 81.28 834.3 81.28 830.78ZM112.88 888.156C115.653 882.823 119.947 880.156 125.76 880.156C128.64 880.156 131.253 880.876 133.6 882.316C136 883.81 137.893 886.023 139.28 888.956C140.72 891.943 141.44 895.57 141.44 899.836C141.44 904.103 140.72 907.703 139.28 910.636C137.893 913.623 136 915.836 133.6 917.276C131.253 918.77 128.64 919.516 125.76 919.516C122.827 919.516 120.24 918.796 118 917.356C115.813 915.916 114.107 913.996 112.88 911.596C111.6 914.53 109.733 916.823 107.28 918.476C104.827 920.13 101.92 920.956 98.56 920.956C94.9333 920.956 91.76 920.023 89.04 918.156C86.3733 916.343 84.32 913.836 82.88 910.636C81.44 907.436 80.72 903.836 80.72 899.836C80.72 895.836 81.44 892.236 82.88 889.036C84.32 885.89 86.3733 883.383 89.04 881.516C91.76 879.703 94.9333 878.796 98.56 878.796C101.92 878.796 104.827 879.623 107.28 881.276C109.787 882.93 111.653 885.223 112.88 888.156ZM124.16 908.636C126.773 908.636 128.8 907.836 130.24 906.236C131.68 904.69 132.4 902.556 132.4 899.836C132.4 897.17 131.68 895.036 130.24 893.436C128.8 891.89 126.747 891.116 124.08 891.116C121.68 891.116 119.76 891.916 118.32 893.516C116.88 895.17 116.16 897.276 116.16 899.836C116.16 902.396 116.88 904.503 118.32 906.156C119.813 907.81 121.76 908.636 124.16 908.636ZM108 899.836C108 896.796 107.227 894.316 105.68 892.396C104.133 890.53 101.92 889.596 99.04 889.596C96.3733 889.596 94.1867 890.503 92.48 892.316C90.8267 894.183 90 896.69 90 899.836C90 902.983 90.8533 905.463 92.56 907.276C94.2667 909.09 96.4267 909.996 99.04 909.996C101.867 909.996 104.053 909.063 105.6 907.196C107.2 905.33 108 902.876 108 899.836ZM81.44 937.642C81.44 935.616 82.0533 933.936 83.28 932.602C84.56 931.322 86.1333 930.682 88 930.682C89.8667 930.682 91.4133 931.322 92.64 932.602C93.92 933.936 94.56 935.616 94.56 937.642C94.56 939.616 93.92 941.242 92.64 942.522C91.4133 943.802 89.8667 944.442 88 944.442C86.1333 944.442 84.56 943.802 83.28 942.522C82.0533 941.242 81.44 939.616 81.44 937.642ZM111.92 953.784C121.147 953.784 128.373 955.437 133.6 958.744C138.827 962.104 141.44 967.65 141.44 975.384C141.44 983.117 138.827 988.637 133.6 991.944C128.373 995.304 121.147 996.984 111.92 996.984C102.64 996.984 95.36 995.304 90.08 991.944C84.8 988.637 82.16 983.117 82.16 975.384C82.16 967.65 84.8 962.104 90.08 958.744C95.36 955.437 102.64 953.784 111.92 953.784ZM111.92 985.944C115.867 985.944 119.173 985.677 121.84 985.144C124.56 984.664 126.773 983.65 128.48 982.104C130.187 980.61 131.04 978.37 131.04 975.384C131.04 972.397 130.187 970.13 128.48 968.584C126.773 967.09 124.56 966.077 121.84 965.544C119.173 965.064 115.867 964.824 111.92 964.824C107.867 964.824 104.453 965.064 101.68 965.544C98.96 966.024 96.7467 967.037 95.04 968.584C93.3867 970.13 92.56 972.397 92.56 975.384C92.56 978.37 93.3867 980.637 95.04 982.184C96.7467 983.73 98.96 984.744 101.68 985.224C104.453 985.704 107.867 985.944 111.92 985.944Z" fill="white" fill-opacity="0.15"/>
<path opacity="0.5" d="M200.84 250H191.8V226.72H177.48V244.56H168.6V226.72L145 226.72V215.52L200.84 215.52V250ZM189.32 301.382H145V290.102H150.6C148.68 288.662 147.16 286.769 146.04 284.422C144.973 282.129 144.44 279.622 144.44 276.902C144.44 273.435 145.16 270.369 146.6 267.702C148.093 265.035 150.253 262.929 153.08 261.382C155.96 259.889 159.373 259.142 163.32 259.142H189.32V270.342H164.92C161.4 270.342 158.68 271.222 156.76 272.982C154.893 274.742 153.96 277.142 153.96 280.182C153.96 283.275 154.893 285.702 156.76 287.462C158.68 289.222 161.4 290.102 164.92 290.102H189.32V301.382ZM180.12 327.072H158.68C157.187 327.072 156.093 327.419 155.4 328.112C154.76 328.859 154.44 330.086 154.44 331.792V336.992H145V329.952C145 320.512 149.587 315.792 158.76 315.792H180.12V310.512H189.32V315.792H200.28V327.072H189.32V336.992H180.12V327.072ZM189.32 388.488H145V377.208H150.6C148.68 375.768 147.16 373.875 146.04 371.528C144.973 369.235 144.44 366.728 144.44 364.008C144.44 360.541 145.16 357.475 146.6 354.808C148.093 352.141 150.253 350.035 153.08 348.488C155.96 346.995 159.373 346.248 163.32 346.248H189.32V357.448H164.92C161.4 357.448 158.68 358.328 156.76 360.088C154.893 361.848 153.96 364.248 153.96 367.288C153.96 370.381 154.893 372.808 156.76 374.568C158.68 376.328 161.4 377.208 164.92 377.208H189.32V388.488ZM180.12 414.179H158.68C157.187 414.179 156.093 414.525 155.4 415.219C154.76 415.965 154.44 417.192 154.44 418.899V424.099H145V417.059C145 407.619 149.587 402.899 158.76 402.899H180.12V397.619H189.32V402.899H200.28V414.179H189.32L189.32 424.099H180.12V414.179ZM168.12 474.954C166.52 474.954 165.08 474.848 163.8 474.634V442.234C160.6 442.501 158.093 443.621 156.28 445.594C154.467 447.568 153.56 449.994 153.56 452.874C153.56 457.034 155.347 459.994 158.92 461.754V473.834C154.653 472.554 151.133 470.101 148.36 466.474C145.64 462.848 144.28 458.394 144.28 453.114C144.28 448.848 145.213 445.008 147.08 441.594C149 438.234 151.693 435.594 155.16 433.674C158.627 431.808 162.627 430.874 167.16 430.874C171.747 430.874 175.773 431.808 179.24 433.674C182.707 435.541 185.373 438.154 187.24 441.514C189.107 444.874 190.04 448.741 190.04 453.114C190.04 457.328 189.133 461.088 187.32 464.394C185.507 467.754 182.92 470.341 179.56 472.154C176.253 474.021 172.44 474.954 168.12 474.954ZM171.32 463.354C174.2 463.301 176.493 462.261 178.2 460.234C179.96 458.208 180.84 455.728 180.84 452.794C180.84 450.021 179.987 447.674 178.28 445.754C176.627 443.888 174.307 442.741 171.32 442.314V463.354ZM183.56 525.449C180.573 525.449 177.773 524.729 175.16 523.289C172.547 521.903 170.44 519.689 168.84 516.649C167.24 513.663 166.44 509.876 166.44 505.289V495.929H145V484.729H200.84V505.289C200.84 509.609 200.093 513.289 198.6 516.329C197.107 519.369 195.053 521.636 192.44 523.129C189.827 524.676 186.867 525.449 183.56 525.449ZM175.48 504.809C175.48 507.903 176.173 510.196 177.56 511.689C179 513.183 181 513.929 183.56 513.929C189 513.929 191.72 510.889 191.72 504.809V495.929H175.48V504.809ZM182.44 546.201C184.787 547.641 186.627 549.508 187.96 551.801C189.293 554.148 189.96 556.815 189.96 559.801H178.2V556.841C178.2 553.321 177.373 550.655 175.72 548.841C174.067 547.081 171.187 546.201 167.08 546.201H145V535.001H189.32V546.201H182.44ZM168.12 610.145C166.52 610.145 165.08 610.038 163.8 609.825V577.425C160.6 577.692 158.093 578.812 156.28 580.785C154.467 582.758 153.56 585.185 153.56 588.065C153.56 592.225 155.347 595.185 158.92 596.945V609.025C154.653 607.745 151.133 605.292 148.36 601.665C145.64 598.038 144.28 593.585 144.28 588.305C144.28 584.038 145.213 580.198 147.08 576.785C149 573.425 151.693 570.785 155.16 568.865C158.627 566.998 162.627 566.065 167.16 566.065C171.747 566.065 175.773 566.998 179.24 568.865C182.707 570.732 185.373 573.345 187.24 576.705C189.107 580.065 190.04 583.932 190.04 588.305C190.04 592.518 189.133 596.278 187.32 599.585C185.507 602.945 182.92 605.532 179.56 607.345C176.253 609.212 172.44 610.145 168.12 610.145ZM171.32 598.545C174.2 598.492 176.493 597.452 178.2 595.425C179.96 593.398 180.84 590.918 180.84 587.985C180.84 585.212 179.987 582.865 178.28 580.945C176.627 579.078 174.307 577.932 171.32 577.505V598.545ZM189.96 644.48C189.96 649.76 188.28 654.027 184.92 657.28C181.613 660.533 176.973 662.16 171 662.16H145V650.96H169.48C173 650.96 175.693 650.08 177.56 648.32C179.48 646.56 180.44 644.16 180.44 641.12C180.44 638.027 179.48 635.573 177.56 633.76C175.693 632 173 631.12 169.48 631.12H145V619.92H189.32V631.12H183.8C185.72 632.613 187.213 634.507 188.28 636.8C189.4 639.147 189.96 641.707 189.96 644.48ZM168.12 715.611C166.52 715.611 165.08 715.504 163.8 715.291L163.8 682.891C160.6 683.157 158.093 684.277 156.28 686.251C154.467 688.224 153.56 690.651 153.56 693.531C153.56 697.691 155.347 700.651 158.92 702.411L158.92 714.491C154.653 713.211 151.133 710.757 148.36 707.131C145.64 703.504 144.28 699.051 144.28 693.771C144.28 689.504 145.213 685.664 147.08 682.251C149 678.891 151.693 676.251 155.16 674.331C158.627 672.464 162.627 671.531 167.16 671.531C171.747 671.531 175.773 672.464 179.24 674.331C182.707 676.197 185.373 678.811 187.24 682.171C189.107 685.531 190.04 689.397 190.04 693.771C190.04 697.984 189.133 701.744 187.32 705.051C185.507 708.411 182.92 710.997 179.56 712.811C176.253 714.677 172.44 715.611 168.12 715.611ZM171.32 704.011C174.2 703.957 176.493 702.917 178.2 700.891C179.96 698.864 180.84 696.384 180.84 693.451C180.84 690.677 179.987 688.331 178.28 686.411C176.627 684.544 174.307 683.397 171.32 682.971V704.011ZM189.32 767.226H145V755.946H150.6C148.68 754.506 147.16 752.612 146.04 750.266C144.973 747.972 144.44 745.466 144.44 742.746C144.44 739.279 145.16 736.212 146.6 733.546C148.093 730.879 150.253 728.772 153.08 727.226C155.96 725.732 159.373 724.986 163.32 724.986H189.32L189.32 736.186H164.92C161.4 736.186 158.68 737.066 156.76 738.826C154.893 740.586 153.96 742.986 153.96 746.026C153.96 749.119 154.893 751.546 156.76 753.306C158.68 755.066 161.4 755.946 164.92 755.946H189.32V767.226ZM182.44 791.076C184.787 792.516 186.627 794.383 187.96 796.676C189.293 799.023 189.96 801.69 189.96 804.676H178.2V801.716C178.2 798.196 177.373 795.53 175.72 793.716C174.067 791.956 171.187 791.076 167.08 791.076H145V779.876H189.32V791.076H182.44ZM144.28 830.78C144.28 827.153 144.92 823.9 146.2 821.02C147.533 818.14 149.32 815.847 151.56 814.14C153.8 812.487 156.28 811.58 159 811.42V822.7C157.293 822.913 155.88 823.74 154.76 825.18C153.64 826.673 153.08 828.513 153.08 830.7C153.08 832.833 153.507 834.487 154.36 835.66C155.213 836.887 156.307 837.5 157.64 837.5C159.08 837.5 160.147 836.753 160.84 835.26C161.587 833.82 162.387 831.5 163.24 828.3C164.04 824.993 164.867 822.273 165.72 820.14C166.573 818.06 167.88 816.247 169.64 814.7C171.4 813.207 173.773 812.46 176.76 812.46C179.213 812.46 181.453 813.153 183.48 814.54C185.507 815.98 187.107 818.007 188.28 820.62C189.453 823.287 190.04 826.407 190.04 829.98C190.04 835.26 188.707 839.473 186.04 842.62C183.427 845.767 179.88 847.5 175.4 847.82V837.1C177.16 836.94 178.547 836.193 179.56 834.86C180.627 833.58 181.16 831.847 181.16 829.66C181.16 827.633 180.787 826.06 180.04 824.94C179.293 823.873 178.253 823.34 176.92 823.34C175.427 823.34 174.28 824.087 173.48 825.58C172.733 827.073 171.96 829.393 171.16 832.54C170.36 835.74 169.533 838.38 168.68 840.46C167.827 842.54 166.493 844.327 164.68 845.82C162.92 847.367 160.573 848.167 157.64 848.22C155.08 848.22 152.787 847.5 150.76 846.06C148.733 844.673 147.133 842.647 145.96 839.98C144.84 837.367 144.28 834.3 144.28 830.78ZM175.88 888.156C178.653 882.823 182.947 880.156 188.76 880.156C191.64 880.156 194.253 880.876 196.6 882.316C199 883.81 200.893 886.023 202.28 888.956C203.72 891.943 204.44 895.57 204.44 899.836C204.44 904.103 203.72 907.703 202.28 910.636C200.893 913.623 199 915.836 196.6 917.276C194.253 918.77 191.64 919.516 188.76 919.516C185.827 919.516 183.24 918.796 181 917.356C178.813 915.916 177.107 913.996 175.88 911.596C174.6 914.53 172.733 916.823 170.28 918.476C167.827 920.13 164.92 920.956 161.56 920.956C157.933 920.956 154.76 920.023 152.04 918.156C149.373 916.343 147.32 913.836 145.88 910.636C144.44 907.436 143.72 903.836 143.72 899.836C143.72 895.836 144.44 892.236 145.88 889.036C147.32 885.89 149.373 883.383 152.04 881.516C154.76 879.703 157.933 878.796 161.56 878.796C164.92 878.796 167.827 879.623 170.28 881.276C172.787 882.93 174.653 885.223 175.88 888.156ZM187.16 908.636C189.773 908.636 191.8 907.836 193.24 906.236C194.68 904.69 195.4 902.556 195.4 899.836C195.4 897.17 194.68 895.036 193.24 893.436C191.8 891.89 189.747 891.116 187.08 891.116C184.68 891.116 182.76 891.916 181.32 893.516C179.88 895.17 179.16 897.276 179.16 899.836C179.16 902.396 179.88 904.503 181.32 906.156C182.813 907.81 184.76 908.636 187.16 908.636ZM171 899.836C171 896.796 170.227 894.316 168.68 892.396C167.133 890.53 164.92 889.596 162.04 889.596C159.373 889.596 157.187 890.503 155.48 892.316C153.827 894.183 153 896.69 153 899.836C153 902.983 153.853 905.463 155.56 907.276C157.267 909.09 159.427 909.996 162.04 909.996C164.867 909.996 167.053 909.063 168.6 907.196C170.2 905.33 171 902.876 171 899.836ZM144.44 937.642C144.44 935.616 145.053 933.936 146.28 932.602C147.56 931.322 149.133 930.682 151 930.682C152.867 930.682 154.413 931.322 155.64 932.602C156.92 933.936 157.56 935.616 157.56 937.642C157.56 939.616 156.92 941.242 155.64 942.522C154.413 943.802 152.867 944.442 151 944.442C149.133 944.442 147.56 943.802 146.28 942.522C145.053 941.242 144.44 939.616 144.44 937.642ZM174.92 953.784C184.147 953.784 191.373 955.437 196.6 958.744C201.827 962.104 204.44 967.65 204.44 975.384C204.44 983.117 201.827 988.637 196.6 991.944C191.373 995.304 184.147 996.984 174.92 996.984C165.64 996.984 158.36 995.304 153.08 991.944C147.8 988.637 145.16 983.117 145.16 975.384C145.16 967.65 147.8 962.104 153.08 958.744C158.36 955.437 165.64 953.784 174.92 953.784ZM174.92 985.944C178.867 985.944 182.173 985.677 184.84 985.144C187.56 984.664 189.773 983.65 191.48 982.104C193.187 980.61 194.04 978.37 194.04 975.384C194.04 972.397 193.187 970.13 191.48 968.584C189.773 967.09 187.56 966.077 184.84 965.544C182.173 965.064 178.867 964.824 174.92 964.824C170.867 964.824 167.453 965.064 164.68 965.544C161.96 966.024 159.747 967.037 158.04 968.584C156.387 970.13 155.56 972.397 155.56 975.384C155.56 978.37 156.387 980.637 158.04 982.184C159.747 983.73 161.96 984.744 164.68 985.224C167.453 985.704 170.867 985.944 174.92 985.944Z" fill="white" fill-opacity="0.2"/>
<g filter="url(#filter0_f_541_2836)">
<path d="M427.463 579.17C328.921 644.424 198.363 620.798 135.853 526.4C73.3433 432.003 102.553 302.579 201.095 237.325C299.637 172.071 430.196 195.697 492.705 290.095C555.215 384.492 526.005 513.916 427.463 579.17Z" fill="#E69951" fill-opacity="0.33"/>
</g>
<g filter="url(#filter1_f_541_2836)">
<path d="M687.389 652.92C588.847 718.174 458.288 694.548 395.779 600.15C333.269 505.753 362.479 376.329 461.021 311.075C559.563 245.821 690.121 269.447 752.631 363.845C815.141 458.242 785.931 587.666 687.389 652.92Z" fill="#7353E5" fill-opacity="0.7"/>
</g>
<g filter="url(#filter2_f_541_2836)">
<path d="M362.219 868.245C263.677 933.499 133.119 909.873 70.6088 815.476C8.09912 721.078 37.3091 591.654 135.851 526.4C234.393 461.146 364.951 484.772 427.461 579.17C489.971 673.568 460.761 802.991 362.219 868.245Z" fill="#BF3EC3" fill-opacity="0.43"/>
</g>
<defs>
<filter id="filter0_f_541_2836" x="-97.0449" y="0.443848" width="822.648" height="815.607" filterUnits="userSpaceOnUse" color-interpolation-filters="sRGB">
<feFlood flood-opacity="0" result="BackgroundImageFix"/>
<feBlend mode="normal" in="SourceGraphic" in2="BackgroundImageFix" result="shape"/>
<feGaussianBlur stdDeviation="100" result="effect1_foregroundBlur_541_2836"/>
</filter>
<filter id="filter1_f_541_2836" x="162.881" y="74.1938" width="822.648" height="815.607" filterUnits="userSpaceOnUse" color-interpolation-filters="sRGB">
<feFlood flood-opacity="0" result="BackgroundImageFix"/>
<feBlend mode="normal" in="SourceGraphic" in2="BackgroundImageFix" result="shape"/>
<feGaussianBlur stdDeviation="100" result="effect1_foregroundBlur_541_2836"/>
</filter>
<filter id="filter2_f_541_2836" x="-162.289" y="289.519" width="822.648" height="815.607" filterUnits="userSpaceOnUse" color-interpolation-filters="sRGB">
<feFlood flood-opacity="0" result="BackgroundImageFix"/>
<feBlend mode="normal" in="SourceGraphic" in2="BackgroundImageFix" result="shape"/>
<feGaussianBlur stdDeviation="100" result="effect1_foregroundBlur_541_2836"/>
</filter>
</defs>
</svg>
