<svg width="1007" height="990" viewBox="0 0 1007 990" fill="none" xmlns="http://www.w3.org/2000/svg">
<path opacity="0.5" d="M74.84 162H65.8V138.72H51.48V156.56H42.6V138.72L19 138.72V127.52H74.84V162ZM63.32 213.382H19V202.102H24.6C22.68 200.662 21.16 198.769 20.04 196.422C18.9733 194.129 18.44 191.622 18.44 188.902C18.44 185.435 19.16 182.369 20.6 179.702C22.0933 177.035 24.2533 174.929 27.08 173.382C29.96 171.889 33.3733 171.142 37.32 171.142H63.32L63.32 182.342H38.92C35.4 182.342 32.68 183.222 30.76 184.982C28.8933 186.742 27.96 189.142 27.96 192.182C27.96 195.275 28.8933 197.702 30.76 199.462C32.68 201.222 35.4 202.102 38.92 202.102H63.32V213.382ZM54.12 239.072H32.68C31.1867 239.072 30.0933 239.419 29.4 240.112C28.76 240.859 28.44 242.086 28.44 243.792V248.992H19V241.952C19 232.512 23.5867 227.792 32.76 227.792H54.12V222.512H63.32V227.792H74.28V239.072H63.32V248.992H54.12V239.072ZM63.32 300.488H19V289.208H24.6C22.68 287.768 21.16 285.875 20.04 283.528C18.9733 281.235 18.44 278.728 18.44 276.008C18.44 272.541 19.16 269.475 20.6 266.808C22.0933 264.141 24.2533 262.035 27.08 260.488C29.96 258.995 33.3733 258.248 37.32 258.248H63.32V269.448H38.92C35.4 269.448 32.68 270.328 30.76 272.088C28.8933 273.848 27.96 276.248 27.96 279.288C27.96 282.381 28.8933 284.808 30.76 286.568C32.68 288.328 35.4 289.208 38.92 289.208H63.32L63.32 300.488ZM56.44 324.339C58.7867 325.779 60.6267 327.645 61.96 329.939C63.2933 332.285 63.96 334.952 63.96 337.939H52.2V334.979C52.2 331.459 51.3733 328.792 49.72 326.979C48.0667 325.219 45.1867 324.339 41.08 324.339H19L19 313.139H63.32V324.339H56.44ZM42.12 388.283C40.52 388.283 39.08 388.176 37.8 387.963V355.563C34.6 355.829 32.0933 356.949 30.28 358.923C28.4667 360.896 27.56 363.323 27.56 366.203C27.56 370.363 29.3467 373.323 32.92 375.083V387.163C28.6533 385.883 25.1333 383.429 22.36 379.803C19.64 376.176 18.28 371.723 18.28 366.443C18.28 362.176 19.2133 358.336 21.08 354.923C23 351.563 25.6933 348.923 29.16 347.003C32.6267 345.136 36.6267 344.202 41.16 344.202C45.7467 344.202 49.7733 345.136 53.24 347.003C56.7067 348.869 59.3733 351.483 61.24 354.843C63.1067 358.203 64.04 362.069 64.04 366.443C64.04 370.656 63.1333 374.416 61.32 377.723C59.5067 381.083 56.92 383.669 53.56 385.483C50.2533 387.349 46.44 388.283 42.12 388.283ZM45.32 376.683C48.2 376.629 50.4933 375.589 52.2 373.563C53.96 371.536 54.84 369.056 54.84 366.123C54.84 363.349 53.9867 361.003 52.28 359.083C50.6267 357.216 48.3067 356.069 45.32 355.643V376.683ZM57.56 438.778C54.5733 438.778 51.7733 438.058 49.16 436.618C46.5467 435.231 44.44 433.018 42.84 429.978C41.24 426.991 40.44 423.204 40.44 418.618V409.258H19V398.058H74.84V418.618C74.84 422.938 74.0933 426.618 72.6 429.658C71.1067 432.698 69.0533 434.964 66.44 436.458C63.8267 438.004 60.8667 438.778 57.56 438.778ZM49.48 418.138C49.48 421.231 50.1733 423.524 51.56 425.018C53 426.511 55 427.258 57.56 427.258C63 427.258 65.72 424.218 65.72 418.138V409.258H49.48V418.138ZM56.44 459.529C58.7867 460.969 60.6267 462.836 61.96 465.129C63.2933 467.476 63.96 470.143 63.96 473.129H52.2V470.169C52.2 466.649 51.3733 463.983 49.72 462.169C48.0667 460.409 45.1867 459.529 41.08 459.529H19V448.329H63.32L63.32 459.529H56.44ZM42.12 523.473C40.52 523.473 39.08 523.366 37.8 523.153V490.753C34.6 491.02 32.0933 492.14 30.28 494.113C28.4667 496.086 27.56 498.513 27.56 501.393C27.56 505.553 29.3467 508.513 32.92 510.273V522.353C28.6533 521.073 25.1333 518.62 22.36 514.993C19.64 511.366 18.28 506.913 18.28 501.633C18.28 497.366 19.2133 493.526 21.08 490.113C23 486.753 25.6933 484.113 29.16 482.193C32.6267 480.326 36.6267 479.393 41.16 479.393C45.7467 479.393 49.7733 480.326 53.24 482.193C56.7067 484.06 59.3733 486.673 61.24 490.033C63.1067 493.393 64.04 497.26 64.04 501.633C64.04 505.846 63.1333 509.606 61.32 512.913C59.5067 516.273 56.92 518.86 53.56 520.673C50.2533 522.54 46.44 523.473 42.12 523.473ZM45.32 511.873C48.2 511.82 50.4933 510.78 52.2 508.753C53.96 506.726 54.84 504.246 54.84 501.313C54.84 498.54 53.9867 496.193 52.28 494.273C50.6267 492.406 48.3067 491.26 45.32 490.833V511.873ZM63.96 557.808C63.96 563.088 62.28 567.355 58.92 570.608C55.6133 573.861 50.9733 575.488 45 575.488H19V564.288H43.48C47 564.288 49.6933 563.408 51.56 561.648C53.48 559.888 54.44 557.488 54.44 554.448C54.44 551.355 53.48 548.901 51.56 547.088C49.6933 545.328 47 544.448 43.48 544.448H19V533.248H63.32V544.448H57.8C59.72 545.941 61.2133 547.835 62.28 550.128C63.4 552.475 63.96 555.035 63.96 557.808ZM42.12 628.939C40.52 628.939 39.08 628.832 37.8 628.619L37.8 596.219C34.6 596.485 32.0933 597.605 30.28 599.579C28.4667 601.552 27.56 603.979 27.56 606.859C27.56 611.019 29.3467 613.979 32.92 615.739L32.92 627.819C28.6533 626.539 25.1333 624.085 22.36 620.459C19.64 616.832 18.28 612.379 18.28 607.099C18.28 602.832 19.2133 598.992 21.08 595.579C23 592.219 25.6933 589.579 29.16 587.659C32.6267 585.792 36.6267 584.859 41.16 584.859C45.7467 584.859 49.7733 585.792 53.24 587.659C56.7067 589.525 59.3733 592.139 61.24 595.499C63.1067 598.859 64.04 602.725 64.04 607.099C64.04 611.312 63.1333 615.072 61.32 618.379C59.5067 621.739 56.92 624.325 53.56 626.139C50.2533 628.005 46.44 628.939 42.12 628.939ZM45.32 617.339C48.2 617.285 50.4933 616.245 52.2 614.219C53.96 612.192 54.84 609.712 54.84 606.779C54.84 604.005 53.9867 601.659 52.28 599.739C50.6267 597.872 48.3067 596.725 45.32 596.299V617.339ZM63.32 680.554H19V669.274H24.6C22.68 667.834 21.16 665.94 20.04 663.594C18.9733 661.3 18.44 658.794 18.44 656.074C18.44 652.607 19.16 649.54 20.6 646.874C22.0933 644.207 24.2533 642.1 27.08 640.554C29.96 639.06 33.3733 638.314 37.32 638.314H63.32L63.32 649.514H38.92C35.4 649.514 32.68 650.394 30.76 652.154C28.8933 653.914 27.96 656.314 27.96 659.354C27.96 662.447 28.8933 664.874 30.76 666.634C32.68 668.394 35.4 669.274 38.92 669.274H63.32V680.554ZM56.44 704.404C58.7867 705.844 60.6267 707.711 61.96 710.004C63.2933 712.351 63.96 715.018 63.96 718.004H52.2V715.044C52.2 711.524 51.3733 708.858 49.72 707.044C48.0667 705.284 45.1867 704.404 41.08 704.404H19L19 693.204H63.32V704.404H56.44ZM18.28 744.108C18.28 740.481 18.92 737.228 20.2 734.348C21.5333 731.468 23.32 729.175 25.56 727.468C27.8 725.815 30.28 724.908 33 724.748V736.028C31.2933 736.241 29.88 737.068 28.76 738.508C27.64 740.001 27.08 741.841 27.08 744.028C27.08 746.161 27.5067 747.815 28.36 748.988C29.2133 750.215 30.3067 750.828 31.64 750.828C33.08 750.828 34.1467 750.081 34.84 748.588C35.5867 747.148 36.3867 744.828 37.24 741.628C38.04 738.321 38.8667 735.601 39.72 733.468C40.5733 731.388 41.88 729.575 43.64 728.028C45.4 726.535 47.7733 725.788 50.76 725.788C53.2133 725.788 55.4533 726.481 57.48 727.868C59.5067 729.308 61.1067 731.335 62.28 733.948C63.4533 736.615 64.04 739.735 64.04 743.308C64.04 748.588 62.7067 752.801 60.04 755.948C57.4267 759.095 53.88 760.828 49.4 761.148V750.428C51.16 750.268 52.5467 749.521 53.56 748.188C54.6267 746.908 55.16 745.175 55.16 742.988C55.16 740.961 54.7867 739.388 54.04 738.268C53.2933 737.201 52.2533 736.668 50.92 736.668C49.4267 736.668 48.28 737.415 47.48 738.908C46.7333 740.401 45.96 742.721 45.16 745.868C44.36 749.068 43.5333 751.708 42.68 753.788C41.8267 755.868 40.4933 757.655 38.68 759.148C36.92 760.695 34.5733 761.495 31.64 761.548C29.08 761.548 26.7867 760.828 24.76 759.388C22.7333 758.001 21.1333 755.975 19.96 753.308C18.84 750.695 18.28 747.628 18.28 744.108ZM49.88 801.484C52.6533 796.151 56.9467 793.484 62.76 793.484C65.64 793.484 68.2533 794.204 70.6 795.644C73 797.138 74.8933 799.351 76.28 802.284C77.72 805.271 78.44 808.898 78.44 813.164C78.44 817.431 77.72 821.031 76.28 823.964C74.8933 826.951 73 829.164 70.6 830.604C68.2533 832.098 65.64 832.844 62.76 832.844C59.8267 832.844 57.24 832.124 55 830.684C52.8133 829.244 51.1067 827.324 49.88 824.924C48.6 827.858 46.7333 830.151 44.28 831.804C41.8267 833.458 38.92 834.284 35.56 834.284C31.9333 834.284 28.76 833.351 26.04 831.484C23.3733 829.671 21.32 827.164 19.88 823.964C18.44 820.764 17.72 817.164 17.72 813.164C17.72 809.164 18.44 805.564 19.88 802.364C21.32 799.218 23.3733 796.711 26.04 794.844C28.76 793.031 31.9333 792.124 35.56 792.124C38.92 792.124 41.8267 792.951 44.28 794.604C46.7867 796.258 48.6533 798.551 49.88 801.484ZM61.16 821.964C63.7733 821.964 65.8 821.164 67.24 819.564C68.68 818.018 69.4 815.884 69.4 813.164C69.4 810.498 68.68 808.364 67.24 806.764C65.8 805.218 63.7467 804.444 61.08 804.444C58.68 804.444 56.76 805.244 55.32 806.844C53.88 808.498 53.16 810.604 53.16 813.164C53.16 815.724 53.88 817.831 55.32 819.484C56.8133 821.138 58.76 821.964 61.16 821.964ZM45 813.164C45 810.124 44.2267 807.644 42.68 805.724C41.1333 803.858 38.92 802.924 36.04 802.924C33.3733 802.924 31.1867 803.831 29.48 805.644C27.8267 807.511 27 810.018 27 813.164C27 816.311 27.8533 818.791 29.56 820.604C31.2667 822.418 33.4267 823.324 36.04 823.324C38.8667 823.324 41.0533 822.391 42.6 820.524C44.2 818.658 45 816.204 45 813.164ZM18.44 850.971C18.44 848.944 19.0533 847.264 20.28 845.931C21.56 844.651 23.1333 844.011 25 844.011C26.8667 844.011 28.4133 844.651 29.64 845.931C30.92 847.264 31.56 848.944 31.56 850.971C31.56 852.944 30.92 854.571 29.64 855.851C28.4133 857.131 26.8667 857.771 25 857.771C23.1333 857.771 21.56 857.131 20.28 855.851C19.0533 854.571 18.44 852.944 18.44 850.971ZM48.92 867.112C58.1467 867.112 65.3733 868.765 70.6 872.072C75.8267 875.432 78.44 880.979 78.44 888.712C78.44 896.445 75.8267 901.965 70.6 905.272C65.3733 908.632 58.1467 910.312 48.92 910.312C39.64 910.312 32.36 908.632 27.08 905.272C21.8 901.965 19.16 896.445 19.16 888.712C19.16 880.979 21.8 875.432 27.08 872.072C32.36 868.765 39.64 867.112 48.92 867.112ZM48.92 899.272C52.8667 899.272 56.1733 899.005 58.84 898.472C61.56 897.992 63.7733 896.979 65.48 895.432C67.1867 893.939 68.04 891.699 68.04 888.712C68.04 885.725 67.1867 883.459 65.48 881.912C63.7733 880.419 61.56 879.405 58.84 878.872C56.1733 878.392 52.8667 878.152 48.92 878.152C44.8667 878.152 41.4533 878.392 38.68 878.872C35.96 879.352 33.7467 880.365 32.04 881.912C30.3867 883.459 29.56 885.725 29.56 888.712C29.56 891.699 30.3867 893.965 32.04 895.512C33.7467 897.059 35.96 898.072 38.68 898.552C41.4533 899.032 44.8667 899.272 48.92 899.272Z" fill="white" fill-opacity="0.1"/>
<path opacity="0.5" d="M143.84 162H134.8V138.72H120.48V156.56H111.6V138.72L88 138.72V127.52H143.84V162ZM132.32 213.382H88V202.102H93.6C91.68 200.662 90.16 198.769 89.04 196.422C87.9733 194.129 87.44 191.622 87.44 188.902C87.44 185.435 88.16 182.369 89.6 179.702C91.0933 177.035 93.2533 174.929 96.08 173.382C98.96 171.889 102.373 171.142 106.32 171.142H132.32V182.342H107.92C104.4 182.342 101.68 183.222 99.76 184.982C97.8933 186.742 96.96 189.142 96.96 192.182C96.96 195.275 97.8933 197.702 99.76 199.462C101.68 201.222 104.4 202.102 107.92 202.102H132.32V213.382ZM123.12 239.072H101.68C100.187 239.072 99.0933 239.419 98.4 240.112C97.76 240.859 97.44 242.086 97.44 243.792V248.992H88V241.952C88 232.512 92.5867 227.792 101.76 227.792H123.12V222.512H132.32V227.792H143.28V239.072H132.32V248.992H123.12V239.072ZM132.32 300.488H88V289.208H93.6C91.68 287.768 90.16 285.875 89.04 283.528C87.9733 281.235 87.44 278.728 87.44 276.008C87.44 272.541 88.16 269.475 89.6 266.808C91.0933 264.141 93.2533 262.035 96.08 260.488C98.96 258.995 102.373 258.248 106.32 258.248H132.32V269.448H107.92C104.4 269.448 101.68 270.328 99.76 272.088C97.8933 273.848 96.96 276.248 96.96 279.288C96.96 282.381 97.8933 284.808 99.76 286.568C101.68 288.328 104.4 289.208 107.92 289.208H132.32V300.488ZM125.44 324.339C127.787 325.779 129.627 327.645 130.96 329.939C132.293 332.285 132.96 334.952 132.96 337.939H121.2V334.979C121.2 331.459 120.373 328.792 118.72 326.979C117.067 325.219 114.187 324.339 110.08 324.339H88L88 313.139H132.32V324.339H125.44ZM111.12 388.283C109.52 388.283 108.08 388.176 106.8 387.963V355.563C103.6 355.829 101.093 356.949 99.28 358.923C97.4667 360.896 96.56 363.323 96.56 366.203C96.56 370.363 98.3467 373.323 101.92 375.083V387.163C97.6533 385.883 94.1333 383.429 91.36 379.803C88.64 376.176 87.28 371.723 87.28 366.443C87.28 362.176 88.2133 358.336 90.08 354.923C92 351.563 94.6933 348.923 98.16 347.003C101.627 345.136 105.627 344.202 110.16 344.202C114.747 344.202 118.773 345.136 122.24 347.003C125.707 348.869 128.373 351.483 130.24 354.843C132.107 358.203 133.04 362.069 133.04 366.443C133.04 370.656 132.133 374.416 130.32 377.723C128.507 381.083 125.92 383.669 122.56 385.483C119.253 387.349 115.44 388.283 111.12 388.283ZM114.32 376.683C117.2 376.629 119.493 375.589 121.2 373.563C122.96 371.536 123.84 369.056 123.84 366.123C123.84 363.349 122.987 361.003 121.28 359.083C119.627 357.216 117.307 356.069 114.32 355.643V376.683ZM126.56 438.778C123.573 438.778 120.773 438.058 118.16 436.618C115.547 435.231 113.44 433.018 111.84 429.978C110.24 426.991 109.44 423.204 109.44 418.618V409.258H88V398.058H143.84V418.618C143.84 422.938 143.093 426.618 141.6 429.658C140.107 432.698 138.053 434.964 135.44 436.458C132.827 438.004 129.867 438.778 126.56 438.778ZM118.48 418.138C118.48 421.231 119.173 423.524 120.56 425.018C122 426.511 124 427.258 126.56 427.258C132 427.258 134.72 424.218 134.72 418.138V409.258H118.48V418.138ZM125.44 459.529C127.787 460.969 129.627 462.836 130.96 465.129C132.293 467.476 132.96 470.143 132.96 473.129H121.2V470.169C121.2 466.649 120.373 463.983 118.72 462.169C117.067 460.409 114.187 459.529 110.08 459.529H88V448.329H132.32V459.529H125.44ZM111.12 523.473C109.52 523.473 108.08 523.366 106.8 523.153V490.753C103.6 491.02 101.093 492.14 99.28 494.113C97.4667 496.086 96.56 498.513 96.56 501.393C96.56 505.553 98.3467 508.513 101.92 510.273V522.353C97.6533 521.073 94.1333 518.62 91.36 514.993C88.64 511.366 87.28 506.913 87.28 501.633C87.28 497.366 88.2133 493.526 90.08 490.113C92 486.753 94.6933 484.113 98.16 482.193C101.627 480.326 105.627 479.393 110.16 479.393C114.747 479.393 118.773 480.326 122.24 482.193C125.707 484.06 128.373 486.673 130.24 490.033C132.107 493.393 133.04 497.26 133.04 501.633C133.04 505.846 132.133 509.606 130.32 512.913C128.507 516.273 125.92 518.86 122.56 520.673C119.253 522.54 115.44 523.473 111.12 523.473ZM114.32 511.873C117.2 511.82 119.493 510.78 121.2 508.753C122.96 506.726 123.84 504.246 123.84 501.313C123.84 498.54 122.987 496.193 121.28 494.273C119.627 492.406 117.307 491.26 114.32 490.833V511.873ZM132.96 557.808C132.96 563.088 131.28 567.355 127.92 570.608C124.613 573.861 119.973 575.488 114 575.488H88V564.288H112.48C116 564.288 118.693 563.408 120.56 561.648C122.48 559.888 123.44 557.488 123.44 554.448C123.44 551.355 122.48 548.901 120.56 547.088C118.693 545.328 116 544.448 112.48 544.448H88V533.248H132.32V544.448H126.8C128.72 545.941 130.213 547.835 131.28 550.128C132.4 552.475 132.96 555.035 132.96 557.808ZM111.12 628.939C109.52 628.939 108.08 628.832 106.8 628.619L106.8 596.219C103.6 596.485 101.093 597.605 99.28 599.579C97.4667 601.552 96.56 603.979 96.56 606.859C96.56 611.019 98.3467 613.979 101.92 615.739L101.92 627.819C97.6533 626.539 94.1333 624.085 91.36 620.459C88.64 616.832 87.28 612.379 87.28 607.099C87.28 602.832 88.2133 598.992 90.08 595.579C92 592.219 94.6933 589.579 98.16 587.659C101.627 585.792 105.627 584.859 110.16 584.859C114.747 584.859 118.773 585.792 122.24 587.659C125.707 589.525 128.373 592.139 130.24 595.499C132.107 598.859 133.04 602.725 133.04 607.099C133.04 611.312 132.133 615.072 130.32 618.379C128.507 621.739 125.92 624.325 122.56 626.139C119.253 628.005 115.44 628.939 111.12 628.939ZM114.32 617.339C117.2 617.285 119.493 616.245 121.2 614.219C122.96 612.192 123.84 609.712 123.84 606.779C123.84 604.005 122.987 601.659 121.28 599.739C119.627 597.872 117.307 596.725 114.32 596.299V617.339ZM132.32 680.554H88V669.274H93.6C91.68 667.834 90.16 665.94 89.04 663.594C87.9733 661.3 87.44 658.794 87.44 656.074C87.44 652.607 88.16 649.54 89.6 646.874C91.0933 644.207 93.2533 642.1 96.08 640.554C98.96 639.06 102.373 638.314 106.32 638.314H132.32L132.32 649.514H107.92C104.4 649.514 101.68 650.394 99.76 652.154C97.8933 653.914 96.96 656.314 96.96 659.354C96.96 662.447 97.8933 664.874 99.76 666.634C101.68 668.394 104.4 669.274 107.92 669.274H132.32V680.554ZM125.44 704.404C127.787 705.844 129.627 707.711 130.96 710.004C132.293 712.351 132.96 715.018 132.96 718.004H121.2V715.044C121.2 711.524 120.373 708.858 118.72 707.044C117.067 705.284 114.187 704.404 110.08 704.404H88L88 693.204H132.32V704.404H125.44ZM87.28 744.108C87.28 740.481 87.92 737.228 89.2 734.348C90.5333 731.468 92.32 729.175 94.56 727.468C96.8 725.815 99.28 724.908 102 724.748V736.028C100.293 736.241 98.88 737.068 97.76 738.508C96.64 740.001 96.08 741.841 96.08 744.028C96.08 746.161 96.5067 747.815 97.36 748.988C98.2133 750.215 99.3067 750.828 100.64 750.828C102.08 750.828 103.147 750.081 103.84 748.588C104.587 747.148 105.387 744.828 106.24 741.628C107.04 738.321 107.867 735.601 108.72 733.468C109.573 731.388 110.88 729.575 112.64 728.028C114.4 726.535 116.773 725.788 119.76 725.788C122.213 725.788 124.453 726.481 126.48 727.868C128.507 729.308 130.107 731.335 131.28 733.948C132.453 736.615 133.04 739.735 133.04 743.308C133.04 748.588 131.707 752.801 129.04 755.948C126.427 759.095 122.88 760.828 118.4 761.148V750.428C120.16 750.268 121.547 749.521 122.56 748.188C123.627 746.908 124.16 745.175 124.16 742.988C124.16 740.961 123.787 739.388 123.04 738.268C122.293 737.201 121.253 736.668 119.92 736.668C118.427 736.668 117.28 737.415 116.48 738.908C115.733 740.401 114.96 742.721 114.16 745.868C113.36 749.068 112.533 751.708 111.68 753.788C110.827 755.868 109.493 757.655 107.68 759.148C105.92 760.695 103.573 761.495 100.64 761.548C98.08 761.548 95.7867 760.828 93.76 759.388C91.7333 758.001 90.1333 755.975 88.96 753.308C87.84 750.695 87.28 747.628 87.28 744.108ZM118.88 801.484C121.653 796.151 125.947 793.484 131.76 793.484C134.64 793.484 137.253 794.204 139.6 795.644C142 797.138 143.893 799.351 145.28 802.284C146.72 805.271 147.44 808.898 147.44 813.164C147.44 817.431 146.72 821.031 145.28 823.964C143.893 826.951 142 829.164 139.6 830.604C137.253 832.098 134.64 832.844 131.76 832.844C128.827 832.844 126.24 832.124 124 830.684C121.813 829.244 120.107 827.324 118.88 824.924C117.6 827.858 115.733 830.151 113.28 831.804C110.827 833.458 107.92 834.284 104.56 834.284C100.933 834.284 97.76 833.351 95.04 831.484C92.3733 829.671 90.32 827.164 88.88 823.964C87.44 820.764 86.72 817.164 86.72 813.164C86.72 809.164 87.44 805.564 88.88 802.364C90.32 799.218 92.3733 796.711 95.04 794.844C97.76 793.031 100.933 792.124 104.56 792.124C107.92 792.124 110.827 792.951 113.28 794.604C115.787 796.258 117.653 798.551 118.88 801.484ZM130.16 821.964C132.773 821.964 134.8 821.164 136.24 819.564C137.68 818.018 138.4 815.884 138.4 813.164C138.4 810.498 137.68 808.364 136.24 806.764C134.8 805.218 132.747 804.444 130.08 804.444C127.68 804.444 125.76 805.244 124.32 806.844C122.88 808.498 122.16 810.604 122.16 813.164C122.16 815.724 122.88 817.831 124.32 819.484C125.813 821.138 127.76 821.964 130.16 821.964ZM114 813.164C114 810.124 113.227 807.644 111.68 805.724C110.133 803.858 107.92 802.924 105.04 802.924C102.373 802.924 100.187 803.831 98.48 805.644C96.8267 807.511 96 810.018 96 813.164C96 816.311 96.8533 818.791 98.56 820.604C100.267 822.418 102.427 823.324 105.04 823.324C107.867 823.324 110.053 822.391 111.6 820.524C113.2 818.658 114 816.204 114 813.164ZM87.44 850.971C87.44 848.944 88.0533 847.264 89.28 845.931C90.56 844.651 92.1333 844.011 94 844.011C95.8667 844.011 97.4133 844.651 98.64 845.931C99.92 847.264 100.56 848.944 100.56 850.971C100.56 852.944 99.92 854.571 98.64 855.851C97.4133 857.131 95.8667 857.771 94 857.771C92.1333 857.771 90.56 857.131 89.28 855.851C88.0533 854.571 87.44 852.944 87.44 850.971ZM117.92 867.112C127.147 867.112 134.373 868.765 139.6 872.072C144.827 875.432 147.44 880.979 147.44 888.712C147.44 896.445 144.827 901.965 139.6 905.272C134.373 908.632 127.147 910.312 117.92 910.312C108.64 910.312 101.36 908.632 96.08 905.272C90.8 901.965 88.16 896.445 88.16 888.712C88.16 880.979 90.8 875.432 96.08 872.072C101.36 868.765 108.64 867.112 117.92 867.112ZM117.92 899.272C121.867 899.272 125.173 899.005 127.84 898.472C130.56 897.992 132.773 896.979 134.48 895.432C136.187 893.939 137.04 891.699 137.04 888.712C137.04 885.725 136.187 883.459 134.48 881.912C132.773 880.419 130.56 879.405 127.84 878.872C125.173 878.392 121.867 878.152 117.92 878.152C113.867 878.152 110.453 878.392 107.68 878.872C104.96 879.352 102.747 880.365 101.04 881.912C99.3867 883.459 98.56 885.725 98.56 888.712C98.56 891.699 99.3867 893.965 101.04 895.512C102.747 897.059 104.96 898.072 107.68 898.552C110.453 899.032 113.867 899.272 117.92 899.272Z" fill="white" fill-opacity="0.15"/>
<path opacity="0.5" d="M212.84 162H203.8V138.72H189.48V156.56H180.6V138.72L157 138.72V127.52H212.84V162ZM201.32 213.382H157V202.102H162.6C160.68 200.662 159.16 198.769 158.04 196.422C156.973 194.129 156.44 191.622 156.44 188.902C156.44 185.435 157.16 182.369 158.6 179.702C160.093 177.035 162.253 174.929 165.08 173.382C167.96 171.889 171.373 171.142 175.32 171.142H201.32V182.342H176.92C173.4 182.342 170.68 183.222 168.76 184.982C166.893 186.742 165.96 189.142 165.96 192.182C165.96 195.275 166.893 197.702 168.76 199.462C170.68 201.222 173.4 202.102 176.92 202.102H201.32V213.382ZM192.12 239.072H170.68C169.187 239.072 168.093 239.419 167.4 240.112C166.76 240.859 166.44 242.086 166.44 243.792V248.992H157V241.952C157 232.512 161.587 227.792 170.76 227.792H192.12V222.512H201.32V227.792H212.28V239.072H201.32V248.992H192.12V239.072ZM201.32 300.488H157V289.208H162.6C160.68 287.768 159.16 285.875 158.04 283.528C156.973 281.235 156.44 278.728 156.44 276.008C156.44 272.541 157.16 269.475 158.6 266.808C160.093 264.141 162.253 262.035 165.08 260.488C167.96 258.995 171.373 258.248 175.32 258.248H201.32V269.448H176.92C173.4 269.448 170.68 270.328 168.76 272.088C166.893 273.848 165.96 276.248 165.96 279.288C165.96 282.381 166.893 284.808 168.76 286.568C170.68 288.328 173.4 289.208 176.92 289.208H201.32V300.488ZM194.44 324.339C196.787 325.779 198.627 327.645 199.96 329.939C201.293 332.285 201.96 334.952 201.96 337.939H190.2V334.979C190.2 331.459 189.373 328.792 187.72 326.979C186.067 325.219 183.187 324.339 179.08 324.339H157L157 313.139H201.32V324.339H194.44ZM180.12 388.283C178.52 388.283 177.08 388.176 175.8 387.963V355.563C172.6 355.829 170.093 356.949 168.28 358.923C166.467 360.896 165.56 363.323 165.56 366.203C165.56 370.363 167.347 373.323 170.92 375.083V387.163C166.653 385.883 163.133 383.429 160.36 379.803C157.64 376.176 156.28 371.723 156.28 366.443C156.28 362.176 157.213 358.336 159.08 354.923C161 351.563 163.693 348.923 167.16 347.003C170.627 345.136 174.627 344.202 179.16 344.202C183.747 344.202 187.773 345.136 191.24 347.003C194.707 348.869 197.373 351.483 199.24 354.843C201.107 358.203 202.04 362.069 202.04 366.443C202.04 370.656 201.133 374.416 199.32 377.723C197.507 381.083 194.92 383.669 191.56 385.483C188.253 387.349 184.44 388.283 180.12 388.283ZM183.32 376.683C186.2 376.629 188.493 375.589 190.2 373.563C191.96 371.536 192.84 369.056 192.84 366.123C192.84 363.349 191.987 361.003 190.28 359.083C188.627 357.216 186.307 356.069 183.32 355.643V376.683ZM195.56 438.778C192.573 438.778 189.773 438.058 187.16 436.618C184.547 435.231 182.44 433.018 180.84 429.978C179.24 426.991 178.44 423.204 178.44 418.618V409.258H157V398.058H212.84V418.618C212.84 422.938 212.093 426.618 210.6 429.658C209.107 432.698 207.053 434.964 204.44 436.458C201.827 438.004 198.867 438.778 195.56 438.778ZM187.48 418.138C187.48 421.231 188.173 423.524 189.56 425.018C191 426.511 193 427.258 195.56 427.258C201 427.258 203.72 424.218 203.72 418.138V409.258H187.48V418.138ZM194.44 459.529C196.787 460.969 198.627 462.836 199.96 465.129C201.293 467.476 201.96 470.143 201.96 473.129H190.2V470.169C190.2 466.649 189.373 463.983 187.72 462.169C186.067 460.409 183.187 459.529 179.08 459.529H157V448.329H201.32V459.529H194.44ZM180.12 523.473C178.52 523.473 177.08 523.366 175.8 523.153V490.753C172.6 491.02 170.093 492.14 168.28 494.113C166.467 496.086 165.56 498.513 165.56 501.393C165.56 505.553 167.347 508.513 170.92 510.273V522.353C166.653 521.073 163.133 518.62 160.36 514.993C157.64 511.366 156.28 506.913 156.28 501.633C156.28 497.366 157.213 493.526 159.08 490.113C161 486.753 163.693 484.113 167.16 482.193C170.627 480.326 174.627 479.393 179.16 479.393C183.747 479.393 187.773 480.326 191.24 482.193C194.707 484.06 197.373 486.673 199.24 490.033C201.107 493.393 202.04 497.26 202.04 501.633C202.04 505.846 201.133 509.606 199.32 512.913C197.507 516.273 194.92 518.86 191.56 520.673C188.253 522.54 184.44 523.473 180.12 523.473ZM183.32 511.873C186.2 511.82 188.493 510.78 190.2 508.753C191.96 506.726 192.84 504.246 192.84 501.313C192.84 498.54 191.987 496.193 190.28 494.273C188.627 492.406 186.307 491.26 183.32 490.833V511.873ZM201.96 557.808C201.96 563.088 200.28 567.355 196.92 570.608C193.613 573.861 188.973 575.488 183 575.488H157V564.288H181.48C185 564.288 187.693 563.408 189.56 561.648C191.48 559.888 192.44 557.488 192.44 554.448C192.44 551.355 191.48 548.901 189.56 547.088C187.693 545.328 185 544.448 181.48 544.448H157V533.248H201.32V544.448H195.8C197.72 545.941 199.213 547.835 200.28 550.128C201.4 552.475 201.96 555.035 201.96 557.808ZM180.12 628.939C178.52 628.939 177.08 628.832 175.8 628.619L175.8 596.219C172.6 596.485 170.093 597.605 168.28 599.579C166.467 601.552 165.56 603.979 165.56 606.859C165.56 611.019 167.347 613.979 170.92 615.739L170.92 627.819C166.653 626.539 163.133 624.085 160.36 620.459C157.64 616.832 156.28 612.379 156.28 607.099C156.28 602.832 157.213 598.992 159.08 595.579C161 592.219 163.693 589.579 167.16 587.659C170.627 585.792 174.627 584.859 179.16 584.859C183.747 584.859 187.773 585.792 191.24 587.659C194.707 589.525 197.373 592.139 199.24 595.499C201.107 598.859 202.04 602.725 202.04 607.099C202.04 611.312 201.133 615.072 199.32 618.379C197.507 621.739 194.92 624.325 191.56 626.139C188.253 628.005 184.44 628.939 180.12 628.939ZM183.32 617.339C186.2 617.285 188.493 616.245 190.2 614.219C191.96 612.192 192.84 609.712 192.84 606.779C192.84 604.005 191.987 601.659 190.28 599.739C188.627 597.872 186.307 596.725 183.32 596.299V617.339ZM201.32 680.554H157V669.274H162.6C160.68 667.834 159.16 665.94 158.04 663.594C156.973 661.3 156.44 658.794 156.44 656.074C156.44 652.607 157.16 649.54 158.6 646.874C160.093 644.207 162.253 642.1 165.08 640.554C167.96 639.06 171.373 638.314 175.32 638.314H201.32L201.32 649.514H176.92C173.4 649.514 170.68 650.394 168.76 652.154C166.893 653.914 165.96 656.314 165.96 659.354C165.96 662.447 166.893 664.874 168.76 666.634C170.68 668.394 173.4 669.274 176.92 669.274H201.32V680.554ZM194.44 704.404C196.787 705.844 198.627 707.711 199.96 710.004C201.293 712.351 201.96 715.018 201.96 718.004H190.2V715.044C190.2 711.524 189.373 708.858 187.72 707.044C186.067 705.284 183.187 704.404 179.08 704.404H157V693.204H201.32V704.404H194.44ZM156.28 744.108C156.28 740.481 156.92 737.228 158.2 734.348C159.533 731.468 161.32 729.175 163.56 727.468C165.8 725.815 168.28 724.908 171 724.748V736.028C169.293 736.241 167.88 737.068 166.76 738.508C165.64 740.001 165.08 741.841 165.08 744.028C165.08 746.161 165.507 747.815 166.36 748.988C167.213 750.215 168.307 750.828 169.64 750.828C171.08 750.828 172.147 750.081 172.84 748.588C173.587 747.148 174.387 744.828 175.24 741.628C176.04 738.321 176.867 735.601 177.72 733.468C178.573 731.388 179.88 729.575 181.64 728.028C183.4 726.535 185.773 725.788 188.76 725.788C191.213 725.788 193.453 726.481 195.48 727.868C197.507 729.308 199.107 731.335 200.28 733.948C201.453 736.615 202.04 739.735 202.04 743.308C202.04 748.588 200.707 752.801 198.04 755.948C195.427 759.095 191.88 760.828 187.4 761.148V750.428C189.16 750.268 190.547 749.521 191.56 748.188C192.627 746.908 193.16 745.175 193.16 742.988C193.16 740.961 192.787 739.388 192.04 738.268C191.293 737.201 190.253 736.668 188.92 736.668C187.427 736.668 186.28 737.415 185.48 738.908C184.733 740.401 183.96 742.721 183.16 745.868C182.36 749.068 181.533 751.708 180.68 753.788C179.827 755.868 178.493 757.655 176.68 759.148C174.92 760.695 172.573 761.495 169.64 761.548C167.08 761.548 164.787 760.828 162.76 759.388C160.733 758.001 159.133 755.975 157.96 753.308C156.84 750.695 156.28 747.628 156.28 744.108ZM187.88 801.484C190.653 796.151 194.947 793.484 200.76 793.484C203.64 793.484 206.253 794.204 208.6 795.644C211 797.138 212.893 799.351 214.28 802.284C215.72 805.271 216.44 808.898 216.44 813.164C216.44 817.431 215.72 821.031 214.28 823.964C212.893 826.951 211 829.164 208.6 830.604C206.253 832.098 203.64 832.844 200.76 832.844C197.827 832.844 195.24 832.124 193 830.684C190.813 829.244 189.107 827.324 187.88 824.924C186.6 827.858 184.733 830.151 182.28 831.804C179.827 833.458 176.92 834.284 173.56 834.284C169.933 834.284 166.76 833.351 164.04 831.484C161.373 829.671 159.32 827.164 157.88 823.964C156.44 820.764 155.72 817.164 155.72 813.164C155.72 809.164 156.44 805.564 157.88 802.364C159.32 799.218 161.373 796.711 164.04 794.844C166.76 793.031 169.933 792.124 173.56 792.124C176.92 792.124 179.827 792.951 182.28 794.604C184.787 796.258 186.653 798.551 187.88 801.484ZM199.16 821.964C201.773 821.964 203.8 821.164 205.24 819.564C206.68 818.018 207.4 815.884 207.4 813.164C207.4 810.498 206.68 808.364 205.24 806.764C203.8 805.218 201.747 804.444 199.08 804.444C196.68 804.444 194.76 805.244 193.32 806.844C191.88 808.498 191.16 810.604 191.16 813.164C191.16 815.724 191.88 817.831 193.32 819.484C194.813 821.138 196.76 821.964 199.16 821.964ZM183 813.164C183 810.124 182.227 807.644 180.68 805.724C179.133 803.858 176.92 802.924 174.04 802.924C171.373 802.924 169.187 803.831 167.48 805.644C165.827 807.511 165 810.018 165 813.164C165 816.311 165.853 818.791 167.56 820.604C169.267 822.418 171.427 823.324 174.04 823.324C176.867 823.324 179.053 822.391 180.6 820.524C182.2 818.658 183 816.204 183 813.164ZM156.44 850.971C156.44 848.944 157.053 847.264 158.28 845.931C159.56 844.651 161.133 844.011 163 844.011C164.867 844.011 166.413 844.651 167.64 845.931C168.92 847.264 169.56 848.944 169.56 850.971C169.56 852.944 168.92 854.571 167.64 855.851C166.413 857.131 164.867 857.771 163 857.771C161.133 857.771 159.56 857.131 158.28 855.851C157.053 854.571 156.44 852.944 156.44 850.971ZM186.92 867.112C196.147 867.112 203.373 868.765 208.6 872.072C213.827 875.432 216.44 880.979 216.44 888.712C216.44 896.445 213.827 901.965 208.6 905.272C203.373 908.632 196.147 910.312 186.92 910.312C177.64 910.312 170.36 908.632 165.08 905.272C159.8 901.965 157.16 896.445 157.16 888.712C157.16 880.979 159.8 875.432 165.08 872.072C170.36 868.765 177.64 867.112 186.92 867.112ZM186.92 899.272C190.867 899.272 194.173 899.005 196.84 898.472C199.56 897.992 201.773 896.979 203.48 895.432C205.187 893.939 206.04 891.699 206.04 888.712C206.04 885.725 205.187 883.459 203.48 881.912C201.773 880.419 199.56 879.405 196.84 878.872C194.173 878.392 190.867 878.152 186.92 878.152C182.867 878.152 179.453 878.392 176.68 878.872C173.96 879.352 171.747 880.365 170.04 881.912C168.387 883.459 167.56 885.725 167.56 888.712C167.56 891.699 168.387 893.965 170.04 895.512C171.747 897.059 173.96 898.072 176.68 898.552C179.453 899.032 182.867 899.272 186.92 899.272Z" fill="white" fill-opacity="0.2"/>
<g filter="url(#filter0_f_663_2739)">
<path d="M427.462 579.17C328.92 644.424 198.362 620.798 135.852 526.4C73.3423 432.003 102.552 302.579 201.094 237.325C299.636 172.071 430.195 195.697 492.704 290.095C555.214 384.492 526.004 513.916 427.462 579.17Z" fill="#E69951" fill-opacity="0.33"/>
</g>
<g filter="url(#filter1_f_663_2739)">
<path d="M687.389 652.92C588.847 718.174 458.288 694.548 395.779 600.15C333.269 505.753 362.479 376.329 461.021 311.075C559.563 245.821 690.121 269.447 752.631 363.845C815.141 458.242 785.931 587.666 687.389 652.92Z" fill="#7353E5" fill-opacity="0.7"/>
</g>
<g filter="url(#filter2_f_663_2739)">
<path d="M362.22 868.245C263.678 933.499 133.119 909.873 70.6098 815.476C8.10009 721.078 37.3101 591.654 135.852 526.4C234.394 461.146 364.952 484.772 427.462 579.17C489.972 673.568 460.762 802.991 362.22 868.245Z" fill="#BF3EC3" fill-opacity="0.43"/>
</g>
<defs>
<filter id="filter0_f_663_2739" x="-97.0459" y="0.443848" width="822.648" height="815.607" filterUnits="userSpaceOnUse" color-interpolation-filters="sRGB">
<feFlood flood-opacity="0" result="BackgroundImageFix"/>
<feBlend mode="normal" in="SourceGraphic" in2="BackgroundImageFix" result="shape"/>
<feGaussianBlur stdDeviation="100" result="effect1_foregroundBlur_663_2739"/>
</filter>
<filter id="filter1_f_663_2739" x="162.881" y="74.1938" width="822.648" height="815.607" filterUnits="userSpaceOnUse" color-interpolation-filters="sRGB">
<feFlood flood-opacity="0" result="BackgroundImageFix"/>
<feBlend mode="normal" in="SourceGraphic" in2="BackgroundImageFix" result="shape"/>
<feGaussianBlur stdDeviation="100" result="effect1_foregroundBlur_663_2739"/>
</filter>
<filter id="filter2_f_663_2739" x="-162.288" y="289.519" width="822.648" height="815.607" filterUnits="userSpaceOnUse" color-interpolation-filters="sRGB">
<feFlood flood-opacity="0" result="BackgroundImageFix"/>
<feBlend mode="normal" in="SourceGraphic" in2="BackgroundImageFix" result="shape"/>
<feGaussianBlur stdDeviation="100" result="effect1_foregroundBlur_663_2739"/>
</filter>
</defs>
</svg>
