<svg width="59" height="59" viewBox="0 0 59 59" fill="none" xmlns="http://www.w3.org/2000/svg">
<path d="M29.4921 19.6625C24.0753 19.6625 19.6547 24.0831 19.6547 29.5C19.6547 34.9169 24.0753 39.3375 29.4921 39.3375C34.9089 39.3375 39.3294 34.9169 39.3294 29.5C39.3294 24.0831 34.9089 19.6625 29.4921 19.6625ZM58.9967 29.5C58.9967 25.4262 59.0336 21.3894 58.8048 17.323C58.5761 12.5998 57.4986 8.408 54.0448 4.95417C50.5837 1.49295 46.3993 0.422854 41.6762 0.194075C37.6025 -0.0347049 33.5657 0.00219513 29.4994 0.00219513C25.4258 0.00219513 21.389 -0.0347049 17.3227 0.194075C12.5996 0.422854 8.40784 1.50033 4.95407 4.95417C1.49292 8.41538 0.422846 12.5998 0.194071 17.323C-0.0347043 21.3968 0.00219509 25.4336 0.00219509 29.5C0.00219509 33.5664 -0.0347043 37.6106 0.194071 41.677C0.422846 46.4002 1.5003 50.592 4.95407 54.0458C8.41522 57.507 12.5996 58.5771 17.3227 58.8059C21.3964 59.0347 25.4332 58.9978 29.4994 58.9978C33.5731 58.9978 37.6099 59.0347 41.6762 58.8059C46.3993 58.5771 50.5911 57.4997 54.0448 54.0458C57.506 50.5846 58.5761 46.4002 58.8048 41.677C59.041 37.6106 58.9967 33.5737 58.9967 29.5ZM29.4921 44.6363C21.1159 44.6363 14.356 37.8763 14.356 29.5C14.356 21.1237 21.1159 14.3636 29.4921 14.3636C37.8682 14.3636 44.6281 21.1237 44.6281 29.5C44.6281 37.8763 37.8682 44.6363 29.4921 44.6363ZM45.2481 17.2787C43.2924 17.2787 41.7131 15.6994 41.7131 13.7437C41.7131 11.788 43.2924 10.2087 45.2481 10.2087C47.2037 10.2087 48.783 11.788 48.783 13.7437C48.7836 14.2081 48.6925 14.6681 48.5151 15.0972C48.3377 15.5264 48.0773 15.9163 47.7489 16.2447C47.4206 16.573 47.0306 16.8334 46.6015 17.0108C46.1724 17.1883 45.7124 17.2793 45.2481 17.2787Z" fill="white"/>
</svg>
