<svg width="63" height="63" viewBox="0 0 63 63" fill="none" xmlns="http://www.w3.org/2000/svg">
<path d="M12.3456 0C5.55651 0 0 5.55638 0 12.3456V50.6564C0 57.4455 5.55638 63 12.3456 63H50.6564C57.4456 63 63 57.4456 63 50.6564V12.3456C63 5.55651 57.4456 0 50.6564 0H12.3456ZM15.4508 10.3963C18.706 10.3963 20.7111 12.5333 20.773 15.3424C20.773 18.0894 18.7059 20.2865 15.3878 20.2865H15.3267C12.1334 20.2865 10.0695 18.0895 10.0695 15.3424C10.0695 12.5333 12.1959 10.3963 15.4507 10.3963H15.4508ZM43.5031 23.5255C49.7635 23.5255 54.4566 27.6174 54.4566 36.4106V52.8261H44.9424V37.5112C44.9424 33.6628 43.5655 31.0372 40.1223 31.0372C37.4938 31.0372 35.9271 32.8068 35.2392 34.5164C34.9879 35.128 34.9261 35.9822 34.9261 36.8378V52.8261H25.4119C25.4119 52.8261 25.5368 26.8831 25.4119 24.1969H34.9281V28.2511C36.1924 26.3004 38.454 23.5255 43.5031 23.5255V23.5255ZM10.6307 24.199H20.1449V52.8262H10.6307V24.199Z" fill="white"/>
</svg>
