<svg width="40" height="40" viewBox="0 0 40 40" fill="none" xmlns="http://www.w3.org/2000/svg">
<path d="M3.148 10.572L18.148 18.63C18.652 18.9 19.304 19.028 19.96 19.028C20.616 19.028 21.268 18.9 21.772 18.63L36.772 10.572C37.75 10.046 38.674 8 36.88 8H3.042C1.248 8 2.172 10.046 3.148 10.572ZM37.226 14.978L21.772 23.032C21.092 23.388 20.616 23.43 19.96 23.43C19.304 23.43 18.828 23.388 18.148 23.032C17.468 22.676 3.882 15.554 2.772 14.976C1.992 14.568 2 15.046 2 15.414V30C2 30.84 3.132 32 4 32H36C36.868 32 38 30.84 38 30V15.416C38 15.048 38.008 14.57 37.226 14.978Z" fill="white"/>
</svg>
