<svg width="1565" height="947" viewBox="0 0 1565 947" fill="none" xmlns="http://www.w3.org/2000/svg">
<path opacity="0.5" d="M74.84 119L65.8 119V95.72H51.48V113.56H42.6V95.72H19V84.52H74.84V119ZM63.32 170.382H19V159.102H24.6C22.68 157.662 21.16 155.769 20.04 153.422C18.9733 151.129 18.44 148.622 18.44 145.902C18.44 142.435 19.16 139.369 20.6 136.702C22.0933 134.035 24.2533 131.929 27.08 130.382C29.96 128.889 33.3733 128.142 37.32 128.142H63.32L63.32 139.342H38.92C35.4 139.342 32.68 140.222 30.76 141.982C28.8933 143.742 27.96 146.142 27.96 149.182C27.96 152.275 28.8933 154.702 30.76 156.462C32.68 158.222 35.4 159.102 38.92 159.102H63.32V170.382ZM54.12 196.072H32.68C31.1867 196.072 30.0933 196.419 29.4 197.112C28.76 197.859 28.44 199.086 28.44 200.792V205.992H19V198.952C19 189.512 23.5867 184.792 32.76 184.792H54.12V179.512H63.32V184.792H74.28V196.072H63.32V205.992H54.12V196.072ZM63.32 257.488H19V246.208H24.6C22.68 244.768 21.16 242.875 20.04 240.528C18.9733 238.235 18.44 235.728 18.44 233.008C18.44 229.541 19.16 226.475 20.6 223.808C22.0933 221.141 24.2533 219.035 27.08 217.488C29.96 215.995 33.3733 215.248 37.32 215.248L63.32 215.248V226.448L38.92 226.448C35.4 226.448 32.68 227.328 30.76 229.088C28.8933 230.848 27.96 233.248 27.96 236.288C27.96 239.381 28.8933 241.808 30.76 243.568C32.68 245.328 35.4 246.208 38.92 246.208L63.32 246.208L63.32 257.488ZM56.44 281.339C58.7867 282.779 60.6267 284.645 61.96 286.939C63.2933 289.285 63.96 291.952 63.96 294.939H52.2V291.979C52.2 288.459 51.3733 285.792 49.72 283.979C48.0667 282.219 45.1867 281.339 41.08 281.339H19L19 270.139H63.32V281.339H56.44ZM42.12 345.283C40.52 345.283 39.08 345.176 37.8 344.963V312.563C34.6 312.829 32.0933 313.949 30.28 315.923C28.4667 317.896 27.56 320.323 27.56 323.203C27.56 327.363 29.3467 330.323 32.92 332.083V344.163C28.6533 342.883 25.1333 340.429 22.36 336.803C19.64 333.176 18.28 328.723 18.28 323.443C18.28 319.176 19.2133 315.336 21.08 311.923C23 308.563 25.6933 305.923 29.16 304.003C32.6267 302.136 36.6267 301.202 41.16 301.202C45.7467 301.202 49.7733 302.136 53.24 304.003C56.7067 305.869 59.3733 308.483 61.24 311.843C63.1067 315.203 64.04 319.069 64.04 323.443C64.04 327.656 63.1333 331.416 61.32 334.723C59.5067 338.083 56.92 340.669 53.56 342.483C50.2533 344.349 46.44 345.283 42.12 345.283ZM45.32 333.683C48.2 333.629 50.4933 332.589 52.2 330.563C53.96 328.536 54.84 326.056 54.84 323.123C54.84 320.349 53.9867 318.003 52.28 316.083C50.6267 314.216 48.3067 313.069 45.32 312.643V333.683ZM57.56 395.778C54.5733 395.778 51.7733 395.058 49.16 393.618C46.5467 392.231 44.44 390.018 42.84 386.978C41.24 383.991 40.44 380.204 40.44 375.618V366.258H19V355.058H74.84V375.618C74.84 379.938 74.0933 383.618 72.6 386.658C71.1067 389.698 69.0533 391.964 66.44 393.458C63.8267 395.004 60.8667 395.778 57.56 395.778ZM49.48 375.138C49.48 378.231 50.1733 380.524 51.56 382.018C53 383.511 55 384.258 57.56 384.258C63 384.258 65.72 381.218 65.72 375.138V366.258H49.48V375.138ZM56.44 416.529C58.7867 417.969 60.6267 419.836 61.96 422.129C63.2933 424.476 63.96 427.143 63.96 430.129H52.2V427.169C52.2 423.649 51.3733 420.983 49.72 419.169C48.0667 417.409 45.1867 416.529 41.08 416.529H19V405.329H63.32L63.32 416.529H56.44ZM42.12 480.473C40.52 480.473 39.08 480.366 37.8 480.153V447.753C34.6 448.02 32.0933 449.14 30.28 451.113C28.4667 453.086 27.56 455.513 27.56 458.393C27.56 462.553 29.3467 465.513 32.92 467.273V479.353C28.6533 478.073 25.1333 475.62 22.36 471.993C19.64 468.366 18.28 463.913 18.28 458.633C18.28 454.366 19.2133 450.526 21.08 447.113C23 443.753 25.6933 441.113 29.16 439.193C32.6267 437.326 36.6267 436.393 41.16 436.393C45.7467 436.393 49.7733 437.326 53.24 439.193C56.7067 441.06 59.3733 443.673 61.24 447.033C63.1067 450.393 64.04 454.26 64.04 458.633C64.04 462.846 63.1333 466.606 61.32 469.913C59.5067 473.273 56.92 475.86 53.56 477.673C50.2533 479.54 46.44 480.473 42.12 480.473ZM45.32 468.873C48.2 468.82 50.4933 467.78 52.2 465.753C53.96 463.726 54.84 461.246 54.84 458.313C54.84 455.54 53.9867 453.193 52.28 451.273C50.6267 449.406 48.3067 448.26 45.32 447.833V468.873ZM63.96 514.808C63.96 520.088 62.28 524.355 58.92 527.608C55.6133 530.861 50.9733 532.488 45 532.488H19V521.288H43.48C47 521.288 49.6933 520.408 51.56 518.648C53.48 516.888 54.44 514.488 54.44 511.448C54.44 508.355 53.48 505.901 51.56 504.088C49.6933 502.328 47 501.448 43.48 501.448H19V490.248H63.32V501.448H57.8C59.72 502.941 61.2133 504.835 62.28 507.128C63.4 509.475 63.96 512.035 63.96 514.808ZM42.12 585.939C40.52 585.939 39.08 585.832 37.8 585.619L37.8 553.219C34.6 553.485 32.0933 554.605 30.28 556.579C28.4667 558.552 27.56 560.979 27.56 563.859C27.56 568.019 29.3467 570.979 32.92 572.739L32.92 584.819C28.6533 583.539 25.1333 581.085 22.36 577.459C19.64 573.832 18.28 569.379 18.28 564.099C18.28 559.832 19.2133 555.992 21.08 552.579C23 549.219 25.6933 546.579 29.16 544.659C32.6267 542.792 36.6267 541.859 41.16 541.859C45.7467 541.859 49.7733 542.792 53.24 544.659C56.7067 546.525 59.3733 549.139 61.24 552.499C63.1067 555.859 64.04 559.725 64.04 564.099C64.04 568.312 63.1333 572.072 61.32 575.379C59.5067 578.739 56.92 581.325 53.56 583.139C50.2533 585.005 46.44 585.939 42.12 585.939ZM45.32 574.339C48.2 574.285 50.4933 573.245 52.2 571.219C53.96 569.192 54.84 566.712 54.84 563.779C54.84 561.005 53.9867 558.659 52.28 556.739C50.6267 554.872 48.3067 553.725 45.32 553.299V574.339ZM63.32 637.554H19V626.274H24.6C22.68 624.834 21.16 622.94 20.04 620.594C18.9733 618.3 18.44 615.794 18.44 613.074C18.44 609.607 19.16 606.54 20.6 603.874C22.0933 601.207 24.2533 599.1 27.08 597.554C29.96 596.06 33.3733 595.314 37.32 595.314H63.32L63.32 606.514H38.92C35.4 606.514 32.68 607.394 30.76 609.154C28.8933 610.914 27.96 613.314 27.96 616.354C27.96 619.447 28.8933 621.874 30.76 623.634C32.68 625.394 35.4 626.274 38.92 626.274H63.32V637.554ZM56.44 661.404C58.7867 662.844 60.6267 664.711 61.96 667.004C63.2933 669.351 63.96 672.018 63.96 675.004H52.2V672.044C52.2 668.524 51.3733 665.858 49.72 664.044C48.0667 662.284 45.1867 661.404 41.08 661.404H19L19 650.204H63.32V661.404H56.44ZM18.28 701.108C18.28 697.481 18.92 694.228 20.2 691.348C21.5333 688.468 23.32 686.175 25.56 684.468C27.8 682.815 30.28 681.908 33 681.748V693.028C31.2933 693.241 29.88 694.068 28.76 695.508C27.64 697.001 27.08 698.841 27.08 701.028C27.08 703.161 27.5067 704.815 28.36 705.988C29.2133 707.215 30.3067 707.828 31.64 707.828C33.08 707.828 34.1467 707.081 34.84 705.588C35.5867 704.148 36.3867 701.828 37.24 698.628C38.04 695.321 38.8667 692.601 39.72 690.468C40.5733 688.388 41.88 686.575 43.64 685.028C45.4 683.535 47.7733 682.788 50.76 682.788C53.2133 682.788 55.4533 683.481 57.48 684.868C59.5067 686.308 61.1067 688.335 62.28 690.948C63.4533 693.615 64.04 696.735 64.04 700.308C64.04 705.588 62.7067 709.801 60.04 712.948C57.4267 716.095 53.88 717.828 49.4 718.148V707.428C51.16 707.268 52.5467 706.521 53.56 705.188C54.6267 703.908 55.16 702.175 55.16 699.988C55.16 697.961 54.7867 696.388 54.04 695.268C53.2933 694.201 52.2533 693.668 50.92 693.668C49.4267 693.668 48.28 694.415 47.48 695.908C46.7333 697.401 45.96 699.721 45.16 702.868C44.36 706.068 43.5333 708.708 42.68 710.788C41.8267 712.868 40.4933 714.655 38.68 716.148C36.92 717.695 34.5733 718.495 31.64 718.548C29.08 718.548 26.7867 717.828 24.76 716.388C22.7333 715.001 21.1333 712.975 19.96 710.308C18.84 707.695 18.28 704.628 18.28 701.108ZM49.88 758.484C52.6533 753.151 56.9467 750.484 62.76 750.484C65.64 750.484 68.2533 751.204 70.6 752.644C73 754.138 74.8933 756.351 76.28 759.284C77.72 762.271 78.44 765.898 78.44 770.164C78.44 774.431 77.72 778.031 76.28 780.964C74.8933 783.951 73 786.164 70.6 787.604C68.2533 789.098 65.64 789.844 62.76 789.844C59.8267 789.844 57.24 789.124 55 787.684C52.8133 786.244 51.1067 784.324 49.88 781.924C48.6 784.858 46.7333 787.151 44.28 788.804C41.8267 790.458 38.92 791.284 35.56 791.284C31.9333 791.284 28.76 790.351 26.04 788.484C23.3733 786.671 21.32 784.164 19.88 780.964C18.44 777.764 17.72 774.164 17.72 770.164C17.72 766.164 18.44 762.564 19.88 759.364C21.32 756.218 23.3733 753.711 26.04 751.844C28.76 750.031 31.9333 749.124 35.56 749.124C38.92 749.124 41.8267 749.951 44.28 751.604C46.7867 753.258 48.6533 755.551 49.88 758.484ZM61.16 778.964C63.7733 778.964 65.8 778.164 67.24 776.564C68.68 775.018 69.4 772.884 69.4 770.164C69.4 767.498 68.68 765.364 67.24 763.764C65.8 762.218 63.7467 761.444 61.08 761.444C58.68 761.444 56.76 762.244 55.32 763.844C53.88 765.498 53.16 767.604 53.16 770.164C53.16 772.724 53.88 774.831 55.32 776.484C56.8133 778.138 58.76 778.964 61.16 778.964ZM45 770.164C45 767.124 44.2267 764.644 42.68 762.724C41.1333 760.858 38.92 759.924 36.04 759.924C33.3733 759.924 31.1867 760.831 29.48 762.644C27.8267 764.511 27 767.018 27 770.164C27 773.311 27.8533 775.791 29.56 777.604C31.2667 779.418 33.4267 780.324 36.04 780.324C38.8667 780.324 41.0533 779.391 42.6 777.524C44.2 775.658 45 773.204 45 770.164ZM18.44 807.971C18.44 805.944 19.0533 804.264 20.28 802.931C21.56 801.651 23.1333 801.011 25 801.011C26.8667 801.011 28.4133 801.651 29.64 802.931C30.92 804.264 31.56 805.944 31.56 807.971C31.56 809.944 30.92 811.571 29.64 812.851C28.4133 814.131 26.8667 814.771 25 814.771C23.1333 814.771 21.56 814.131 20.28 812.851C19.0533 811.571 18.44 809.944 18.44 807.971ZM48.92 824.112C58.1467 824.112 65.3733 825.765 70.6 829.072C75.8267 832.432 78.44 837.979 78.44 845.712C78.44 853.445 75.8267 858.965 70.6 862.272C65.3733 865.632 58.1467 867.312 48.92 867.312C39.64 867.312 32.36 865.632 27.08 862.272C21.8 858.965 19.16 853.445 19.16 845.712C19.16 837.979 21.8 832.432 27.08 829.072C32.36 825.765 39.64 824.112 48.92 824.112ZM48.92 856.272C52.8667 856.272 56.1733 856.005 58.84 855.472C61.56 854.992 63.7733 853.979 65.48 852.432C67.1867 850.939 68.04 848.699 68.04 845.712C68.04 842.725 67.1867 840.459 65.48 838.912C63.7733 837.419 61.56 836.405 58.84 835.872C56.1733 835.392 52.8667 835.152 48.92 835.152C44.8667 835.152 41.4533 835.392 38.68 835.872C35.96 836.352 33.7467 837.365 32.04 838.912C30.3867 840.459 29.56 842.725 29.56 845.712C29.56 848.699 30.3867 850.965 32.04 852.512C33.7467 854.059 35.96 855.072 38.68 855.552C41.4533 856.032 44.8667 856.272 48.92 856.272Z" fill="white" fill-opacity="0.2"/>
<g filter="url(#filter0_f_564_2725)">
<path d="M579 460C697.189 460 793 551.782 793 665C793 778.218 697.189 870 579 870C460.811 870 365 778.218 365 665C365 551.782 460.811 460 579 460Z" fill="#E69951" fill-opacity="0.33"/>
</g>
<g filter="url(#filter1_f_564_2725)">
<path d="M403 255C521.189 255 617 346.782 617 460C617 573.218 521.189 665 403 665C284.811 665 189 573.218 189 460C189 346.782 284.811 255 403 255Z" fill="#7353E5" fill-opacity="0.7"/>
</g>
<g filter="url(#filter2_f_564_2725)">
<path d="M793 255C911.189 255 1007 346.782 1007 460C1007 573.218 911.189 665 793 665C674.811 665 579 573.218 579 460C579 346.782 674.811 255 793 255Z" fill="#BF3EC3" fill-opacity="0.43"/>
</g>
<defs>
<filter id="filter0_f_564_2725" x="165" y="260" width="828" height="810" filterUnits="userSpaceOnUse" color-interpolation-filters="sRGB">
<feFlood flood-opacity="0" result="BackgroundImageFix"/>
<feBlend mode="normal" in="SourceGraphic" in2="BackgroundImageFix" result="shape"/>
<feGaussianBlur stdDeviation="100" result="effect1_foregroundBlur_564_2725"/>
</filter>
<filter id="filter1_f_564_2725" x="-11" y="55" width="828" height="810" filterUnits="userSpaceOnUse" color-interpolation-filters="sRGB">
<feFlood flood-opacity="0" result="BackgroundImageFix"/>
<feBlend mode="normal" in="SourceGraphic" in2="BackgroundImageFix" result="shape"/>
<feGaussianBlur stdDeviation="100" result="effect1_foregroundBlur_564_2725"/>
</filter>
<filter id="filter2_f_564_2725" x="379" y="55" width="828" height="810" filterUnits="userSpaceOnUse" color-interpolation-filters="sRGB">
<feFlood flood-opacity="0" result="BackgroundImageFix"/>
<feBlend mode="normal" in="SourceGraphic" in2="BackgroundImageFix" result="shape"/>
<feGaussianBlur stdDeviation="100" result="effect1_foregroundBlur_564_2725"/>
</filter>
</defs>
</svg>
