<?xml version="1.0" standalone="no"?>
<!DOCTYPE svg PUBLIC "-//W3C//DTD SVG 20010904//EN"
 "http://www.w3.org/TR/2001/REC-SVG-20010904/DTD/svg10.dtd">
<svg version="1.0" xmlns="http://www.w3.org/2000/svg"
 width="848.000000pt" height="848.000000pt" viewBox="0 0 848.000000 848.000000"
 preserveAspectRatio="xMidYMid meet">
<metadata>
Created by potrace 1.14, written by Peter Selinger 2001-2017
</metadata>
<g transform="translate(0.000000,848.000000) scale(0.100000,-0.100000)"
fill="#000000" stroke="none">
<path d="M2037 8323 c-4 -3 -42 -7 -85 -8 -100 -3 -143 -11 -220 -42 -62 -25
-155 -87 -203 -135 -13 -13 -60 -69 -104 -124 -43 -54 -84 -104 -90 -111 -5
-6 -26 -30 -45 -54 -40 -49 -210 -249 -225 -265 -5 -6 -28 -32 -50 -59 -22
-27 -49 -58 -60 -71 -11 -12 -33 -39 -50 -60 -16 -21 -35 -42 -40 -48 -6 -6
-39 -47 -73 -91 -35 -44 -71 -89 -79 -100 -9 -10 -51 -69 -94 -130 -43 -60
-83 -115 -89 -122 -18 -22 -7 -23 212 -26 84 -1 138 -6 138 -12 0 -7 3 -7 8 0
8 12 382 14 382 2 0 -5 4 -5 10 -2 14 8 625 9 639 1 6 -4 11 -4 11 1 0 9 200
9 224 0 9 -4 16 -3 16 1 0 8 515 6 583 -2 26 -4 45 -11 42 -16 -3 -5 0 -8 7
-5 29 11 116 -100 104 -132 -3 -8 -2 -12 3 -8 9 5 20 -33 19 -65 0 -8 3 -49 6
-90 9 -115 19 -325 20 -422 1 -49 3 -88 6 -88 9 0 6 -43 -3 -57 -5 -7 -4 -13
1 -13 5 0 9 -33 10 -72 0 -40 4 -183 8 -318 8 -289 8 -1616 0 -2110 -3 -190
-7 -478 -9 -640 -1 -162 -6 -301 -10 -307 -5 -7 -4 -13 1 -13 6 0 7 -14 2 -34
-4 -19 -5 -37 -2 -40 2 -3 4 -36 4 -73 -1 -37 -2 -255 -2 -483 0 -412 0 -438
0 -462 -2 -54 12 -615 16 -658 2 -30 6 -72 7 -92 1 -21 6 -38 11 -38 5 0 7 -3
3 -6 -8 -8 22 -84 42 -108 31 -36 84 -49 119 -29 12 8 22 11 22 8 0 -3 10 3
22 15 24 22 44 27 32 8 -4 -7 -3 -8 5 -4 6 4 9 11 6 15 -2 5 16 27 40 50 25
23 45 47 45 52 0 6 5 7 10 4 6 -3 10 -1 10 5 0 6 7 18 15 27 13 13 18 13 33 1
15 -12 16 -11 3 5 -13 16 -13 20 0 28 8 5 11 9 6 9 -9 0 78 90 87 90 4 0 4 -5
0 -12 -4 -7 -3 -8 5 -4 9 6 9 11 0 22 -9 11 -9 14 0 14 7 0 9 5 6 10 -3 6 2
10 11 10 10 0 15 3 11 6 -5 5 10 27 41 59 6 8 12 16 12 20 0 4 7 13 15 21 8 9
15 12 15 7 0 -4 9 11 21 34 12 24 25 43 30 43 5 0 9 6 9 13 0 6 13 26 28 43
15 18 36 48 47 68 11 20 26 36 33 36 7 0 11 3 8 8 -2 4 9 26 25 50 16 23 29
47 29 52 0 6 4 10 8 10 8 0 57 70 81 118 6 12 19 22 27 22 8 0 12 5 9 10 -9
15 23 62 37 54 7 -4 8 -3 4 4 -11 18 4 38 15 21 6 -10 8 -6 7 11 -2 16 2 24
10 22 6 -1 11 1 11 5 -1 5 0 11 1 16 1 4 3 13 4 20 1 6 9 11 18 11 9 -1 14 4
12 11 -3 7 2 19 10 28 9 9 16 20 16 25 0 5 7 15 15 22 8 7 13 16 10 20 -5 8
13 25 27 25 3 0 10 4 15 9 5 5 3 6 -5 2 -8 -5 -11 -1 -9 11 4 17 7 26 24 71 3
9 7 20 7 24 1 3 4 10 9 14 4 4 7 15 7 25 0 9 6 20 12 22 10 4 10 6 0 6 -7 1
-11 5 -8 9 6 10 19 101 18 124 0 10 4 20 9 23 5 4 6 11 3 17 -6 10 -9 75 -4
96 1 4 1 22 0 41 -1 23 2 31 10 26 7 -5 7 0 -2 14 -11 17 -11 25 0 42 8 12 9
18 4 15 -13 -8 -21 24 -12 49 4 11 3 26 -2 33 -7 7 -7 12 -1 12 5 0 10 7 10
15 0 8 -5 15 -10 15 -5 0 -4 7 3 15 10 12 10 15 0 15 -10 0 -10 3 -1 14 9 10
9 16 1 21 -8 5 -8 11 1 21 9 11 9 14 -1 14 -10 0 -10 3 -1 14 9 11 9 16 0 21
-8 6 -7 10 2 16 8 5 9 9 3 9 -16 0 -11 105 6 126 14 18 14 18 -3 5 -23 -18
-24 5 0 31 14 15 14 19 3 16 -10 -2 -15 6 -16 24 -1 16 4 28 10 28 8 0 8 3 1
8 -15 10 -17 54 -3 46 7 -5 8 -2 2 7 -13 20 -14 210 -1 202 6 -4 7 -1 1 8 -14
22 -14 90 0 82 6 -4 5 1 -3 11 -13 15 -13 19 0 27 8 5 9 9 3 9 -6 0 -11 14
-12 30 0 17 3 28 8 25 5 -3 12 -1 15 5 4 6 1 9 -7 8 -10 -2 -14 36 -16 187 -2
105 -4 204 -5 220 -1 17 5 36 13 43 12 9 12 12 1 10 -7 -2 -16 3 -19 11 -3 10
0 12 14 8 16 -6 17 -5 4 5 -13 11 -15 76 -15 473 0 295 4 463 10 467 6 5 5 8
-4 8 -11 0 -11 3 0 17 8 9 10 14 4 11 -6 -4 -9 16 -8 53 1 32 2 75 2 95 1 20
5 33 11 29 6 -3 7 1 4 9 -3 9 -1 16 5 16 6 0 11 7 11 15 0 9 6 12 17 8 12 -5
14 -3 8 7 -6 10 -2 12 19 8 14 -3 26 -1 26 4 0 5 5 6 11 3 13 -9 128 -10 136
-1 3 3 13 0 21 -7 13 -9 14 -9 8 1 -7 12 3 15 47 15 9 0 17 4 17 9 0 5 6 8 13
5 6 -2 24 4 38 14 14 10 29 16 33 12 3 -3 6 -1 6 5 0 6 7 9 17 5 11 -4 14 -3
9 5 -4 7 -2 12 6 12 27 0 228 193 228 219 0 3 15 20 33 36 18 17 34 35 37 40
3 6 8 9 12 8 5 -2 7 0 6 5 -4 14 34 62 45 55 6 -3 7 -1 3 6 -5 7 1 20 13 30
12 10 21 21 21 24 0 3 10 17 23 29 23 25 97 114 108 131 4 5 12 6 19 2 9 -6
11 -4 5 5 -5 8 -1 18 10 27 11 7 15 13 10 13 -4 0 2 8 13 19 12 10 18 22 14
26 -4 4 4 4 18 1 15 -5 20 -4 13 1 -9 7 -5 17 17 42 17 18 30 35 30 39 0 4 8
15 18 24 9 9 23 24 30 33 7 8 18 12 24 9 7 -5 8 -2 3 6 -5 9 2 22 21 38 16 13
22 21 14 17 -8 -3 -5 2 8 13 12 11 22 23 22 27 0 12 48 54 54 47 4 -3 4 1 0
11 -4 12 -1 17 10 17 10 0 13 5 9 17 -5 13 -2 15 11 10 11 -4 15 -3 11 4 -4 5
5 21 19 34 14 13 26 27 26 30 0 6 51 74 83 110 34 38 77 108 77 126 0 10 -5
21 -10 24 -6 4 -8 10 -6 14 3 3 -3 7 -12 8 -40 2 -138 14 -149 18 -7 3 -13 0
-13 -6 0 -6 -7 -6 -19 1 -11 5 -22 6 -25 1 -3 -4 -24 -5 -46 -1 -22 4 -43 3
-46 -1 -3 -5 -10 -7 -15 -3 -5 3 -148 5 -317 4 -169 -1 -314 -1 -322 -1 -8 0
-108 1 -222 2 -154 1 -206 4 -201 13 3 6 -2 4 -13 -5 -19 -17 -44 -15 -44 2 0
6 5 7 12 3 7 -5 8 -3 3 6 -6 10 -11 10 -20 -3 -14 -20 -30 -23 -19 -4 6 8 3 8
-9 -1 -13 -11 -21 -11 -44 0 -15 7 -26 17 -24 22 1 5 -3 13 -11 17 -11 7 -10
11 2 19 8 5 11 10 6 10 -5 0 -2 8 5 17 10 11 10 14 1 9 -18 -11 -9 33 9 45 11
7 11 9 1 9 -7 0 -10 5 -7 10 4 6 11 8 16 5 5 -3 6 1 3 9 -3 8 -1 23 5 33 8 14
11 15 11 3 0 -8 8 1 16 20 12 27 17 32 24 20 8 -12 10 -10 10 9 0 16 4 21 15
17 8 -3 14 -2 12 2 -1 4 2 8 6 9 5 1 14 8 20 16 15 17 101 53 144 60 17 3 36
8 41 11 4 3 28 6 53 7 24 1 48 4 53 7 16 9 86 8 86 -1 0 -4 5 -5 12 -1 17 11
159 13 152 3 -3 -5 5 -5 18 -1 13 5 41 7 63 5 22 -2 65 -5 95 -7 30 -3 89 -7
130 -11 41 -4 85 -8 97 -10 12 -1 29 -7 38 -15 13 -11 14 -10 9 5 -6 14 -4 16
7 9 8 -4 25 -9 39 -9 14 0 31 -5 39 -9 9 -6 12 -5 8 1 -3 5 10 9 31 9 42 0
132 25 132 36 0 4 6 8 13 8 14 0 70 43 100 77 20 22 21 22 41 5 l21 -17 -20
24 c-14 17 -16 25 -7 28 6 3 12 11 12 19 0 9 4 13 9 10 5 -3 14 8 21 25 8 18
18 28 26 25 8 -3 11 0 8 8 -3 7 2 20 10 29 9 9 16 20 16 24 0 5 9 19 20 31 12
12 18 22 15 22 -3 0 5 10 17 22 13 13 26 22 30 21 4 -2 5 3 3 10 -3 6 8 27 24
45 16 17 50 61 76 97 27 37 53 62 59 58 6 -3 8 -3 4 2 -7 7 21 54 49 83 7 7
13 18 13 24 0 5 7 8 14 5 9 -4 13 -1 10 6 -2 7 7 24 21 39 14 15 25 32 25 37
0 5 10 17 22 25 12 9 18 16 13 16 -6 1 -1 8 11 18 11 9 20 21 21 25 1 5 14 24
31 42 16 19 27 37 24 40 -3 3 0 5 6 5 7 0 12 6 12 14 0 8 6 16 13 19 8 3 22
21 31 41 11 23 22 34 29 29 9 -5 9 -3 1 8 -7 8 -8 23 -4 34 4 12 2 32 -7 49
-18 36 -62 77 -74 70 -5 -3 -9 -1 -9 4 0 8 -48 34 -70 38 -3 0 -27 10 -53 22
-27 12 -55 22 -63 22 -8 0 -14 5 -14 10 0 6 -11 10 -24 10 -14 0 -28 5 -31 10
-4 6 -10 8 -15 5 -5 -3 -14 0 -22 7 -7 7 -24 14 -38 16 -14 2 -59 12 -100 22
-67 17 -144 31 -192 36 -10 1 -19 2 -20 4 -2 1 -21 3 -43 4 -22 0 -46 5 -52 9
-8 5 -13 4 -13 -3 0 -6 -5 -8 -11 -5 -13 8 -337 10 -345 2 -4 -3 -16 -2 -29 3
-13 5 -26 6 -29 3 -9 -10 -56 -10 -56 0 0 4 -5 5 -12 1 -17 -11 -91 -11 -105
0 -8 5 -13 5 -13 -1 0 -11 -2689 -12 -2707 0 -6 4 -14 4 -16 0 -6 -10 -149 -9
-165 1 -7 4 -12 3 -12 -1 0 -11 -83 -11 -91 0 -3 4 -8 4 -12 0z"/>
<path d="M6663 7964 c4 -7 -5 -14 -24 -18 -36 -7 -109 -61 -109 -81 0 -7 -3
-15 -7 -17 -5 -1 -26 -27 -48 -55 -21 -29 -43 -53 -47 -53 -4 0 -7 -3 -6 -7 1
-5 -12 -28 -30 -52 -17 -24 -32 -40 -33 -35 0 5 -4 -1 -10 -14 -5 -14 -13 -20
-20 -16 -7 4 -9 3 -6 -4 9 -14 -3 -43 -14 -36 -5 3 -9 -2 -9 -10 0 -9 -4 -16
-9 -16 -5 0 -11 -9 -14 -21 -3 -12 -10 -18 -16 -14 -7 4 -8 0 -4 -11 4 -12 3
-15 -5 -10 -7 4 -12 2 -12 -4 0 -6 -5 -8 -12 -4 -7 4 -8 3 -4 -4 9 -15 -23
-64 -37 -55 -6 3 -7 1 -3 -6 4 -6 0 -14 -8 -17 -9 -3 -13 -11 -9 -17 4 -7 0
-8 -13 -3 -14 5 -16 4 -8 -4 16 -16 -29 -65 -48 -54 -10 6 -10 5 -2 -7 9 -11
9 -17 -1 -26 -7 -6 -16 -9 -19 -6 -3 4 -6 0 -6 -9 0 -20 -35 -59 -45 -50 -5 4
-5 1 -1 -5 8 -14 -17 -57 -26 -47 -3 3 -5 -3 -5 -13 1 -11 -4 -17 -13 -15 -8
2 -12 1 -8 -3 4 -4 -2 -30 -14 -59 -11 -28 -21 -64 -22 -79 -1 -15 -7 -32 -14
-36 -11 -7 -11 -9 1 -14 12 -5 32 -59 28 -79 0 -5 6 -8 15 -8 8 0 13 -4 10 -9
-3 -4 6 -13 20 -20 15 -6 22 -16 18 -23 -4 -7 -3 -8 5 -4 20 13 166 -88 154
-107 -3 -6 -1 -7 4 -4 6 4 16 1 22 -7 9 -11 9 -15 -1 -20 -7 -3 -3 -3 10 0 16
4 22 1 22 -10 0 -9 8 -16 17 -16 9 0 13 -3 10 -6 -4 -4 2 -14 13 -24 10 -9 20
-23 22 -31 2 -8 11 -20 21 -27 9 -7 17 -17 17 -23 0 -5 11 -27 24 -48 14 -21
22 -42 19 -45 -4 -3 0 -6 7 -6 7 0 10 -3 7 -7 -4 -3 0 -17 8 -30 9 -13 13 -28
10 -33 -3 -5 -1 -11 5 -15 11 -7 29 -69 45 -157 3 -16 8 -43 11 -60 6 -34 6
-242 0 -288 -9 -72 -19 -120 -26 -120 -4 0 -5 -11 -2 -25 2 -15 0 -25 -7 -25
-7 0 -10 -4 -6 -9 8 -14 -48 -162 -90 -238 -115 -209 -270 -340 -470 -395 -70
-20 -119 -23 -501 -32 -84 -2 -157 -6 -163 -10 -6 -4 -11 -2 -11 5 0 8 -4 8
-12 1 -14 -10 -63 -10 -74 1 -4 3 -14 3 -23 -2 -9 -4 -32 -7 -51 -5 -44 5 -48
5 -85 1 -16 -2 -33 1 -37 7 -5 7 -8 6 -8 -3 0 -11 -3 -11 -15 -1 -8 7 -15 9
-15 4 0 -5 -18 -9 -40 -10 -22 -1 -40 3 -40 8 0 5 -6 6 -12 1 -20 -12 -38 -12
-38 -1 0 6 -6 5 -15 -2 -12 -10 -15 -10 -15 1 0 12 -2 12 -9 0 -6 -9 -10 -10
-16 -2 -5 9 -10 9 -21 0 -11 -9 -14 -9 -14 1 0 9 -4 9 -17 -1 -15 -12 -16 -12
-8 1 7 12 6 13 -6 3 -12 -10 -18 -10 -29 0 -8 7 -11 8 -7 1 8 -14 -25 -13 -35
1 -5 7 -8 7 -8 0 0 -5 -11 -11 -25 -11 -16 -1 -22 2 -18 10 4 6 -1 5 -10 -3
-14 -11 -20 -11 -32 -1 -13 11 -14 10 -9 -4 6 -14 -12 -22 -32 -13 -3 1 -10
-6 -16 -17 -8 -15 -12 -16 -20 -5 -7 10 -7 7 -3 -8 4 -16 2 -23 -7 -23 -16 0
-17 -7 -21 -151 -2 -58 -7 -111 -11 -117 -4 -7 -4 -12 1 -12 4 0 9 -36 9 -80
1 -50 -3 -77 -9 -73 -6 4 -7 1 -1 -8 14 -24 16 -51 2 -43 -10 6 -10 5 -1 -7 7
-9 12 -40 11 -75 -1 -33 2 -65 6 -72 4 -7 1 -15 -9 -18 -11 -5 -13 -9 -6 -13
7 -5 12 -71 14 -184 3 -157 1 -177 -12 -172 -14 4 -14 4 0 -7 18 -15 24 -102
5 -91 -6 3 -4 -2 5 -11 12 -13 15 -26 9 -52 -5 -19 -4 -34 1 -34 5 0 9 -10 9
-22 0 -27 43 -84 78 -102 21 -11 73 -14 229 -13 118 1 199 -2 196 -7 -4 -5 -1
-6 6 -1 18 11 71 13 71 2 0 -5 6 -4 13 2 8 6 16 8 19 6 3 -3 67 -6 142 -6 100
0 136 -3 136 -12 0 -8 3 -8 8 -2 10 16 54 17 45 2 -5 -9 -3 -9 8 0 9 7 75 12
194 13 99 0 191 2 205 4 14 2 33 -1 44 -6 13 -7 16 -7 12 1 -5 7 3 11 21 12
129 5 214 17 280 40 32 11 58 19 58 19 0 -1 8 2 18 5 9 4 25 1 35 -6 15 -13
16 -12 3 4 -11 14 -7 22 12 16 1 0 31 14 67 32 36 18 67 34 70 34 3 0 21 9 40
20 19 11 37 19 40 20 3 0 16 8 30 17 14 9 37 22 53 29 15 7 27 15 27 18 0 4
17 15 38 26 20 11 39 22 42 25 28 29 74 59 83 53 7 -3 9 -3 5 2 -4 4 2 17 15
27 12 11 34 30 50 44 15 13 27 22 27 19 0 -4 12 7 26 22 15 15 31 27 36 25 5
-1 7 2 4 6 -7 12 28 44 38 35 4 -5 6 -3 5 2 -5 15 48 68 60 60 6 -3 8 0 5 8
-3 9 12 33 35 58 23 23 41 45 41 47 0 3 17 26 38 51 34 42 60 77 87 119 15 24
29 38 40 41 6 1 12 5 15 8 3 4 -1 3 -7 -1 -7 -4 -13 -3 -13 1 0 10 50 86 63
94 5 3 9 10 10 15 1 5 5 8 9 7 4 -2 5 3 2 11 -3 7 1 20 9 27 7 8 13 16 13 19
0 13 30 70 37 70 5 0 5 5 2 10 -3 6 0 13 9 16 8 3 12 12 9 20 -3 9 2 14 13 15
11 0 14 3 8 5 -9 4 -8 12 1 32 14 28 38 83 39 92 1 3 4 10 7 15 4 6 12 27 18
47 8 25 17 35 27 31 8 -3 14 0 14 6 0 6 -3 10 -7 9 -10 -4 -11 11 -5 35 2 9 9
17 14 17 5 0 7 4 3 10 -3 5 1 26 10 47 9 21 15 38 15 38 -1 0 1 17 5 38 4 20
11 37 16 37 4 0 6 9 4 20 -2 11 1 20 6 20 6 0 8 4 5 9 -3 5 1 29 8 55 8 25 11
46 8 46 -3 0 3 7 14 16 10 8 13 13 7 9 -16 -8 -16 19 0 65 7 19 12 45 11 58
-1 12 1 22 5 22 3 0 6 15 6 33 0 17 4 64 9 102 5 39 8 78 8 88 -1 10 4 15 10
11 6 -4 5 3 -2 16 -10 18 -10 21 2 14 11 -6 11 -5 0 8 -15 19 -12 38 8 56 11
10 12 12 1 6 -11 -5 -13 -3 -8 9 4 10 1 17 -5 17 -9 0 -9 3 -1 11 6 6 9 18 6
27 -4 10 -2 13 5 8 6 -4 5 5 -3 21 -8 16 -11 31 -6 36 5 5 5 22 1 37 -5 18 -4
32 3 39 8 8 7 11 -2 11 -10 0 -11 3 -2 13 6 8 8 17 4 20 -3 4 -7 22 -9 39 -7
90 -14 158 -22 200 -6 32 -6 51 2 59 8 9 8 10 -1 5 -8 -5 -13 -1 -14 11 -1 10
-3 32 -6 48 -3 17 -5 40 -6 53 0 12 -4 22 -7 22 -5 0 -31 108 -29 120 1 3 -6
22 -15 44 -15 37 -25 72 -29 106 -1 8 -4 17 -7 20 -6 6 -40 97 -47 128 -3 12
-10 22 -15 22 -5 0 -6 5 -3 10 3 6 1 10 -6 10 -7 0 -10 3 -7 6 4 3 -18 53 -48
111 -29 58 -51 110 -47 116 3 6 1 7 -5 3 -13 -8 -65 87 -54 99 4 5 2 5 -5 2
-7 -4 -17 5 -25 23 -7 16 -17 30 -22 30 -4 0 -5 8 -2 17 4 10 4 14 0 11 -8 -8
-44 34 -44 51 0 6 -4 11 -10 11 -5 0 -10 6 -10 14 0 8 -7 17 -16 20 -9 4 -14
9 -11 12 3 3 -2 14 -11 23 -9 10 -26 31 -37 46 -11 16 -33 41 -48 57 -17 16
-25 33 -21 40 4 7 4 10 -1 6 -4 -4 -39 22 -77 57 -37 36 -73 65 -79 65 -5 0
-19 9 -31 20 -12 11 -29 20 -38 20 -9 0 -20 4 -25 9 -6 5 -23 11 -40 12 -16 2
-36 8 -44 14 -11 7 -13 7 -8 -1z"/>
<path d="M6435 7819 c-3 -4 2 -6 10 -5 21 3 28 13 10 13 -9 0 -18 -4 -20 -8z"/>
<path d="M6316 7673 c-6 -14 -5 -15 5 -6 7 7 10 15 7 18 -3 3 -9 -2 -12 -12z"/>
<path d="M6350 7680 c0 -5 5 -10 11 -10 5 0 7 5 4 10 -3 6 -8 10 -11 10 -2 0
-4 -4 -4 -10z"/>
<path d="M6267 7619 c7 -7 15 -10 18 -7 3 3 -2 9 -12 12 -14 6 -15 5 -6 -5z"/>
<path d="M6055 7361 c-3 -5 -2 -12 3 -15 5 -3 9 1 9 9 0 17 -3 19 -12 6z"/>
<path d="M5956 7233 c-6 -14 -5 -15 5 -6 7 7 10 15 7 18 -3 3 -9 -2 -12 -12z"/>
<path d="M5994 7216 c1 -8 5 -18 8 -22 4 -3 5 1 4 10 -1 8 -5 18 -8 22 -4 3
-5 -1 -4 -10z"/>
<path d="M5944 7202 c4 -3 14 -7 22 -8 9 -1 13 0 10 4 -4 3 -14 7 -22 8 -9 1
-13 0 -10 -4z"/>
<path d="M5905 7160 c-3 -6 1 -7 9 -4 18 7 21 14 7 14 -6 0 -13 -4 -16 -10z"/>
<path d="M5896 7113 c-6 -14 -5 -15 5 -6 7 7 10 15 7 18 -3 3 -9 -2 -12 -12z"/>
<path d="M5874 7049 c-3 -6 -2 -15 3 -20 5 -5 9 -1 9 11 0 23 -2 24 -12 9z"/>
<path d="M5820 7026 c0 -2 8 -10 18 -17 15 -13 16 -12 3 4 -13 16 -21 21 -21
13z"/>
<path d="M5913 6915 c0 -8 4 -12 9 -9 5 3 6 10 3 15 -9 13 -12 11 -12 -6z"/>
<path d="M5856 6902 c-3 -5 1 -9 9 -9 8 0 12 4 9 9 -3 4 -7 8 -9 8 -2 0 -6 -4
-9 -8z"/>
<path d="M5640 6880 c-9 -6 -10 -10 -3 -10 6 0 15 5 18 10 8 12 4 12 -15 0z"/>
<path d="M4810 6859 c0 -5 5 -7 10 -4 6 3 10 8 10 11 0 2 -4 4 -10 4 -5 0 -10
-5 -10 -11z"/>
<path d="M4850 6859 c0 -5 5 -7 10 -4 6 3 10 8 10 11 0 2 -4 4 -10 4 -5 0 -10
-5 -10 -11z"/>
<path d="M5090 6859 c0 -5 5 -7 10 -4 6 3 10 8 10 11 0 2 -4 4 -10 4 -5 0 -10
-5 -10 -11z"/>
<path d="M5190 6865 c0 -7 30 -13 34 -7 3 4 -4 9 -15 9 -10 1 -19 0 -19 -2z"/>
<path d="M5290 6859 c0 -5 5 -7 10 -4 6 3 10 8 10 11 0 2 -4 4 -10 4 -5 0 -10
-5 -10 -11z"/>
<path d="M1716 6847 c3 -10 9 -15 12 -12 3 3 0 11 -7 18 -10 9 -11 8 -5 -6z"/>
<path d="M1753 6845 c0 -8 4 -12 9 -9 5 3 6 10 3 15 -9 13 -12 11 -12 -6z"/>
<path d="M1910 6841 c0 -6 4 -13 10 -16 6 -3 7 1 4 9 -7 18 -14 21 -14 7z"/>
<path d="M2513 6835 c0 -8 4 -12 9 -9 5 3 6 10 3 15 -9 13 -12 11 -12 -6z"/>
<path d="M4979 6848 c-5 -18 -6 -38 -1 -34 7 8 12 36 6 36 -2 0 -4 -1 -5 -2z"/>
<path d="M1190 6837 c0 -2 6 -10 14 -16 11 -9 16 -9 22 1 4 7 4 10 -1 6 -4 -4
-14 -3 -22 3 -7 6 -13 9 -13 6z"/>
<path d="M1270 6837 c0 -2 6 -10 14 -16 11 -9 16 -9 22 1 4 7 4 10 -1 6 -4 -4
-14 -3 -22 3 -7 6 -13 9 -13 6z"/>
<path d="M2475 6830 c-4 -6 -11 -7 -17 -4 -7 4 -8 2 -4 -5 6 -9 11 -9 22 0 14
11 18 19 10 19 -3 0 -8 -5 -11 -10z"/>
<path d="M1096 6822 c-3 -5 1 -9 9 -9 8 0 12 4 9 9 -3 4 -7 8 -9 8 -2 0 -6 -4
-9 -8z"/>
<path d="M1416 6822 c-3 -5 1 -9 9 -9 8 0 12 4 9 9 -3 4 -7 8 -9 8 -2 0 -6 -4
-9 -8z"/>
<path d="M1495 6820 c5 -8 42 -6 50 1 2 3 -8 5 -25 5 -16 0 -27 -3 -25 -6z"/>
<path d="M1576 6818 c3 -5 10 -6 15 -3 13 9 11 12 -6 12 -8 0 -12 -4 -9 -9z"/>
<path d="M1650 6820 c0 -5 5 -10 11 -10 5 0 7 5 4 10 -3 6 -8 10 -11 10 -2 0
-4 -4 -4 -10z"/>
<path d="M1975 6821 c-3 -5 -2 -12 3 -15 5 -3 9 1 9 9 0 17 -3 19 -12 6z"/>
<path d="M2115 6819 c-3 -4 2 -6 10 -5 21 3 28 13 10 13 -9 0 -18 -4 -20 -8z"/>
<path d="M2174 6822 c4 -3 14 -7 22 -8 9 -1 13 0 10 4 -4 3 -14 7 -22 8 -9 1
-13 0 -10 -4z"/>
<path d="M2246 6818 c3 -5 10 -6 15 -3 13 9 11 12 -6 12 -8 0 -12 -4 -9 -9z"/>
<path d="M2374 6818 c-4 -7 -4 -10 1 -6 4 4 15 2 24 -5 14 -11 14 -10 2 6 -16
20 -18 21 -27 5z"/>
<path d="M2694 6816 c1 -8 5 -18 8 -22 4 -3 5 1 4 10 -1 8 -5 18 -8 22 -4 3
-5 -1 -4 -10z"/>
<path d="M4650 6819 c0 -5 5 -7 10 -4 6 3 10 8 10 11 0 2 -4 4 -10 4 -5 0 -10
-5 -10 -11z"/>
<path d="M4730 6819 c0 -5 5 -7 10 -4 6 3 10 8 10 11 0 2 -4 4 -10 4 -5 0 -10
-5 -10 -11z"/>
<path d="M5175 6821 c-3 -5 -2 -12 3 -15 5 -3 9 1 9 9 0 17 -3 19 -12 6z"/>
<path d="M5296 6822 c-2 -4 -1 -14 4 -22 7 -11 9 -9 7 8 -1 24 -3 26 -11 14z"/>
<path d="M5375 6819 c-3 -4 2 -6 10 -5 21 3 28 13 10 13 -9 0 -18 -4 -20 -8z"/>
<path d="M5526 6822 c-3 -5 1 -9 9 -9 8 0 12 4 9 9 -3 4 -7 8 -9 8 -2 0 -6 -4
-9 -8z"/>
<path d="M7533 6815 c0 -8 4 -12 9 -9 5 3 6 10 3 15 -9 13 -12 11 -12 -6z"/>
<path d="M1710 6801 c0 -6 4 -13 10 -16 6 -3 7 1 4 9 -7 18 -14 21 -14 7z"/>
<path d="M1796 6798 c3 -5 10 -6 15 -3 13 9 11 12 -6 12 -8 0 -12 -4 -9 -9z"/>
<path d="M2530 6800 c0 -5 5 -10 11 -10 5 0 7 5 4 10 -3 6 -8 10 -11 10 -2 0
-4 -4 -4 -10z"/>
<path d="M1390 6785 c0 -5 5 -17 10 -25 5 -8 10 -10 10 -5 0 6 -5 17 -10 25
-5 8 -10 11 -10 5z"/>
<path d="M1953 6775 c0 -8 4 -12 9 -9 5 3 6 10 3 15 -9 13 -12 11 -12 -6z"/>
<path d="M2271 6767 c-13 -21 -12 -21 5 -5 10 10 16 20 13 22 -3 3 -11 -5 -18
-17z"/>
<path d="M2775 6781 c-3 -5 -2 -12 3 -15 5 -3 9 1 9 9 0 17 -3 19 -12 6z"/>
<path d="M4495 6780 c3 -5 8 -10 11 -10 2 0 4 5 4 10 0 6 -5 10 -11 10 -5 0
-7 -4 -4 -10z"/>
<path d="M4530 6779 c0 -5 5 -7 10 -4 6 3 10 8 10 11 0 2 -4 4 -10 4 -5 0 -10
-5 -10 -11z"/>
<path d="M1875 6769 c-4 -6 -5 -12 -2 -15 2 -3 7 2 10 11 7 17 1 20 -8 4z"/>
<path d="M5430 6776 c0 -2 8 -10 18 -17 15 -13 16 -12 3 4 -13 16 -21 21 -21
13z"/>
<path d="M5550 6776 c0 -2 8 -10 18 -17 15 -13 16 -12 3 4 -13 16 -21 21 -21
13z"/>
<path d="M4520 6740 c-12 -7 -10 -9 7 -7 12 0 19 5 17 9 -6 10 -6 10 -24 -2z"/>
<path d="M4576 6738 c3 -4 11 -5 19 -1 21 7 19 12 -4 10 -11 0 -18 -5 -15 -9z"/>
<path d="M4650 6726 c0 -2 7 -7 16 -10 8 -3 12 -2 9 4 -6 10 -25 14 -25 6z"/>
<path d="M7574 6696 c1 -8 5 -18 8 -22 4 -3 5 1 4 10 -1 8 -5 18 -8 22 -4 3
-5 -1 -4 -10z"/>
<path d="M4340 6686 c0 -2 8 -10 18 -17 15 -13 16 -12 3 4 -13 16 -21 21 -21
13z"/>
<path d="M4399 6673 c-13 -16 -12 -17 4 -4 9 7 17 15 17 17 0 8 -8 3 -21 -13z"/>
<path d="M1485 6640 c-3 -6 1 -7 9 -4 18 7 21 14 7 14 -6 0 -13 -4 -16 -10z"/>
<path d="M4395 6560 c-3 -5 -1 -10 4 -10 6 0 11 5 11 10 0 6 -2 10 -4 10 -3 0
-8 -4 -11 -10z"/>
<path d="M7610 6499 c0 -5 5 -7 10 -4 6 3 10 8 10 11 0 2 -4 4 -10 4 -5 0 -10
-5 -10 -11z"/>
<path d="M7659 6228 c-5 -18 -6 -38 -1 -34 7 8 12 36 6 36 -2 0 -4 -1 -5 -2z"/>
<path d="M5696 6138 c3 -5 10 -6 15 -3 13 9 11 12 -6 12 -8 0 -12 -4 -9 -9z"/>
<path d="M7694 6076 c1 -8 5 -18 8 -22 4 -3 5 1 4 10 -1 8 -5 18 -8 22 -4 3
-5 -1 -4 -10z"/>
<path d="M5596 6047 c3 -10 9 -15 12 -12 3 3 0 11 -7 18 -10 9 -11 8 -5 -6z"/>
<path d="M7699 6028 c-5 -18 -6 -38 -1 -34 7 8 12 36 6 36 -2 0 -4 -1 -5 -2z"/>
<path d="M5596 5993 c-6 -14 -5 -15 5 -6 7 7 10 15 7 18 -3 3 -9 -2 -12 -12z"/>
<path d="M5535 5940 c-3 -5 -1 -10 4 -10 6 0 11 5 11 10 0 6 -2 10 -4 10 -3 0
-8 -4 -11 -10z"/>
<path d="M5566 5938 c3 -5 10 -6 15 -3 13 9 11 12 -6 12 -8 0 -12 -4 -9 -9z"/>
<path d="M5616 5938 c3 -4 11 -5 19 -1 21 7 19 12 -4 10 -11 0 -18 -5 -15 -9z"/>
<path d="M5470 5921 c0 -6 4 -13 10 -16 6 -3 7 1 4 9 -7 18 -14 21 -14 7z"/>
<path d="M7699 5908 c-5 -18 -6 -38 -1 -34 7 8 12 36 6 36 -2 0 -4 -1 -5 -2z"/>
<path d="M5494 5816 c1 -8 5 -18 8 -22 4 -3 5 1 4 10 -1 8 -5 18 -8 22 -4 3
-5 -1 -4 -10z"/>
<path d="M7716 5813 c-6 -14 -5 -15 5 -6 7 7 10 15 7 18 -3 3 -9 -2 -12 -12z"/>
<path d="M7694 5776 c1 -8 5 -18 8 -22 4 -3 5 1 4 10 -1 8 -5 18 -8 22 -4 3
-5 -1 -4 -10z"/>
<path d="M5470 5766 c0 -2 7 -7 16 -10 8 -3 12 -2 9 4 -6 10 -25 14 -25 6z"/>
<path d="M5414 5736 c1 -8 5 -18 8 -22 4 -3 5 1 4 10 -1 8 -5 18 -8 22 -4 3
-5 -1 -4 -10z"/>
<path d="M7635 5721 c-3 -5 -2 -12 3 -15 5 -3 9 1 9 9 0 17 -3 19 -12 6z"/>
<path d="M7670 5720 c0 -5 5 -10 11 -10 5 0 7 5 4 10 -3 6 -8 10 -11 10 -2 0
-4 -4 -4 -10z"/>
<path d="M7826 5718 c3 -5 10 -6 15 -3 13 9 11 12 -6 12 -8 0 -12 -4 -9 -9z"/>
<path d="M5356 5682 c-3 -5 1 -9 9 -9 8 0 12 4 9 9 -3 4 -7 8 -9 8 -2 0 -6 -4
-9 -8z"/>
<path d="M7630 5639 c0 -5 5 -7 10 -4 6 3 10 8 10 11 0 2 -4 4 -10 4 -5 0 -10
-5 -10 -11z"/>
<path d="M5290 5620 c0 -5 5 -10 11 -10 5 0 7 5 4 10 -3 6 -8 10 -11 10 -2 0
-4 -4 -4 -10z"/>
<path d="M5275 5561 c-3 -5 -2 -12 3 -15 5 -3 9 1 9 9 0 17 -3 19 -12 6z"/>
<path d="M7655 5540 c3 -5 8 -10 11 -10 2 0 4 5 4 10 0 6 -5 10 -11 10 -5 0
-7 -4 -4 -10z"/>
<path d="M7653 5505 c0 -8 4 -12 9 -9 5 3 6 10 3 15 -9 13 -12 11 -12 -6z"/>
<path d="M5073 5473 c0 -9 4 -10 14 -2 7 6 13 12 13 14 0 1 -6 2 -13 2 -8 0
-14 -6 -14 -14z"/>
<path d="M5135 5460 c-3 -5 -1 -10 4 -10 6 0 11 5 11 10 0 6 -2 10 -4 10 -3 0
-8 -4 -11 -10z"/>
<path d="M5175 5461 c-3 -5 -2 -12 3 -15 5 -3 9 1 9 9 0 17 -3 19 -12 6z"/>
<path d="M5113 5435 c0 -8 4 -12 9 -9 5 3 6 10 3 15 -9 13 -12 11 -12 -6z"/>
<path d="M5070 5345 c0 -7 30 -13 34 -7 3 4 -4 9 -15 9 -10 1 -19 0 -19 -2z"/>
<path d="M7610 5340 c0 -5 5 -10 11 -10 5 0 7 5 4 10 -3 6 -8 10 -11 10 -2 0
-4 -4 -4 -10z"/>
<path d="M5015 5300 c-3 -5 -1 -10 4 -10 6 0 11 5 11 10 0 6 -2 10 -4 10 -3 0
-8 -4 -11 -10z"/>
<path d="M7600 5300 c-12 -7 -10 -9 7 -7 12 0 19 5 17 9 -6 10 -6 10 -24 -2z"/>
<path d="M5236 5287 c3 -10 9 -15 12 -12 3 3 0 11 -7 18 -10 9 -11 8 -5 -6z"/>
<path d="M5055 5280 c-3 -5 -1 -10 4 -10 6 0 11 5 11 10 0 6 -2 10 -4 10 -3 0
-8 -4 -11 -10z"/>
<path d="M5110 5281 c0 -6 4 -13 10 -16 6 -3 7 1 4 9 -7 18 -14 21 -14 7z"/>
<path d="M4880 5240 c-9 -6 -10 -10 -3 -10 6 0 15 5 18 10 8 12 4 12 -15 0z"/>
<path d="M4970 5219 c0 -5 5 -7 10 -4 6 3 10 8 10 11 0 2 -4 4 -10 4 -5 0 -10
-5 -10 -11z"/>
<path d="M4890 5179 c0 -5 5 -7 10 -4 6 3 10 8 10 11 0 2 -4 4 -10 4 -5 0 -10
-5 -10 -11z"/>
<path d="M7575 5180 c3 -5 8 -10 11 -10 2 0 4 5 4 10 0 6 -5 10 -11 10 -5 0
-7 -4 -4 -10z"/>
<path d="M4956 5147 c3 -10 9 -15 12 -12 3 3 0 11 -7 18 -10 9 -11 8 -5 -6z"/>
<path d="M7573 5145 c0 -8 4 -12 9 -9 5 3 6 10 3 15 -9 13 -12 11 -12 -6z"/>
<path d="M4895 5140 c3 -5 8 -10 11 -10 2 0 4 5 4 10 0 6 -5 10 -11 10 -5 0
-7 -4 -4 -10z"/>
<path d="M4786 5118 c3 -5 10 -6 15 -3 13 9 11 12 -6 12 -8 0 -12 -4 -9 -9z"/>
<path d="M7550 5081 c0 -6 4 -13 10 -16 6 -3 7 1 4 9 -7 18 -14 21 -14 7z"/>
<path d="M4814 5036 c1 -8 5 -18 8 -22 4 -3 5 1 4 10 -1 8 -5 18 -8 22 -4 3
-5 -1 -4 -10z"/>
<path d="M7510 5039 c0 -5 5 -7 10 -4 6 3 10 8 10 11 0 2 -4 4 -10 4 -5 0 -10
-5 -10 -11z"/>
<path d="M7599 5033 c-13 -16 -12 -17 4 -4 16 13 21 21 13 21 -2 0 -10 -8 -17
-17z"/>
<path d="M7679 5013 c-13 -16 -12 -17 4 -4 9 7 17 15 17 17 0 8 -8 3 -21 -13z"/>
<path d="M4293 4955 c0 -8 4 -12 9 -9 5 3 6 10 3 15 -9 13 -12 11 -12 -6z"/>
<path d="M4336 4962 c-3 -5 1 -9 9 -9 8 0 12 4 9 9 -3 4 -7 8 -9 8 -2 0 -6 -4
-9 -8z"/>
<path d="M4273 4915 c0 -8 4 -12 9 -9 5 3 6 10 3 15 -9 13 -12 11 -12 -6z"/>
<path d="M4250 4839 c0 -5 5 -7 10 -4 6 3 10 8 10 11 0 2 -4 4 -10 4 -5 0 -10
-5 -10 -11z"/>
<path d="M7475 4820 c-3 -5 -1 -10 4 -10 6 0 11 5 11 10 0 6 -2 10 -4 10 -3 0
-8 -4 -11 -10z"/>
<path d="M7410 4779 c0 -5 5 -7 10 -4 6 3 10 8 10 11 0 2 -4 4 -10 4 -5 0 -10
-5 -10 -11z"/>
<path d="M7455 4780 c3 -5 8 -10 11 -10 2 0 4 5 4 10 0 6 -5 10 -11 10 -5 0
-7 -4 -4 -10z"/>
<path d="M7410 4739 c0 -5 5 -7 10 -4 6 3 10 8 10 11 0 2 -4 4 -10 4 -5 0 -10
-5 -10 -11z"/>
<path d="M7415 4700 c3 -5 8 -10 11 -10 2 0 4 5 4 10 0 6 -5 10 -11 10 -5 0
-7 -4 -4 -10z"/>
<path d="M7465 4680 c-3 -6 1 -7 9 -4 18 7 21 14 7 14 -6 0 -13 -4 -16 -10z"/>
<path d="M4295 4620 c-3 -5 -1 -10 4 -10 6 0 11 5 11 10 0 6 -2 10 -4 10 -3 0
-8 -4 -11 -10z"/>
<path d="M7370 4620 c0 -5 5 -10 11 -10 5 0 7 5 4 10 -3 6 -8 10 -11 10 -2 0
-4 -4 -4 -10z"/>
<path d="M4290 4579 c0 -5 5 -7 10 -4 6 3 10 8 10 11 0 2 -4 4 -10 4 -5 0 -10
-5 -10 -11z"/>
<path d="M7335 4580 c3 -5 8 -10 11 -10 2 0 4 5 4 10 0 6 -5 10 -11 10 -5 0
-7 -4 -4 -10z"/>
<path d="M7333 4545 c0 -8 4 -12 9 -9 5 3 6 10 3 15 -9 13 -12 11 -12 -6z"/>
<path d="M7290 4440 c0 -5 5 -10 11 -10 5 0 7 5 4 10 -3 6 -8 10 -11 10 -2 0
-4 -4 -4 -10z"/>
<path d="M4295 4420 c3 -5 8 -10 11 -10 2 0 4 5 4 10 0 6 -5 10 -11 10 -5 0
-7 -4 -4 -10z"/>
<path d="M7255 4421 c-3 -5 -2 -12 3 -15 5 -3 9 1 9 9 0 17 -3 19 -12 6z"/>
<path d="M7186 4362 c-3 -5 1 -9 9 -9 8 0 15 4 15 9 0 4 -4 8 -9 8 -6 0 -12
-4 -15 -8z"/>
<path d="M7095 4340 c-3 -5 -1 -10 4 -10 6 0 11 5 11 10 0 6 -2 10 -4 10 -3 0
-8 -4 -11 -10z"/>
<path d="M7250 4326 c0 -2 7 -7 16 -10 8 -3 12 -2 9 4 -6 10 -25 14 -25 6z"/>
<path d="M4255 4300 c3 -5 8 -10 11 -10 2 0 4 5 4 10 0 6 -5 10 -11 10 -5 0
-7 -4 -4 -10z"/>
<path d="M4290 4300 c0 -5 5 -10 11 -10 5 0 7 5 4 10 -3 6 -8 10 -11 10 -2 0
-4 -4 -4 -10z"/>
<path d="M7195 4299 c-3 -4 2 -6 10 -5 21 3 28 13 10 13 -9 0 -18 -4 -20 -8z"/>
<path d="M7109 4283 c-13 -16 -12 -17 4 -4 9 7 17 15 17 17 0 8 -8 3 -21 -13z"/>
<path d="M7155 4280 c3 -5 8 -10 11 -10 2 0 4 5 4 10 0 6 -5 10 -11 10 -5 0
-7 -4 -4 -10z"/>
<path d="M7110 4256 c0 -2 8 -10 18 -17 15 -13 16 -12 3 4 -13 16 -21 21 -21
13z"/>
<path d="M4286 4222 c-3 -5 1 -9 9 -9 8 0 12 4 9 9 -3 4 -7 8 -9 8 -2 0 -6 -4
-9 -8z"/>
<path d="M7190 4221 c0 -6 4 -13 10 -16 6 -3 7 1 4 9 -7 18 -14 21 -14 7z"/>
<path d="M7099 4208 c-5 -18 -6 -38 -1 -34 7 8 12 36 6 36 -2 0 -4 -1 -5 -2z"/>
<path d="M7093 4129 c-2 -23 3 -25 10 -4 4 8 3 16 -1 19 -4 3 -9 -4 -9 -15z"/>
<path d="M6936 4113 c-6 -14 -5 -15 5 -6 7 7 10 15 7 18 -3 3 -9 -2 -12 -12z"/>
<path d="M4295 4100 c-3 -5 -1 -10 4 -10 6 0 11 5 11 10 0 6 -2 10 -4 10 -3 0
-8 -4 -11 -10z"/>
<path d="M7014 4076 c1 -8 5 -18 8 -22 4 -3 5 1 4 10 -1 8 -5 18 -8 22 -4 3
-5 -1 -4 -10z"/>
<path d="M4315 4061 c-3 -5 -2 -12 3 -15 5 -3 9 1 9 9 0 17 -3 19 -12 6z"/>
<path d="M4280 4000 c-9 -6 -10 -10 -3 -10 6 0 15 5 18 10 8 12 4 12 -15 0z"/>
<path d="M4315 4001 c-3 -5 -2 -12 3 -15 5 -3 9 1 9 9 0 17 -3 19 -12 6z"/>
<path d="M6795 4001 c-3 -5 -2 -12 3 -15 5 -3 9 1 9 9 0 17 -3 19 -12 6z"/>
<path d="M7005 4000 c-3 -6 1 -7 9 -4 18 7 21 14 7 14 -6 0 -13 -4 -16 -10z"/>
<path d="M4266 3962 c-3 -5 1 -9 9 -9 8 0 12 4 9 9 -3 4 -7 8 -9 8 -2 0 -6 -4
-9 -8z"/>
<path d="M6785 3959 c-3 -4 2 -6 10 -5 21 3 28 13 10 13 -9 0 -18 -4 -20 -8z"/>
<path d="M6876 3915 c-9 -26 -7 -32 5 -12 6 10 9 21 6 23 -2 3 -7 -2 -11 -11z"/>
<path d="M7085 3920 c-3 -6 1 -7 9 -4 18 7 21 14 7 14 -6 0 -13 -4 -16 -10z"/>
<path d="M6655 3900 c-3 -5 -1 -10 4 -10 6 0 11 5 11 10 0 6 -2 10 -4 10 -3 0
-8 -4 -11 -10z"/>
<path d="M4307 3879 c7 -7 15 -10 18 -7 3 3 -2 9 -12 12 -14 6 -15 5 -6 -5z"/>
<path d="M6777 3875 c-4 -8 -3 -16 1 -19 4 -3 9 4 9 15 2 23 -3 25 -10 4z"/>
<path d="M4315 3841 c-3 -5 -2 -12 3 -15 5 -3 9 1 9 9 0 17 -3 19 -12 6z"/>
<path d="M4266 3802 c-3 -5 1 -9 9 -9 8 0 12 4 9 9 -3 4 -7 8 -9 8 -2 0 -6 -4
-9 -8z"/>
<path d="M4307 3799 c7 -7 15 -10 18 -7 3 3 -2 9 -12 12 -14 6 -15 5 -6 -5z"/>
<path d="M6654 3782 c4 -3 14 -7 22 -8 9 -1 13 0 10 4 -4 3 -14 7 -22 8 -9 1
-13 0 -10 -4z"/>
<path d="M6449 3763 c-13 -16 -12 -17 4 -4 9 7 17 15 17 17 0 8 -8 3 -21 -13z"/>
<path d="M4310 3756 c7 -7 13 -7 20 0 6 6 3 10 -10 10 -13 0 -16 -4 -10 -10z"/>
<path d="M6616 3738 c3 -5 10 -6 15 -3 13 9 11 12 -6 12 -8 0 -12 -4 -9 -9z"/>
<path d="M4266 3722 c-3 -5 1 -9 9 -9 8 0 12 4 9 9 -3 4 -7 8 -9 8 -2 0 -6 -4
-9 -8z"/>
<path d="M4310 3721 c0 -6 4 -13 10 -16 6 -3 7 1 4 9 -7 18 -14 21 -14 7z"/>
<path d="M6396 3718 c3 -5 10 -6 15 -3 13 9 11 12 -6 12 -8 0 -12 -4 -9 -9z"/>
<path d="M6575 3720 c-3 -5 -1 -10 4 -10 6 0 11 5 11 10 0 6 -2 10 -4 10 -3 0
-8 -4 -11 -10z"/>
<path d="M4266 3682 c-3 -5 1 -9 9 -9 8 0 12 4 9 9 -3 4 -7 8 -9 8 -2 0 -6 -4
-9 -8z"/>
<path d="M6410 3660 c0 -5 5 -10 11 -10 5 0 7 5 4 10 -3 6 -8 10 -11 10 -2 0
-4 -4 -4 -10z"/>
<path d="M6455 3661 c-3 -5 -2 -12 3 -15 5 -3 9 1 9 9 0 17 -3 19 -12 6z"/>
<path d="M4265 3640 c-3 -6 1 -7 9 -4 18 7 21 14 7 14 -6 0 -13 -4 -16 -10z"/>
<path d="M6073 3595 c0 -8 4 -12 9 -9 5 3 6 10 3 15 -9 13 -12 11 -12 -6z"/>
<path d="M4319 3573 c-12 -16 -12 -17 2 -6 9 7 20 9 24 5 5 -4 5 -1 1 6 -9 16
-11 15 -27 -5z"/>
<path d="M4367 3559 c7 -7 15 -10 18 -7 3 3 -2 9 -12 12 -14 6 -15 5 -6 -5z"/>
<path d="M6260 3560 c-9 -6 -10 -10 -3 -10 6 0 15 5 18 10 8 12 4 12 -15 0z"/>
<path d="M5893 3545 c0 -8 4 -12 9 -9 5 3 6 10 3 15 -9 13 -12 11 -12 -6z"/>
<path d="M4779 3548 c-5 -18 -6 -38 -1 -34 7 8 12 36 6 36 -2 0 -4 -1 -5 -2z"/>
<path d="M5090 3539 c0 -5 5 -7 10 -4 6 3 10 8 10 11 0 2 -4 4 -10 4 -5 0 -10
-5 -10 -11z"/>
<path d="M5170 3540 c0 -5 5 -10 11 -10 5 0 7 5 4 10 -3 6 -8 10 -11 10 -2 0
-4 -4 -4 -10z"/>
<path d="M5206 3538 c3 -5 10 -6 15 -3 13 9 11 12 -6 12 -8 0 -12 -4 -9 -9z"/>
<path d="M5455 3540 c-3 -5 -1 -10 4 -10 6 0 11 5 11 10 0 6 -2 10 -4 10 -3 0
-8 -4 -11 -10z"/>
<path d="M6010 3540 c0 -5 5 -10 11 -10 5 0 7 5 4 10 -3 6 -8 10 -11 10 -2 0
-4 -4 -4 -10z"/>
<path d="M6136 3542 c-2 -4 -1 -14 4 -22 7 -11 9 -9 7 8 -1 24 -3 26 -11 14z"/>
<path d="M4870 3536 c0 -2 8 -10 18 -17 15 -13 16 -12 3 4 -13 16 -21 21 -21
13z"/>
<path d="M4826 3522 c-2 -4 4 -8 14 -8 10 0 16 4 14 8 -3 4 -9 8 -14 8 -5 0
-11 -4 -14 -8z"/>
<path d="M6180 3526 c0 -2 8 -10 18 -17 15 -13 16 -12 3 4 -13 16 -21 21 -21
13z"/>
<path d="M5655 3511 c-3 -5 -2 -12 3 -15 5 -3 9 1 9 9 0 17 -3 19 -12 6z"/>
<path d="M4250 3499 c0 -5 5 -7 10 -4 6 3 10 8 10 11 0 2 -4 4 -10 4 -5 0 -10
-5 -10 -11z"/>
<path d="M4333 3495 c0 -8 4 -12 9 -9 5 3 6 10 3 15 -9 13 -12 11 -12 -6z"/>
<path d="M4715 3501 c-3 -5 -2 -12 3 -15 5 -3 9 1 9 9 0 17 -3 19 -12 6z"/>
<path d="M4956 3493 c-6 -14 -5 -15 5 -6 7 7 10 15 7 18 -3 3 -9 -2 -12 -12z"/>
<path d="M5015 3499 c-3 -4 2 -6 10 -5 21 3 28 13 10 13 -9 0 -18 -4 -20 -8z"/>
<path d="M5134 3502 c4 -3 14 -7 22 -8 9 -1 13 0 10 4 -4 3 -14 7 -22 8 -9 1
-13 0 -10 -4z"/>
<path d="M5339 3508 c-5 -18 -6 -38 -1 -34 7 8 12 36 6 36 -2 0 -4 -1 -5 -2z"/>
<path d="M5373 3495 c0 -8 4 -12 9 -9 5 3 6 10 3 15 -9 13 -12 11 -12 -6z"/>
<path d="M5439 3493 c-12 -16 -12 -17 2 -6 9 7 20 9 24 5 5 -4 5 -1 1 6 -9 16
-11 15 -27 -5z"/>
<path d="M5495 3499 c-3 -4 2 -6 10 -5 21 3 28 13 10 13 -9 0 -18 -4 -20 -8z"/>
<path d="M5915 3500 c3 -5 8 -10 11 -10 2 0 4 5 4 10 0 6 -5 10 -11 10 -5 0
-7 -4 -4 -10z"/>
<path d="M4297 3475 c-4 -8 -3 -16 1 -19 4 -3 9 4 9 15 2 23 -3 25 -10 4z"/>
<path d="M5869 3443 c-13 -16 -12 -17 4 -4 9 7 17 15 17 17 0 8 -8 3 -21 -13z"/>
<path d="M4335 3440 c-3 -5 -1 -10 4 -10 6 0 11 5 11 10 0 6 -2 10 -4 10 -3 0
-8 -4 -11 -10z"/>
<path d="M5359 3433 c-13 -16 -12 -17 4 -4 9 7 17 15 17 17 0 8 -8 3 -21 -13z"/>
<path d="M4290 3420 c0 -5 5 -10 11 -10 5 0 7 5 4 10 -3 6 -8 10 -11 10 -2 0
-4 -4 -4 -10z"/>
<path d="M5110 3416 c0 -2 8 -10 18 -17 15 -13 16 -12 3 4 -13 16 -21 21 -21
13z"/>
<path d="M4315 3340 c-3 -5 -1 -10 4 -10 6 0 11 5 11 10 0 6 -2 10 -4 10 -3 0
-8 -4 -11 -10z"/>
<path d="M4276 3322 c-3 -5 1 -9 9 -9 8 0 12 4 9 9 -3 4 -7 8 -9 8 -2 0 -6 -4
-9 -8z"/>
<path d="M4295 3259 c-3 -4 2 -6 10 -5 21 3 28 13 10 13 -9 0 -18 -4 -20 -8z"/>
<path d="M4315 3221 c-3 -5 -2 -12 3 -15 5 -3 9 1 9 9 0 17 -3 19 -12 6z"/>
<path d="M4299 3188 c-5 -18 -6 -38 -1 -34 7 8 12 36 6 36 -2 0 -4 -1 -5 -2z"/>
<path d="M4255 3100 c-3 -5 -1 -10 4 -10 6 0 11 5 11 10 0 6 -2 10 -4 10 -3 0
-8 -4 -11 -10z"/>
<path d="M4255 3020 c-3 -5 -1 -10 4 -10 6 0 11 5 11 10 0 6 -2 10 -4 10 -3 0
-8 -4 -11 -10z"/>
<path d="M4299 2928 c-5 -18 -6 -38 -1 -34 7 8 12 36 6 36 -2 0 -4 -1 -5 -2z"/>
<path d="M4315 2830 c-4 -6 -11 -7 -17 -4 -7 4 -8 2 -4 -5 6 -9 11 -9 22 0 14
11 18 19 10 19 -3 0 -8 -5 -11 -10z"/>
<path d="M4330 2766 c0 -2 7 -7 16 -10 8 -3 12 -2 9 4 -6 10 -25 14 -25 6z"/>
<path d="M4299 2688 c-5 -18 -6 -38 -1 -34 7 8 12 36 6 36 -2 0 -4 -1 -5 -2z"/>
<path d="M4270 2601 c0 -6 4 -13 10 -16 6 -3 7 1 4 9 -7 18 -14 21 -14 7z"/>
<path d="M4295 2539 c-3 -4 2 -6 10 -5 21 3 28 13 10 13 -9 0 -18 -4 -20 -8z"/>
<path d="M4396 2433 c-6 -14 -5 -15 5 -6 7 7 10 15 7 18 -3 3 -9 -2 -12 -12z"/>
<path d="M4275 2339 c-3 -4 2 -6 10 -5 21 3 28 13 10 13 -9 0 -18 -4 -20 -8z"/>
<path d="M4274 2262 c4 -3 14 -7 22 -8 9 -1 13 0 10 4 -4 3 -14 7 -22 8 -9 1
-13 0 -10 -4z"/>
<path d="M4293 2225 c0 -8 4 -12 9 -9 5 3 6 10 3 15 -9 13 -12 11 -12 -6z"/>
<path d="M4294 2176 c1 -8 5 -18 8 -22 4 -3 5 1 4 10 -1 8 -5 18 -8 22 -4 3
-5 -1 -4 -10z"/>
<path d="M4269 2123 c-13 -16 -12 -17 4 -4 9 7 17 15 17 17 0 8 -8 3 -21 -13z"/>
<path d="M4296 2022 c-3 -5 1 -9 9 -9 8 0 12 4 9 9 -3 4 -7 8 -9 8 -2 0 -6 -4
-9 -8z"/>
<path d="M4293 1935 c0 -8 4 -12 9 -9 5 3 6 10 3 15 -9 13 -12 11 -12 -6z"/>
<path d="M4274 1902 c4 -3 14 -7 22 -8 9 -1 13 0 10 4 -4 3 -14 7 -22 8 -9 1
-13 0 -10 -4z"/>
<path d="M4257 1835 c-4 -8 -3 -16 1 -19 4 -3 9 4 9 15 2 23 -3 25 -10 4z"/>
<path d="M4150 1736 c0 -2 8 -10 18 -17 15 -13 16 -12 3 4 -13 16 -21 21 -21
13z"/>
<path d="M4230 1721 c0 -6 4 -13 10 -16 6 -3 7 1 4 9 -7 18 -14 21 -14 7z"/>
<path d="M4315 1720 c-3 -5 -1 -10 4 -10 6 0 11 5 11 10 0 6 -2 10 -4 10 -3 0
-8 -4 -11 -10z"/>
<path d="M4175 1620 c3 -5 8 -10 11 -10 2 0 4 5 4 10 0 6 -5 10 -11 10 -5 0
-7 -4 -4 -10z"/>
<path d="M3987 1459 c7 -7 15 -10 18 -7 3 3 -2 9 -12 12 -14 6 -15 5 -6 -5z"/>
<path d="M3913 1305 c0 -8 4 -12 9 -9 5 3 6 10 3 15 -9 13 -12 11 -12 -6z"/>
<path d="M3977 1275 c-4 -8 -3 -16 1 -19 4 -3 9 4 9 15 2 23 -3 25 -10 4z"/>
<path d="M3909 1203 c-13 -16 -12 -17 4 -4 9 7 17 15 17 17 0 8 -8 3 -21 -13z"/>
<path d="M3740 1126 c0 -2 8 -10 18 -17 15 -13 16 -12 3 4 -13 16 -21 21 -21
13z"/>
<path d="M3696 1062 c-3 -4 4 -9 15 -9 23 -2 25 3 4 10 -8 4 -16 3 -19 -1z"/>
<path d="M3816 1022 c-3 -5 1 -9 9 -9 8 0 12 4 9 9 -3 4 -7 8 -9 8 -2 0 -6 -4
-9 -8z"/>
<path d="M3779 1008 c-5 -18 -6 -38 -1 -34 7 8 12 36 6 36 -2 0 -4 -1 -5 -2z"/>
<path d="M3695 940 c-3 -5 -1 -10 4 -10 6 0 11 5 11 10 0 6 -2 10 -4 10 -3 0
-8 -4 -11 -10z"/>
<path d="M3680 900 c-12 -7 -10 -9 7 -7 12 0 19 5 17 9 -6 10 -6 10 -24 -2z"/>
<path d="M3655 819 c-3 -4 2 -6 10 -5 21 3 28 13 10 13 -9 0 -18 -4 -20 -8z"/>
<path d="M3615 780 c3 -5 8 -10 11 -10 2 0 4 5 4 10 0 6 -5 10 -11 10 -5 0 -7
-4 -4 -10z"/>
<path d="M3535 740 c-3 -5 -1 -10 4 -10 6 0 11 5 11 10 0 6 -2 10 -4 10 -3 0
-8 -4 -11 -10z"/>
<path d="M3469 723 c-13 -16 -12 -17 4 -4 16 13 21 21 13 21 -2 0 -10 -8 -17
-17z"/>
<path d="M3530 700 c0 -5 5 -10 11 -10 5 0 7 5 4 10 -3 6 -8 10 -11 10 -2 0
-4 -4 -4 -10z"/>
<path d="M3566 682 c-3 -5 1 -9 9 -9 8 0 12 4 9 9 -3 4 -7 8 -9 8 -2 0 -6 -4
-9 -8z"/>
<path d="M3334 576 c1 -8 5 -18 8 -22 4 -3 5 1 4 10 -1 8 -5 18 -8 22 -4 3 -5
-1 -4 -10z"/>
<path d="M3456 582 c-3 -5 1 -9 9 -9 8 0 12 4 9 9 -3 4 -7 8 -9 8 -2 0 -6 -4
-9 -8z"/>
<path d="M3366 538 c3 -5 10 -6 15 -3 13 9 11 12 -6 12 -8 0 -12 -4 -9 -9z"/>
<path d="M3416 542 c-3 -5 1 -9 9 -9 8 0 12 4 9 9 -3 4 -7 8 -9 8 -2 0 -6 -4
-9 -8z"/>
</g>
</svg>
