<svg width="59" height="59" viewBox="0 0 59 59" fill="none" xmlns="http://www.w3.org/2000/svg">
<path d="M52.4444 0H6.55556C2.93361 0 0 2.93361 0 6.55556V52.4444C0 56.0664 2.93361 59 6.55556 59H52.4444C56.0664 59 59 56.0664 59 52.4444V6.55556C59 2.93361 56.0664 0 52.4444 0ZM46.0528 21.3514C46.0528 21.6333 46.0528 21.9119 46.0528 22.4757C46.0528 33.1514 37.9042 45.5152 23.0133 45.5152C18.5194 45.5152 14.3042 44.1091 10.6528 41.8638C11.2133 41.8638 12.0589 41.8638 12.6194 41.8638C16.2709 41.8638 19.9256 40.4576 22.7347 38.4909C19.0832 38.4909 16.2742 35.9638 15.1499 32.8728C15.7104 32.8728 16.2742 33.1547 16.5561 33.1547C17.3984 33.1547 17.9622 33.1547 18.8046 32.8728C15.1532 32.0304 12.3441 28.9395 12.3441 25.0062C13.4684 25.5667 14.5927 25.8486 15.9956 26.1304C13.747 24.1638 12.3441 21.9152 12.3441 19.1062C12.3441 17.7 12.626 16.2971 13.4684 15.1728C17.4017 19.9486 23.3017 23.3214 30.0441 23.6C30.0441 23.0395 29.7622 22.4757 29.7622 21.6333C29.7622 17.1395 33.4137 13.4848 37.9108 13.4848C40.1593 13.4848 42.4046 14.3272 43.8108 16.0119C45.7774 15.7301 47.4622 14.8877 48.8684 14.0453C48.3079 16.0119 46.9017 17.4181 45.2169 18.5391C46.9017 18.2572 48.3079 17.9786 49.9927 17.1329C48.8618 18.8243 47.4589 20.2272 46.0528 21.3514Z" fill="white"/>
</svg>
