<svg width="97" height="106" viewBox="0 0 97 106" fill="none" xmlns="http://www.w3.org/2000/svg">
<g filter="url(#filter0_d_7_742)">
<path d="M2 19.9786C5.59236 14.4792 10.058 10.0707 14.0275 4.95768C15.6748 2.9352 17.6794 2.04894 20.1206 2.04894C34.8473 2.09439 49.5541 2.18529 64.261 2.0035C68.1907 1.93532 71.7831 2.86702 75.2961 4.57136C76.6655 5.25309 76.8839 6.11662 75.8915 7.43464C73.9663 10.0252 71.9816 12.5704 70.0167 15.1155C68.0518 17.6606 67.0793 20.3421 63.6457 20.1603C59.8747 19.9331 49.6931 18.0242 48.5419 23.2054C48.1648 24.4098 48.661 24.7734 49.7923 24.7734H65.2732C66.1068 24.8416 69.0045 24.478 67.8136 26.1596C64.2014 30.9317 60.2121 35.3403 56.5007 39.9988C54.774 42.0895 52.7694 43.2711 50.1694 43.0666C48.6808 42.9303 48.2839 43.4756 48.3037 45.18C48.2839 56.2695 48.3633 67.3591 48.4824 78.4486C48.4824 81.2664 47.9068 83.7661 46.1205 85.9022C42.8259 90.788 40.1267 95.1511 36.058 99.2415C31.8106 102.605 32.803 93.8331 32.5648 91.4697C32.1877 68.5635 33.6961 45.4072 32.1084 22.6146C31.5526 20.6376 30.8183 20.0694 28.9725 20.0694C19.9618 20.0013 11.0305 20.2058 2 19.9786Z" fill="white"/>
<path d="M64.2672 2.50346L64.2696 2.50342C68.1083 2.43683 71.6225 3.34525 75.0754 5.02001C75.7151 5.33888 75.9386 5.63114 75.991 5.87105C76.0449 6.11803 75.9625 6.50904 75.492 7.13389L75.4902 7.1364C73.9017 9.27385 72.273 11.3799 70.645 13.485C70.3035 13.9266 69.962 14.3682 69.6209 14.81C69.2248 15.323 68.8664 15.844 68.5293 16.3341C68.4396 16.4644 68.3514 16.5926 68.2644 16.7179C67.8445 17.3226 67.45 17.8632 67.0195 18.3161C66.1844 19.1948 65.2191 19.7425 63.674 19.6611C63.1621 19.6302 62.5089 19.565 61.7632 19.4905C59.8691 19.3012 57.378 19.0524 55.0889 19.1552C53.4829 19.2274 51.9086 19.472 50.6465 20.0584C49.3729 20.6502 48.3924 21.6052 48.0585 23.0763C47.8644 23.7065 47.8269 24.33 48.2306 24.7764C48.6072 25.1929 49.2214 25.2734 49.7923 25.2734H65.2542C65.4194 25.2852 65.6516 25.284 65.8884 25.2828C65.9886 25.2823 66.0897 25.2818 66.1869 25.2823C66.5542 25.284 66.9183 25.298 67.2102 25.3529C67.3554 25.3802 67.4615 25.4139 67.5326 25.4488C67.5662 25.4653 67.5854 25.4788 67.5955 25.4871C67.5935 25.5269 67.5688 25.6388 67.41 25.8644C65.3064 28.643 63.0938 31.2754 60.8734 33.917C59.278 35.8152 57.6785 37.7182 56.1124 39.6837C54.4549 41.6893 52.5972 42.755 50.2116 42.5684C49.4381 42.498 48.7411 42.579 48.2901 43.109C47.8747 43.5972 47.7942 44.3381 47.8037 45.1823C47.7839 56.2728 47.8633 67.3627 47.9824 78.4515C47.982 81.1979 47.4219 83.5665 45.737 85.5815L45.7204 85.6013L45.706 85.6227C45.2519 86.2961 44.8098 86.9584 44.3747 87.6102C41.6451 91.6995 39.1873 95.3815 35.7247 98.8675C35.2355 99.2513 34.8659 99.4256 34.5983 99.4802C34.3492 99.5309 34.1876 99.48 34.0565 99.3804C33.905 99.2651 33.7512 99.0496 33.6145 98.701C33.4798 98.3576 33.3775 97.9255 33.3024 97.4283C33.1519 96.4333 33.1206 95.2522 33.1138 94.151C33.1123 93.9018 33.1121 93.6547 33.1118 93.4143C33.1111 92.6306 33.1105 91.9188 33.0644 91.441C32.9228 82.8138 33.0496 74.1299 33.1765 65.4343C33.3856 51.1139 33.5951 36.762 32.6071 22.5798L32.6036 22.5287L32.5897 22.4793C32.3045 21.4646 31.9468 20.7011 31.3376 20.211C30.7205 19.7147 29.9351 19.5696 28.9743 19.5694C25.4732 19.543 21.9925 19.5575 18.5167 19.572C13.3238 19.5937 8.14197 19.6154 2.91967 19.5001C4.56881 17.0731 6.38639 14.8463 8.2535 12.6468C8.75187 12.0597 9.25435 11.4739 9.75811 10.8866C11.328 9.05642 12.9102 7.21178 14.4188 5.26897C15.9678 3.36952 17.8271 2.54912 20.1198 2.54894C22.2259 2.55544 24.3317 2.56287 26.4372 2.5703C39.0525 2.61481 51.6599 2.6593 64.2672 2.50346ZM67.5942 25.4697C67.5945 25.4696 67.5952 25.4717 67.5955 25.4765C67.5941 25.4722 67.5939 25.4699 67.5942 25.4697Z" stroke="white"/>
</g>
<g filter="url(#filter1_d_7_742)">
<path d="M66.4511 43.3358C77.0666 43.4714 80.3481 25.5198 70.6617 20.6362C68.4279 19.144 70.5826 16.0465 71.9269 14.5769L76.9678 7.92986C80.4667 2.20975 88.2752 16.1596 89.1845 19.777C95.0359 36.5078 86.1797 56.8108 70.7012 60.9709C64.6126 61.8074 58.3856 61.1517 52.2772 61.3552C50.7156 61.3552 50.0237 60.5865 50.0039 58.8456C49.9248 54.5725 49.8655 50.322 49.8062 46.0715C49.7864 44.3532 50.3597 43.6071 51.8423 43.5844C54.4122 43.5392 56.9623 43.5618 59.5322 43.5618C60.4811 43.5166 64.1579 43.3358 66.4511 43.3358Z" fill="url(#paint0_angular_7_742)"/>
</g>
<defs>
<filter id="filter0_d_7_742" x="0" y="0" width="82.5057" height="106" filterUnits="userSpaceOnUse" color-interpolation-filters="sRGB">
<feFlood flood-opacity="0" result="BackgroundImageFix"/>
<feColorMatrix in="SourceAlpha" type="matrix" values="0 0 0 0 0 0 0 0 0 0 0 0 0 0 0 0 0 0 127 0" result="hardAlpha"/>
<feOffset dx="2" dy="2"/>
<feGaussianBlur stdDeviation="2"/>
<feComposite in2="hardAlpha" operator="out"/>
<feColorMatrix type="matrix" values="0 0 0 0 0 0 0 0 0 0 0 0 0 0 0 0 0 0 0.25 0"/>
<feBlend mode="normal" in2="BackgroundImageFix" result="effect1_dropShadow_7_742"/>
<feBlend mode="normal" in="SourceGraphic" in2="effect1_dropShadow_7_742" result="shape"/>
</filter>
<filter id="filter1_d_7_742" x="47.8057" y="4.57007" width="49.1943" height="62.8394" filterUnits="userSpaceOnUse" color-interpolation-filters="sRGB">
<feFlood flood-opacity="0" result="BackgroundImageFix"/>
<feColorMatrix in="SourceAlpha" type="matrix" values="0 0 0 0 0 0 0 0 0 0 0 0 0 0 0 0 0 0 127 0" result="hardAlpha"/>
<feOffset dx="2" dy="2"/>
<feGaussianBlur stdDeviation="2"/>
<feComposite in2="hardAlpha" operator="out"/>
<feColorMatrix type="matrix" values="0 0 0 0 0 0 0 0 0 0 0 0 0 0 0 0 0 0 0.25 0"/>
<feBlend mode="normal" in2="BackgroundImageFix" result="effect1_dropShadow_7_742"/>
<feBlend mode="normal" in="SourceGraphic" in2="effect1_dropShadow_7_742" result="shape"/>
</filter>
<radialGradient id="paint0_angular_7_742" cx="0" cy="0" r="1" gradientUnits="userSpaceOnUse" gradientTransform="translate(70.4029 33.9898) rotate(147.689) scale(51.2987 38.4481)">
<stop offset="0.0688569" stop-color="#E69951"/>
<stop offset="0.0693339" stop-color="#BF3EC3"/>
<stop offset="0.232292" stop-color="#130AE6"/>
<stop offset="0.543162" stop-color="#BC304B"/>
<stop offset="1" stop-color="#E69951"/>
</radialGradient>
</defs>
</svg>
